<svg width="42" height="44" viewBox="0 0 42 44" fill="none" xmlns="http://www.w3.org/2000/svg">
<path d="M40.3597 15.3832C39.8477 15.0829 39.262 14.9314 38.6686 14.9457C38.0752 14.9601 37.4975 15.1398 37.0007 15.4646L34.6516 12.1801C35.1837 11.7748 35.6141 11.2512 35.9088 10.6508C36.2035 10.0503 36.3543 9.38948 36.3494 8.72062C36.3444 8.05177 36.1838 7.39325 35.8803 6.79721C35.5768 6.20118 35.1386 5.68399 34.6006 5.28662C34.0625 4.88924 33.4394 4.62259 32.7804 4.50777C32.1215 4.39294 31.4449 4.43311 30.8041 4.62509C30.1634 4.81707 29.5762 5.15558 29.0889 5.61383C28.6017 6.07207 28.2278 6.63746 27.9969 7.26522L19.7292 4.42236C19.8649 3.90569 19.8472 3.36069 19.6782 2.85391C19.5093 2.34714 19.1965 1.90051 18.778 1.56855C18.3595 1.23659 17.8533 1.03367 17.3214 0.984554C16.7895 0.935439 16.2548 1.04226 15.7825 1.29197C15.3103 1.54168 14.921 1.92348 14.6621 2.39075C14.4033 2.85803 14.2861 3.39057 14.3248 3.92335C14.3635 4.45613 14.5566 4.96611 14.8803 5.39102C15.204 5.81593 15.6445 6.13739 16.1479 6.31615L14.6305 10.2143C14.3561 10.121 14.0652 10.0864 13.7766 10.1128C13.4879 10.1391 13.2081 10.2258 12.9551 10.3673C12.7022 10.5087 12.4817 10.7017 12.3081 10.9337C12.1345 11.1658 12.0115 11.4317 11.9473 11.7143L6.81 10.8031C6.88549 10.3111 6.80873 9.80777 6.59 9.36064C6.37127 8.9135 6.02104 8.54395 5.58629 8.30154C5.15154 8.05913 4.65305 7.95547 4.1577 8.00446C3.66235 8.05344 3.19383 8.25273 2.81498 8.5756C2.43612 8.89846 2.16506 9.32946 2.03814 9.81077C1.91123 10.2921 1.93454 10.8007 2.10494 11.2684C2.27534 11.7361 2.58468 12.1405 2.99147 12.4273C3.39827 12.7142 3.88305 12.8698 4.38081 12.8733L4.56714 18.7404C3.7903 18.7843 3.04822 19.0771 2.45065 19.5754C1.85309 20.0738 1.43176 20.7512 1.24898 21.5075C1.06621 22.2638 1.13169 23.0588 1.43575 23.7751C1.7398 24.4913 2.26628 25.0906 2.93733 25.4845C3.04489 25.5474 3.1556 25.6049 3.26901 25.6565L1.71622 29.3565C1.5132 29.2877 1.29485 29.2777 1.08639 29.3277C0.877929 29.3777 0.687871 29.4856 0.538177 29.6391C0.388482 29.7925 0.285261 29.9852 0.24044 30.1948C0.195619 30.4045 0.211028 30.6225 0.284887 30.8238C0.358745 31.025 0.488038 31.2013 0.657825 31.3321C0.827613 31.463 1.03097 31.5432 1.24439 31.5633C1.4578 31.5835 1.67258 31.5429 1.86389 31.4462C2.05521 31.3495 2.21525 31.2006 2.32553 31.0168L5.53857 32.5453C5.39452 33.0442 5.39799 33.5741 5.54858 34.0711C5.69917 34.568 5.99042 35.0107 6.38716 35.3457C6.7839 35.6807 7.26915 35.8937 7.7843 35.9588C8.29944 36.024 8.82244 35.9387 9.29012 35.713L12.056 39.6491C11.7758 39.8813 11.5715 40.1921 11.4694 40.5414C11.3673 40.8907 11.3721 41.2625 11.483 41.6091C11.594 41.9557 11.8061 42.2611 12.0921 42.4862C12.3781 42.7112 12.7249 42.8455 13.0879 42.8718C13.4508 42.8982 13.8134 42.8153 14.1288 42.6339C14.4443 42.4525 14.6983 42.1808 14.8581 41.8539C15.0179 41.5269 15.0763 41.1597 15.0256 40.7993C14.975 40.4389 14.8177 40.1019 14.574 39.8317L17.7715 36.664C18.4346 37.2935 19.2809 37.6956 20.1878 37.812C21.0947 37.9284 22.015 37.7529 22.8156 37.3112L24.8889 40.7273C24.5784 40.9389 24.3622 41.2626 24.2858 41.6305C24.2093 41.9983 24.2787 42.3814 24.4792 42.6991C24.6797 43.0168 24.9957 43.2442 25.3606 43.3335C25.7255 43.4228 26.1108 43.367 26.4353 43.1777C26.7599 42.9885 26.9983 42.6807 27.1003 42.3192C27.2024 41.9576 27.1601 41.5706 26.9824 41.2396C26.8047 40.9086 26.5054 40.6596 26.1477 40.5449C25.7899 40.4302 25.4017 40.4589 25.0646 40.6249L22.9914 37.2087C23.5354 36.874 23.9984 36.4226 24.3467 35.8871C24.6951 35.3516 24.9201 34.7455 25.0056 34.1124L33.9435 34.9199C33.9344 35.2605 34.0209 35.5968 34.1932 35.8908C34.3656 36.1847 34.6168 36.4245 34.9185 36.5828C35.2202 36.7412 35.5602 36.8119 35.9 36.7868C36.2398 36.7617 36.5658 36.6419 36.841 36.441C37.1161 36.24 37.3295 35.966 37.4568 35.6499C37.5841 35.3339 37.6203 34.9885 37.5612 34.6529C37.5022 34.3173 37.3503 34.005 37.1228 33.7514C36.8952 33.4978 36.6012 33.313 36.2739 33.218L37.2472 29C37.7835 29.0878 38.3328 28.9609 38.7762 28.6467C39.2196 28.3325 39.5215 27.8563 39.6164 27.3213C39.7114 26.7862 39.5918 26.2353 39.2836 25.7877C38.9754 25.3401 38.5033 25.0319 37.9696 24.9298L38.4354 21.3124C39.159 21.3836 39.8852 21.2054 40.4936 20.8074C41.1021 20.4094 41.5563 19.8154 41.7809 19.124C42.0056 18.4325 41.9873 17.685 41.7291 17.0054C41.4708 16.3257 40.9881 15.7547 40.3609 15.387L40.3597 15.3832ZM26.1274 41.1988C26.2828 41.2901 26.4047 41.4291 26.475 41.5952C26.5452 41.7613 26.5601 41.9455 26.5175 42.1207C26.4748 42.2959 26.3768 42.4527 26.2381 42.5679C26.0993 42.683 25.9272 42.7504 25.7471 42.7601C25.5671 42.7698 25.3887 42.7212 25.2384 42.6215C25.0882 42.5219 24.974 42.3765 24.9128 42.2069C24.8516 42.0373 24.8467 41.8525 24.8988 41.6798C24.9509 41.5072 25.0571 41.3559 25.2019 41.2485C25.2285 41.2289 25.2563 41.2111 25.2851 41.195L25.2938 41.1907C25.3217 41.1753 25.3503 41.1614 25.3796 41.1491C25.4995 41.0987 25.6295 41.077 25.7593 41.0856C25.8891 41.0943 26.0151 41.133 26.1274 41.1988ZM36.8336 15.5808C36.302 15.9793 35.908 16.5339 35.7067 17.1672C35.5054 17.8004 35.5068 18.4806 35.7106 19.113L32.7392 20.2298C32.615 19.8842 32.4009 19.5778 32.1191 19.3424C31.8372 19.1069 31.4977 18.9508 31.1354 18.8901L31.7479 13.0516C32.7189 13.1154 33.6832 12.8497 34.4845 12.2975L36.8336 15.5808ZM31.8311 21.5367C31.7933 21.6008 31.7496 21.6613 31.7007 21.7174C31.6795 21.7416 31.6572 21.7652 31.6342 21.7876L31.6286 21.7932C31.6046 21.8164 31.5798 21.8383 31.5541 21.859C31.3644 22.0142 31.1318 22.1075 30.8875 22.1265C30.6432 22.1455 30.399 22.0892 30.1876 21.9652C30.159 21.9485 30.1317 21.9298 30.105 21.9112C30.0783 21.8926 30.0591 21.877 30.0367 21.859C29.9124 21.7571 29.8098 21.6312 29.7351 21.4889C29.6604 21.3466 29.6151 21.1906 29.6019 21.0304C29.6019 20.9975 29.5982 20.9646 29.5982 20.9311C29.5982 20.9311 29.5982 20.9311 29.5982 20.9273C29.5982 20.8934 29.5996 20.8596 29.6025 20.8261C29.6287 20.5188 29.7725 20.2334 30.0039 20.0295C30.2354 19.8256 30.5366 19.7189 30.8448 19.7317C30.9127 19.7346 30.9802 19.7433 31.0466 19.7578C31.2481 19.8003 31.4351 19.8941 31.5896 20.0301C31.7442 20.1661 31.8609 20.3397 31.9286 20.5342C31.9862 20.6981 32.0073 20.8726 31.9904 21.0456C31.9736 21.2185 31.9192 21.3857 31.8311 21.5354V21.5367ZM23.3721 30.1342C23.2259 30.021 23.0726 29.9172 22.9131 29.8236C22.1705 29.3863 21.3133 29.1831 20.4535 29.2404L20.1081 24.8391C21.2482 24.7227 22.3168 24.2291 23.1445 23.4366C23.9723 22.644 24.5118 21.5979 24.6777 20.464L28.7286 20.9304C28.7286 21.2381 28.7973 21.5418 28.9295 21.8196C29.0618 22.0974 29.2544 22.3421 29.4932 22.536L23.3721 30.1342ZM17.0181 31.3584C16.6293 32.0195 16.4251 32.7728 16.4268 33.5398L10.8069 33.4814C10.8351 33.0812 10.7736 32.6798 10.6268 32.3065C10.48 31.9332 10.2517 31.5974 9.95845 31.3236L16.3796 23.746C16.5698 23.8976 16.7705 24.0356 16.9802 24.159C17.8634 24.6788 18.8823 24.9218 19.905 24.8565L20.2504 29.2584C19.5853 29.3329 18.9468 29.5616 18.3857 29.9263C17.8245 30.2909 17.3563 30.7815 17.0181 31.359V31.3584ZM16.6522 20.2994C16.6466 20.2702 16.641 20.241 16.6361 20.2118C16.6361 20.2044 16.6361 20.1975 16.6324 20.1901C16.5492 19.6695 16.6051 19.1361 16.7946 18.6442C16.9841 18.1522 17.3003 17.7191 17.7112 17.3888C17.7642 17.3474 17.8187 17.306 17.8746 17.2646C18.2239 17.0217 18.6209 16.8559 19.0392 16.7783C19.1056 16.7658 19.1727 16.7553 19.2404 16.7472C19.7309 16.6908 20.2277 16.7567 20.6865 16.9391C21.1453 17.1215 21.5518 17.4147 21.8696 17.7926C21.8903 17.8174 21.911 17.8424 21.9317 17.8677C22.4101 18.4757 22.6349 19.245 22.5591 20.0149C22.5524 20.082 22.5435 20.1491 22.5324 20.2162C22.4249 20.8525 22.1144 21.4369 21.6472 21.8821C21.1799 22.3272 20.5812 22.6091 19.9404 22.6857L19.8597 22.6938H19.8249L19.7379 22.7C19.1557 22.7306 18.5772 22.5894 18.0746 22.2938C17.972 22.2333 17.873 22.1667 17.7783 22.0944C17.7241 22.053 17.6715 22.0102 17.6206 21.9658C17.1467 21.5522 16.8158 20.9994 16.6752 20.3863C16.6669 20.3582 16.6593 20.3292 16.6522 20.2994ZM8.32118 21.6317C8.17269 20.904 7.80407 20.2397 7.26528 19.7286L12.6609 13.777C13.0047 14.0558 13.4288 14.217 13.8709 14.237C14.313 14.257 14.7499 14.1348 15.1174 13.8882L16.4261 15.6547C15.6936 16.2236 15.1284 16.9799 14.7905 17.8437C14.4525 18.7074 14.3543 19.6465 14.5063 20.5615L8.32118 21.6348V21.6317ZM29.8584 12.4714C30.3757 12.7754 30.9511 12.9676 31.5472 13.0354L30.9379 18.8671C30.402 18.8307 29.8729 19.0045 29.4628 19.3515C29.0528 19.6985 28.7939 20.1915 28.741 20.7261L24.7038 20.2615C24.7754 19.5801 24.7107 18.8913 24.5134 18.2351C24.3162 17.579 23.9903 16.9687 23.5547 16.4398L28.9143 11.7193C29.1922 12.0131 29.51 12.2663 29.8584 12.4714ZM33.3031 6.59876C33.6529 6.80409 33.9475 7.09139 34.1615 7.4359C34.3755 7.78041 34.5025 8.17179 34.5316 8.57632C34.5607 8.98084 34.491 9.38637 34.3285 9.75796C34.166 10.1296 33.9156 10.4561 33.5988 10.7093C33.5723 10.7304 33.5456 10.7511 33.5187 10.7714C33.0616 11.1062 32.5047 11.2765 31.9386 11.2547C31.8711 11.2522 31.8034 11.2468 31.7354 11.2385C31.1814 11.1707 30.6657 10.92 30.2702 10.5261C30.2218 10.4776 30.1764 10.4273 30.1323 10.3764C29.8633 10.0595 29.6773 9.68058 29.5912 9.27385C29.5051 8.86712 29.5216 8.44535 29.6392 8.04659C29.6582 7.98199 29.6802 7.91781 29.705 7.85404C29.8358 7.51606 30.0384 7.21054 30.2989 6.95863C30.5594 6.70672 30.8716 6.51444 31.2137 6.3951C31.5559 6.27577 31.9199 6.23223 32.2806 6.2675C32.6413 6.30277 32.99 6.41601 33.3025 6.59938L33.3031 6.59876ZM19.7038 4.51305C19.7001 4.52671 19.6951 4.53976 19.6914 4.55342L19.7038 4.51305ZM19.441 5.11615C19.5337 4.95852 19.6105 4.79207 19.6702 4.61926L27.9311 7.45963C27.7103 8.16032 27.6721 8.9058 27.8202 9.62538C27.9682 10.345 28.2976 11.0148 28.7771 11.5714L23.4224 16.2851C22.8632 15.6608 22.1601 15.1824 21.374 14.8917C20.5879 14.6009 19.7427 14.5066 18.9119 14.6168L17.6367 6.41802C18.0118 6.33915 18.3662 6.18256 18.6771 5.95833C18.988 5.73409 19.2484 5.44721 19.4417 5.11615H19.441ZM16.2609 5.10187C15.9417 4.9145 15.6975 4.62211 15.5699 4.27464C15.4424 3.92717 15.4394 3.5462 15.5616 3.19681C15.6838 2.84742 15.9235 2.55129 16.2398 2.35904C16.5561 2.16678 16.9293 2.09032 17.2957 2.14272C17.6621 2.19511 17.999 2.37312 18.2487 2.64632C18.4984 2.91952 18.6456 3.27096 18.6649 3.6406C18.6843 4.01023 18.5747 4.37511 18.3548 4.6729C18.135 4.97069 17.8186 5.18291 17.4597 5.2733C17.4286 5.28075 17.3976 5.28758 17.3665 5.29379H17.3547C17.323 5.29938 17.2926 5.30435 17.2597 5.30808C17.0958 5.32761 16.9298 5.32153 16.7678 5.29007C16.7367 5.28386 16.7056 5.27702 16.674 5.26895H16.6628C16.6317 5.26087 16.6007 5.25156 16.569 5.241C16.4617 5.20562 16.3584 5.15898 16.2609 5.10187ZM16.3417 6.37764C16.6969 6.47495 17.068 6.49967 17.433 6.45031L18.7075 14.6491C17.9444 14.7807 17.2208 15.0824 16.5901 15.5317L15.2808 13.764C15.5369 13.552 15.7381 13.2815 15.8675 12.9753C15.9968 12.6691 16.0504 12.3362 16.0238 12.0048C15.9972 11.6735 15.891 11.3535 15.7145 11.0718C15.5379 10.7902 15.296 10.5553 15.0094 10.387C14.9479 10.3508 14.8847 10.3179 14.8199 10.2882L16.3417 6.37764ZM12.9255 11.5646C13.0623 11.3318 13.2737 11.1519 13.5253 11.0541C13.777 10.9563 14.0544 10.9462 14.3125 11.0255C14.3435 11.0348 14.3746 11.046 14.4044 11.0578H14.4106C14.4413 11.0702 14.4715 11.0839 14.5013 11.0988C14.5237 11.1099 14.5466 11.1205 14.5684 11.1335C14.746 11.2379 14.8938 11.3862 14.9974 11.5643C15.1011 11.7424 15.157 11.9442 15.16 12.1502C15.1629 12.3562 15.1127 12.5595 15.0142 12.7404C14.9157 12.9214 14.7722 13.0739 14.5976 13.1832C14.4119 13.2995 14.198 13.3626 13.9791 13.3659C13.7601 13.3692 13.5444 13.3125 13.3553 13.2019C13.3169 13.1793 13.2798 13.1546 13.2442 13.128C13.0804 13.0053 12.9507 12.8428 12.8674 12.6559C12.784 12.4691 12.7497 12.2641 12.7678 12.0603C12.7707 12.0275 12.775 11.9946 12.7808 11.9615V11.9627C12.7864 11.9304 12.7938 11.9006 12.8019 11.8658C12.8292 11.7603 12.8708 11.6589 12.9255 11.5646ZM11.9094 11.9137C11.8708 12.2281 11.9048 12.5472 12.0088 12.8464C12.1128 13.1457 12.2841 13.4171 12.5094 13.6398L7.11373 19.5907C6.45899 19.0355 5.62806 18.7315 4.76963 18.7329L4.58329 12.864C5.09803 12.8246 5.58701 12.6229 5.97996 12.2881C6.37291 11.9533 6.64959 11.5026 6.77025 11.0006L11.9094 11.9137ZM3.17398 9.71553C3.3396 9.433 3.59798 9.21657 3.90518 9.10307C4.21238 8.98956 4.54941 8.98598 4.85894 9.09294C5.16848 9.1999 5.4314 9.4108 5.60298 9.68975C5.77456 9.9687 5.84421 10.2985 5.80006 10.623C5.79571 10.6534 5.79075 10.6851 5.78453 10.713L5.78081 10.7311C5.77398 10.7615 5.76714 10.7932 5.75845 10.8217C5.68061 11.0916 5.52444 11.3323 5.30971 11.5133C5.09498 11.6943 4.83136 11.8075 4.55224 11.8385C4.5218 11.8416 4.49013 11.8441 4.46093 11.8453H4.44168C4.41062 11.8453 4.37957 11.8453 4.34913 11.8453C4.10416 11.8369 3.86557 11.7651 3.65667 11.6369C3.44776 11.5087 3.27569 11.3285 3.15728 11.1139C3.03886 10.8992 2.97815 10.6576 2.98108 10.4125C2.98401 10.1674 3.05047 9.92725 3.17398 9.71553ZM2.95348 21.2932C3.12558 20.9994 3.36649 20.7518 3.65549 20.5718C3.94449 20.3917 4.27291 20.2846 4.61249 20.2596C4.67998 20.2547 4.74789 20.2528 4.81621 20.254C5.17447 20.2617 5.52476 20.3611 5.8336 20.5429C5.92442 20.5956 6.01121 20.6549 6.09323 20.7205C6.14665 20.7619 6.19737 20.807 6.2454 20.8559C6.53375 21.1387 6.73451 21.4986 6.82366 21.8926C6.83112 21.9257 6.83774 21.9588 6.84354 21.9919C6.84934 22.0255 6.85451 22.059 6.85907 22.0926C6.90484 22.4513 6.85737 22.8157 6.72124 23.1507C6.58511 23.4858 6.36492 23.78 6.08193 24.0052C5.79893 24.2303 5.46267 24.3787 5.10562 24.436C4.74857 24.4933 4.38278 24.4576 4.04354 24.3323C3.98019 24.3091 3.91808 24.2826 3.85721 24.2528C3.80628 24.228 3.75597 24.2025 3.7069 24.1733C3.46845 24.0335 3.25987 23.8481 3.09308 23.6277C2.92629 23.4073 2.80455 23.1562 2.73482 22.8888C2.66509 22.6213 2.64873 22.3428 2.68667 22.069C2.72462 21.7952 2.81612 21.5316 2.95597 21.2932H2.95348ZM1.92367 30.7658C1.8577 30.8784 1.75984 30.9689 1.64245 31.0258C1.52506 31.0828 1.39342 31.1036 1.26418 31.0858C1.13493 31.0679 1.0139 31.0121 0.916372 30.9254C0.818847 30.8387 0.749217 30.7251 0.716286 30.5988C0.683356 30.4726 0.688604 30.3394 0.731369 30.2161C0.774134 30.0929 0.852493 29.9851 0.956536 29.9063C1.06058 29.8276 1.18563 29.7815 1.31588 29.7739C1.44613 29.7662 1.57572 29.7974 1.68826 29.8634C1.83913 29.9518 1.94868 30.0966 1.99283 30.2659C2.03697 30.4351 2.0121 30.6149 1.92367 30.7658ZM1.79013 29.3845L1.81311 29.3938L1.79013 29.3845ZM2.41684 30.8329C2.51163 30.5826 2.51494 30.3068 2.42618 30.0543C2.33742 29.8018 2.16231 29.5888 1.93174 29.4528L1.9069 29.4398L3.45969 25.7354C4.05057 25.9655 4.69147 26.0365 5.31838 25.9413C5.94528 25.8462 6.53625 25.5882 7.03222 25.1931C7.52819 24.798 7.91181 24.2797 8.14476 23.69C8.3777 23.1002 8.45181 22.4597 8.35969 21.8323L14.5473 20.7584C14.7755 21.8698 15.3652 22.8744 16.2243 23.6155L9.80565 31.1932C9.4739 30.9272 9.08376 30.7438 8.6673 30.658C8.25085 30.5723 7.81998 30.5866 7.41014 30.6998C7.00029 30.813 6.62317 31.0219 6.30979 31.3092C5.99641 31.5966 5.75572 31.9543 5.60752 32.3528L2.41684 30.8329ZM2.33609 31.0044C2.35224 30.9764 2.36715 30.9478 2.38081 30.9193C2.36652 30.9478 2.35224 30.9764 2.33609 31.0044ZM7.33547 34.6335C7.06402 34.4744 6.84701 34.237 6.71289 33.9523C6.57878 33.6677 6.53382 33.3492 6.58391 33.0385C6.59506 32.9698 6.61083 32.902 6.63112 32.8354C6.70781 32.5788 6.84922 32.3462 7.04177 32.16C7.23431 31.9738 7.47151 31.8403 7.73057 31.7722C7.98963 31.7042 8.26183 31.7039 8.52102 31.7715C8.78021 31.839 9.01766 31.9721 9.21056 32.1579C9.40346 32.3438 9.54532 32.5761 9.6225 32.8326C9.69967 33.089 9.70958 33.3611 9.65126 33.6225C9.59294 33.8839 9.46836 34.1259 9.28948 34.3253C9.11061 34.5247 8.88346 34.6747 8.62987 34.7609C8.4177 34.8343 8.19216 34.8609 7.96873 34.8389C7.7453 34.8169 7.52927 34.7469 7.33547 34.6335ZM14.1311 41.5901C14.0251 41.7697 13.8682 41.9139 13.6803 42.0045C13.4924 42.095 13.2819 42.1279 13.0754 42.099C12.8688 42.07 12.6754 41.9806 12.5196 41.8419C12.3639 41.7032 12.2527 41.5214 12.2001 41.3196C12.1475 41.1177 12.1558 40.9048 12.2241 40.7077C12.2923 40.5106 12.4174 40.3382 12.5836 40.2121C12.7498 40.086 12.9496 40.012 13.1578 39.9993C13.366 39.9867 13.5733 40.036 13.7535 40.141C13.8737 40.2111 13.9789 40.3042 14.063 40.4151C14.1471 40.5259 14.2085 40.6523 14.2436 40.787C14.2787 40.9217 14.2868 41.062 14.2675 41.1998C14.2482 41.3376 14.2019 41.4702 14.1311 41.5901ZM14.4274 39.6894C14.1278 39.4239 13.7491 39.2644 13.3498 39.2354C12.9506 39.2065 12.5529 39.3097 12.2181 39.5292L9.47335 35.6162C9.82286 35.4136 10.1222 35.1348 10.3491 34.8006C10.576 34.4664 10.7246 34.0853 10.7839 33.6857L16.4311 33.7447C16.4813 34.7839 16.9052 35.7699 17.6249 36.5211L14.4274 39.6894ZM10.7982 33.5745V33.5907V33.5745ZM19.4684 35.6963C19.3188 35.6087 19.1787 35.5059 19.0504 35.3894C19.0007 35.3441 18.9535 35.2975 18.9081 35.2491C18.5275 34.8418 18.2936 34.3192 18.2435 33.764C18.2406 33.7309 18.2381 33.6977 18.2361 33.6646C18.2361 33.6609 18.2361 33.6578 18.2361 33.654C18.2361 33.623 18.2361 33.5919 18.2361 33.5603C18.231 32.9527 18.4474 32.3641 18.8447 31.9044C19.2421 31.4448 19.7932 31.1456 20.3951 31.0627L20.4938 31.0509H20.5032C20.5342 31.0509 20.5653 31.0453 20.5963 31.0435C21.0879 31.0153 21.5769 31.1335 22.0013 31.3832C22.0842 31.432 22.1643 31.4855 22.241 31.5435C22.2957 31.5849 22.3483 31.6278 22.3988 31.6721C22.6914 31.933 22.9187 32.2591 23.0623 32.6239C23.2059 32.9888 23.2618 33.3823 23.2255 33.7727C23.2197 33.8319 23.2121 33.8911 23.2025 33.9503C23.1441 34.3014 23.0115 34.636 22.8134 34.9318C22.6154 35.2275 22.3565 35.4775 22.0541 35.6652C22.0268 35.6822 21.999 35.6986 21.9709 35.7143L21.964 35.718C21.9355 35.7342 21.9065 35.7497 21.8771 35.7646C21.5023 35.9571 21.0849 36.0516 20.6638 36.0394C20.2426 36.0273 19.8314 35.9088 19.4684 35.695V35.6963ZM36.6777 35.5031C36.562 35.7038 36.3836 35.861 36.1699 35.9503C35.9562 36.0396 35.719 36.0562 35.4949 35.9974C35.2708 35.9387 35.0723 35.8079 34.9299 35.6252C34.7875 35.4424 34.7091 35.218 34.7069 34.9863C34.7037 34.8342 34.7334 34.6831 34.7941 34.5435C34.8547 34.4039 34.9448 34.2791 35.0582 34.1776C35.1716 34.0761 35.3055 34.0003 35.451 33.9553C35.5964 33.9104 35.7498 33.8975 35.9007 33.9174C35.968 33.9263 36.0344 33.9417 36.0988 33.9634C36.2487 34.0127 36.3856 34.0951 36.4995 34.2043C36.6133 34.3136 36.7013 34.447 36.7568 34.5947C36.8123 34.7424 36.8341 34.9007 36.8204 35.0579C36.8067 35.2151 36.7579 35.3672 36.6777 35.5031ZM37.046 28.9559L36.0733 33.1702C35.8326 33.1289 35.586 33.1364 35.3482 33.1922C35.1104 33.248 34.8863 33.351 34.689 33.495C34.4918 33.6391 34.3255 33.8213 34.2 34.0309C34.0745 34.2404 33.9923 34.473 33.9584 34.7149L25.0255 33.9075C25.084 33.2245 24.9788 32.5375 24.7187 31.9033C24.4586 31.2691 24.051 30.7061 23.5299 30.2609L29.6572 22.6534C29.6874 22.6733 29.7183 22.6926 29.7497 22.7112C30.1347 22.9368 30.5823 23.0319 31.0257 22.9822C31.4691 22.9325 31.8846 22.7407 32.21 22.4354L35.9205 25.7006C35.7142 25.9716 35.5781 26.2894 35.5242 26.6257C35.4703 26.962 35.5003 27.3064 35.6116 27.6283C35.723 27.9502 35.9121 28.2396 36.1622 28.4708C36.4123 28.702 36.7157 28.8678 37.0454 28.9534L37.046 28.9559ZM38.5988 27.5621C38.4822 27.7608 38.3108 27.9217 38.1052 28.0256C37.8995 28.1294 37.6683 28.1719 37.4392 28.1478C37.4069 28.1447 37.3771 28.1398 37.3417 28.1335H37.3367C37.304 28.1273 37.2713 28.1197 37.2385 28.1106C37.0613 28.0616 36.8977 27.9725 36.7604 27.85C36.6232 27.7276 36.5161 27.5751 36.4473 27.4045C36.3786 27.234 36.3501 27.0498 36.3641 26.8665C36.3781 26.6831 36.4342 26.5054 36.528 26.3472C36.5423 26.3236 36.5578 26.3012 36.5733 26.2789C36.5889 26.2565 36.6118 26.2248 36.6354 26.1994L36.6398 26.1938C36.6603 26.1683 36.682 26.1441 36.7019 26.1205C36.8242 25.9942 36.9728 25.8963 37.1371 25.8337C37.3014 25.7712 37.4775 25.7454 37.6528 25.7584C37.686 25.7609 37.7191 25.7646 37.7522 25.7696H37.759C37.7907 25.7745 37.8212 25.7808 37.8535 25.7888C38.0346 25.8337 38.2028 25.9202 38.3447 26.0415C38.4865 26.1628 38.5981 26.3155 38.6705 26.4876C38.7428 26.6596 38.7741 26.8462 38.7616 27.0324C38.7492 27.2186 38.6934 27.3994 38.5988 27.5603V27.5621ZM38.2317 21.2795L37.7665 24.8938C37.4501 24.8632 37.1308 24.9059 36.8335 25.0186C36.5363 25.1313 36.2689 25.3109 36.0522 25.5435L32.3522 22.2876C32.572 22.0364 32.7277 21.7356 32.8058 21.4111C32.8839 21.0866 32.8821 20.7479 32.8007 20.4242L35.782 19.3062C35.9848 19.8189 36.3171 20.2702 36.7465 20.6161C37.1759 20.962 37.6876 21.1905 38.2317 21.2795ZM40.3435 19.0683C40.1504 19.3976 39.8603 19.6592 39.5129 19.8173C39.1654 19.9754 38.7776 20.0223 38.4025 19.9516C38.0989 19.8943 37.8144 19.762 37.575 19.5668C37.3356 19.3715 37.1488 19.1194 37.0317 18.8335C37.0189 18.8025 37.0071 18.771 36.9963 18.7391C36.9855 18.7077 36.9756 18.6758 36.9665 18.6435C36.865 18.2878 36.8724 17.9099 36.9878 17.5585C37.1031 17.2071 37.3211 16.8983 37.6137 16.6721C37.6402 16.6514 37.6671 16.6306 37.6945 16.6099C37.7222 16.5909 37.7503 16.5725 37.7789 16.5547C38.1311 16.3395 38.5451 16.2481 38.9551 16.2951C39.3652 16.342 39.7478 16.5246 40.0423 16.8138C40.3367 17.103 40.5262 17.4822 40.5805 17.8913C40.6349 18.3005 40.551 18.716 40.3423 19.0721L40.3435 19.0683Z" fill="#505864"/>
</svg>
