<svg width="182" height="23" viewBox="0 0 182 23" fill="none" xmlns="http://www.w3.org/2000/svg">
<path d="M15.4 0.610802L0.00267015 0.605469L0 5.71265L4.6188 5.71531L4.61213 22.1469L10.7719 22.1482L10.7785 5.71798L15.3987 5.71932L15.4 0.610802Z" fill="white"/>
<path d="M26.2252 0C23.0321 0 20.3085 1.09624 18.0545 3.28872C15.8006 5.48119 14.6727 8.12684 14.6709 11.2257C14.6709 14.3236 15.7966 16.9701 18.0479 19.1653C20.2992 21.3604 23.0219 22.4598 26.2159 22.4633C29.4082 22.4633 32.1317 21.3671 34.3866 19.1746C36.6415 16.9821 37.7694 14.3365 37.7702 11.2377C37.7702 8.14063 36.6446 5.49409 34.3933 3.29806C32.142 1.10202 29.4193 0.00266833 26.2252 0ZM31.6719 11.2644C31.6597 11.867 31.5768 12.4661 31.4249 13.0495C30.3869 15.5897 28.7436 16.8598 26.495 16.8598H26.0023C25.0612 16.8515 24.1422 16.5737 23.3544 16.0593C21.63 14.8141 20.7683 13.1931 20.7692 11.1963V11.1349C20.7692 10.0987 20.9544 9.21686 21.3247 8.48929C22.3929 6.39732 23.9953 5.35178 26.1318 5.35267C26.965 5.35076 27.7874 5.54068 28.5353 5.90768C30.6291 7.10843 31.6755 8.79081 31.6746 10.9548L31.6719 11.2644Z" fill="white"/>
<path d="M49.5061 0.687012H39.5274L39.5181 22.1671H49.6196C51.334 22.1862 53.0338 21.851 54.6123 21.1824C58.2675 19.553 60.0959 16.3127 60.0977 11.4617C60.0977 7.79989 59.074 4.98925 57.0265 3.0298C55.5443 1.46972 53.0375 0.688791 49.5061 0.687012ZM53.6135 11.3963C53.6279 12.4015 53.3949 13.3947 52.9352 14.2888C52.1642 15.9503 50.614 16.7806 48.2843 16.7797H45.6658V5.33257H48.1601C48.9619 5.33641 49.7576 5.47162 50.5156 5.73282C52.5782 6.67741 53.609 8.31888 53.6081 10.6572L53.6135 11.3963Z" fill="white"/>
<path d="M73.2665 0.0200195C70.0734 0.0200195 67.3498 1.11626 65.0958 3.30873C62.8418 5.50121 61.7139 8.14686 61.7122 11.2457C61.7122 14.3436 62.8378 16.9901 65.0891 19.1853C67.3405 21.3804 70.0631 22.4789 73.2572 22.4807C76.4494 22.4807 79.173 21.3844 81.4279 19.192C83.6827 16.9995 84.8102 14.3543 84.8102 11.2564C84.8102 8.15931 83.6845 5.51277 81.4332 3.31674C79.1819 1.1207 76.4597 0.0217984 73.2665 0.0200195ZM78.7132 11.2844C78.7009 11.887 78.618 12.4861 78.4662 13.0695C77.4282 15.6133 75.7853 16.8843 73.5376 16.8825H73.0395C72.0984 16.8742 71.1795 16.5964 70.3916 16.082C68.6673 14.8368 67.8056 13.2158 67.8065 11.219V11.1576C67.8065 10.1214 67.9916 9.23954 68.3619 8.51197C69.4302 6.42 71.0325 5.37447 73.169 5.37536C74.0022 5.37345 74.8247 5.56336 75.5726 5.93037C77.6663 7.13111 78.7127 8.8135 78.7119 10.9775L78.7132 11.2844Z" fill="white"/>
<path d="M92.5443 0.642808L86.5701 0.640137L86.5608 22.1802L101.959 22.1856L101.961 16.8929L92.5376 16.8903L92.5443 0.642808Z" fill="white"/>
<path d="M104.129 22.1872L119.528 22.1939L119.531 17.024L110.045 17.02L110.046 13.6352L118.731 13.6392L118.733 9.02299L110.047 9.02032L110.049 5.75829L119.535 5.76229L119.537 0.653775L104.138 0.648438L104.129 22.1872Z" fill="white"/>
<path d="M131.588 14.1984H135.839V16.2904C135.839 16.8748 134.812 17.2643 132.758 17.4591H132.081C131.428 17.4482 130.782 17.3231 130.172 17.0896C127.79 15.9911 126.6 14.1033 126.601 11.426C126.606 10.6009 126.774 9.78482 127.095 9.02455C128.267 6.76892 129.889 5.64111 131.962 5.64111C133.061 5.64111 133.964 5.80566 134.672 6.13475C135.289 6.47955 135.816 6.96444 136.211 7.5503L140.371 3.86C138.329 1.47985 135.302 0.288888 131.291 0.287109C128.559 0.287109 126.219 1.14765 124.268 2.86872C121.762 5.46322 120.509 8.31433 120.508 11.422C120.496 13.2584 120.917 15.0717 121.738 16.7147C122.261 17.9145 123.123 19.1046 124.323 20.2849C126.293 21.9677 128.633 22.8096 131.344 22.8105C131.929 22.7696 132.483 22.7082 133.008 22.6264C135.01 22.3809 136.488 22.0327 137.444 21.5817C137.444 21.6849 137.444 21.9104 137.444 22.2581H142.064V9.70364H131.592L131.588 14.1984Z" fill="white"/>
<path d="M151.581 0.666992L142.949 22.2031H149.477L150.621 19.1278H158.12L159.212 22.2057H165.741L157.123 0.669659L151.581 0.666992ZM152.33 14.5143L154.457 8.79205L156.486 14.5156L152.33 14.5143Z" fill="white"/>
<path d="M172.575 16.9226L172.582 0.676499L166.608 0.673828L166.599 22.2126L181.997 22.2193L182 16.9266L172.575 16.9226Z" fill="white"/>
</svg>
