<svg width="42" height="44" viewBox="0 0 42 44" fill="none" xmlns="http://www.w3.org/2000/svg">
<path d="M40.3596 15.3835C39.8476 15.0831 39.2619 14.9316 38.6685 14.946C38.0751 14.9604 37.4975 15.14 37.0006 15.4648L34.6515 12.1804C35.1836 11.7751 35.6141 11.2515 35.9087 10.651C36.2034 10.0505 36.3543 9.38972 36.3493 8.72087C36.3444 8.05201 36.1838 7.39349 35.8802 6.79746C35.5767 6.20142 35.1386 5.68424 34.6005 5.28686C34.0625 4.88949 33.4393 4.62283 32.7804 4.50801C32.1214 4.39319 31.4448 4.43336 30.8041 4.62534C30.1633 4.81731 29.5761 5.15583 29.0889 5.61407C28.6016 6.07232 28.2278 6.6377 27.9969 7.26547L19.7292 4.42261C19.8648 3.90593 19.8471 3.36093 19.6782 2.85416C19.5093 2.34738 19.1964 1.90075 18.7779 1.56879C18.3594 1.23684 17.8533 1.03391 17.3214 0.984799C16.7894 0.935683 16.2547 1.0425 15.7825 1.29221C15.3102 1.54192 14.9209 1.92372 14.6621 2.391C14.4032 2.85827 14.286 3.39081 14.3247 3.92359C14.3635 4.45637 14.5565 4.96635 14.8802 5.39126C15.204 5.81617 15.6444 6.13763 16.1478 6.3164L14.6304 10.2145C14.356 10.1213 14.0651 10.0867 13.7765 10.113C13.4879 10.1394 13.208 10.2261 12.9551 10.3675C12.7021 10.5089 12.4817 10.7019 12.308 10.934C12.1344 11.166 12.0115 11.4319 11.9472 11.7145L6.80994 10.8034C6.88543 10.3113 6.80867 9.80802 6.58994 9.36088C6.37121 8.91375 6.02098 8.54419 5.58623 8.30178C5.15148 8.05938 4.65299 7.95572 4.15764 8.0047C3.66229 8.05369 3.19377 8.25298 2.81491 8.57584C2.43606 8.8987 2.165 9.3297 2.03808 9.81102C1.91117 10.2923 1.93448 10.8009 2.10488 11.2686C2.27528 11.7363 2.58462 12.1407 2.99141 12.4276C3.39821 12.7145 3.88299 12.8701 4.38075 12.8735L4.56708 18.7406C3.79024 18.7846 3.04816 19.0773 2.45059 19.5757C1.85302 20.074 1.4317 20.7514 1.24892 21.5077C1.06615 22.264 1.13163 23.0591 1.43569 23.7753C1.73974 24.4915 2.26622 25.0909 2.93727 25.4847C3.04483 25.5477 3.15554 25.6051 3.26895 25.6568L1.71615 29.3568C1.51314 29.2879 1.29479 29.2779 1.08633 29.3279C0.877868 29.3779 0.68781 29.4859 0.538116 29.6393C0.388421 29.7928 0.2852 29.9855 0.240379 30.1951C0.195558 30.4047 0.210967 30.6228 0.284826 30.824C0.358684 31.0253 0.487977 31.2015 0.657764 31.3324C0.827552 31.4632 1.0309 31.5434 1.24432 31.5636C1.45774 31.5838 1.67252 31.5432 1.86383 31.4464C2.05515 31.3497 2.21519 31.2009 2.32547 31.017L5.53851 32.5456C5.39446 33.0445 5.39793 33.5744 5.54852 34.0713C5.6991 34.5683 5.99036 35.011 6.3871 35.346C6.78384 35.681 7.26909 35.8939 7.78424 35.9591C8.29938 36.0243 8.82238 35.9389 9.29006 35.7133L12.0559 39.6493C11.7757 39.8816 11.5715 40.1923 11.4694 40.5416C11.3673 40.8909 11.372 41.2628 11.483 41.6094C11.5939 41.9559 11.8061 42.2614 12.0921 42.4864C12.3781 42.7115 12.7248 42.8458 13.0878 42.8721C13.4508 42.8984 13.8133 42.8155 14.1288 42.6341C14.4442 42.4527 14.6982 42.1811 14.858 41.8541C15.0179 41.5272 15.0762 41.1599 15.0256 40.7995C14.9749 40.4391 14.8176 40.1022 14.5739 39.8319L17.7714 36.6642C18.4345 37.2938 19.2808 37.6959 20.1877 37.8122C21.0946 37.9286 22.015 37.7532 22.8155 37.3114L24.8888 40.7276C24.5784 40.9391 24.3621 41.2629 24.2857 41.6307C24.2093 41.9985 24.2786 42.3816 24.4791 42.6993C24.6796 43.017 24.9956 43.2445 25.3605 43.3338C25.7254 43.4231 26.1107 43.3672 26.4353 43.178C26.7598 42.9888 26.9982 42.681 27.1003 42.3194C27.2023 41.9579 27.16 41.5708 26.9823 41.2399C26.8046 40.9089 26.5054 40.6598 26.1476 40.5451C25.7899 40.4305 25.4016 40.4591 25.0646 40.6251L22.9913 37.2089C23.5354 36.8742 23.9983 36.4228 24.3467 35.8874C24.695 35.3519 24.9201 34.7457 25.0056 34.1127L33.9435 34.9201C33.9343 35.2607 34.0208 35.5971 34.1932 35.891C34.3655 36.185 34.6167 36.4247 34.9184 36.5831C35.2201 36.7415 35.5601 36.8121 35.9 36.787C36.2398 36.762 36.5657 36.6422 36.8409 36.4412C37.1161 36.2403 37.3294 35.9662 37.4567 35.6502C37.584 35.3341 37.6202 34.9887 37.5612 34.6531C37.5022 34.3176 37.3503 34.0052 37.1227 33.7516C36.8952 33.498 36.6011 33.3132 36.2739 33.2183L37.2472 29.0002C37.7835 29.088 38.3328 28.9611 38.7762 28.6469C39.2196 28.3327 39.5214 27.8566 39.6164 27.3215C39.7113 26.7865 39.5918 26.2355 39.2836 25.788C38.9753 25.3404 38.5033 25.0322 37.9695 24.9301L38.4354 21.3127C39.1589 21.3838 39.8851 21.2057 40.4936 20.8076C41.102 20.4096 41.5562 19.8157 41.7809 19.1242C42.0056 18.4327 41.9873 17.6853 41.729 17.0056C41.4707 16.326 40.988 15.755 40.3608 15.3872L40.3596 15.3835ZM26.1273 41.199C26.2828 41.2904 26.4046 41.4294 26.4749 41.5954C26.5452 41.7615 26.5601 41.9458 26.5174 42.121C26.4747 42.2962 26.3768 42.4529 26.238 42.5681C26.0993 42.6833 25.9271 42.7507 25.7471 42.7603C25.567 42.77 25.3887 42.7214 25.2384 42.6218C25.0881 42.5221 24.9739 42.3767 24.9127 42.2071C24.8516 42.0375 24.8466 41.8527 24.8987 41.6801C24.9508 41.5074 25.0571 41.3562 25.2019 41.2487C25.2285 41.2292 25.2562 41.2113 25.2851 41.1953L25.2938 41.1909C25.3216 41.1756 25.3502 41.1617 25.3795 41.1493C25.4994 41.099 25.6295 41.0773 25.7593 41.0859C25.8891 41.0945 26.0151 41.1332 26.1273 41.199ZM36.8335 15.581C36.3019 15.9796 35.908 16.5342 35.7067 17.1674C35.5053 17.8006 35.5067 18.4809 35.7105 19.1133L32.7391 20.2301C32.6149 19.8844 32.4009 19.5781 32.119 19.3426C31.8371 19.1071 31.4976 18.951 31.1354 18.8903L31.7478 13.0518C32.7189 13.1156 33.6831 12.8499 34.4844 12.2978L36.8335 15.581ZM31.831 21.5369C31.7932 21.6011 31.7496 21.6616 31.7006 21.7176C31.6795 21.7419 31.6571 21.7655 31.6341 21.7878L31.6286 21.7934C31.6045 21.8166 31.5797 21.8386 31.554 21.8593C31.3644 22.0144 31.1318 22.1078 30.8875 22.1268C30.6432 22.1458 30.3989 22.0895 30.1876 21.9655C30.159 21.9487 30.1317 21.9301 30.105 21.9114C30.0782 21.8928 30.059 21.8773 30.0366 21.8593C29.9123 21.7574 29.8097 21.6315 29.7351 21.4891C29.6604 21.3468 29.6151 21.1909 29.6018 21.0307C29.6018 20.9978 29.5981 20.9648 29.5981 20.9313C29.5981 20.9313 29.5981 20.9313 29.5981 20.9276C29.5981 20.8936 29.5996 20.8599 29.6025 20.8263C29.6286 20.519 29.7724 20.2336 30.0038 20.0297C30.2353 19.8258 30.5365 19.7191 30.8447 19.7319C30.9126 19.7349 30.9801 19.7436 31.0466 19.758C31.248 19.8005 31.435 19.8943 31.5896 20.0303C31.7441 20.1663 31.8609 20.34 31.9286 20.5344C31.9861 20.6984 32.0072 20.8729 31.9903 21.0458C31.9735 21.2187 31.9191 21.3859 31.831 21.5357V21.5369ZM23.372 30.1344C23.2258 30.0212 23.0725 29.9175 22.913 29.8239C22.1704 29.3866 21.3133 29.1833 20.4534 29.2406L20.1081 24.8394C21.2481 24.723 22.3167 24.2294 23.1445 23.4368C23.9722 22.6443 24.5118 21.5982 24.6776 20.4642L28.7286 20.9307C28.7286 21.2383 28.7972 21.5421 28.9295 21.8198C29.0618 22.0976 29.2543 22.3424 29.4932 22.5363L23.372 30.1344ZM17.018 31.3586C16.6293 32.0198 16.4251 32.7731 16.4267 33.54L10.8068 33.4816C10.8351 33.0815 10.7736 32.6801 10.6268 32.3067C10.48 31.9334 10.2516 31.5976 9.95838 31.3239L16.3795 23.7462C16.5698 23.8978 16.7705 24.0358 16.9801 24.1593C17.8634 24.679 18.8822 24.922 19.905 24.8568L20.2503 29.2586C19.5852 29.3331 18.9467 29.5618 18.3856 29.9265C17.8245 30.2912 17.3562 30.7818 17.018 31.3593V31.3586ZM16.6522 20.2996C16.6466 20.2704 16.641 20.2412 16.636 20.2121C16.636 20.2046 16.636 20.1978 16.6323 20.1903C16.5491 19.6697 16.6051 19.1364 16.7945 18.6444C16.984 18.1525 17.3003 17.7194 17.7112 17.3891C17.7642 17.3477 17.8186 17.3063 17.8745 17.2648C18.2238 17.0219 18.6208 16.8561 19.0391 16.7785C19.1056 16.7661 19.1727 16.7555 19.2404 16.7475C19.7309 16.691 20.2277 16.757 20.6865 16.9394C21.1452 17.1218 21.5517 17.415 21.8696 17.7928C21.8903 17.8176 21.911 17.8427 21.9317 17.868C22.41 18.4759 22.6348 19.2453 22.559 20.0152C22.5524 20.0822 22.5435 20.1493 22.5323 20.2164C22.4248 20.8527 22.1143 21.4371 21.6471 21.8823C21.1799 22.3274 20.5811 22.6094 19.9404 22.686L19.8596 22.694H19.8248L19.7379 22.7003C19.1556 22.7309 18.5772 22.5896 18.0745 22.294C17.9719 22.2335 17.873 22.1669 17.7783 22.0947C17.724 22.0533 17.6714 22.0104 17.6205 21.9661C17.1467 21.5525 16.8158 20.9996 16.6751 20.3866C16.6669 20.3584 16.6592 20.3294 16.6522 20.2996ZM8.32112 21.6319C8.17263 20.9043 7.80401 20.2399 7.26522 19.7288L12.6609 13.7773C13.0046 14.056 13.4287 14.2173 13.8708 14.2373C14.313 14.2573 14.7499 14.135 15.1174 13.8884L16.4261 15.6549C15.6935 16.2238 15.1284 16.9802 14.7904 17.8439C14.4524 18.7077 14.3542 19.6467 14.5062 20.5617L8.32112 21.635V21.6319ZM29.8584 12.4717C30.3757 12.7757 30.951 12.9678 31.5472 13.0357L30.9379 18.8673C30.4019 18.831 29.8729 19.0047 29.4628 19.3517C29.0527 19.6987 28.7938 20.1917 28.741 20.7263L24.7037 20.2617C24.7754 19.5803 24.7107 18.8915 24.5134 18.2354C24.3161 17.5792 23.9902 16.9689 23.5546 16.44L28.9143 11.7195C29.1921 12.0133 29.5099 12.2665 29.8584 12.4717ZM33.3031 6.59901C33.6528 6.80434 33.9474 7.09164 34.1614 7.43615C34.3754 7.78066 34.5025 8.17204 34.5316 8.57656C34.5606 8.98108 34.4909 9.38662 34.3284 9.75821C34.1659 10.1298 33.9155 10.4563 33.5987 10.7096C33.5722 10.7307 33.5455 10.7514 33.5186 10.7717C33.0615 11.1065 32.5046 11.2768 31.9385 11.2549C31.871 11.2524 31.8033 11.247 31.7354 11.2388C31.1813 11.171 30.6657 10.9202 30.2702 10.5263C30.2217 10.4779 30.1764 10.4276 30.1323 10.3766C29.8632 10.0597 29.6772 9.68082 29.5911 9.27409C29.505 8.86736 29.5215 8.4456 29.6391 8.04683C29.6582 7.98224 29.6801 7.91805 29.705 7.85429C29.8357 7.51631 30.0383 7.21079 30.2988 6.95887C30.5594 6.70696 30.8715 6.51468 31.2137 6.39535C31.5559 6.27601 31.9199 6.23247 32.2805 6.26775C32.6412 6.30302 32.9899 6.41626 33.3025 6.59963L33.3031 6.59901ZM19.7037 4.51329C19.7 4.52696 19.695 4.54 19.6913 4.55367L19.7037 4.51329ZM19.441 5.1164C19.5336 4.95876 19.6104 4.79231 19.6702 4.6195L27.931 7.45988C27.7102 8.16057 27.6721 8.90604 27.8201 9.62563C27.9682 10.3452 28.2975 11.0151 28.777 11.5717L23.4223 16.2853C22.8632 15.661 22.16 15.1827 21.3739 14.8919C20.5878 14.6012 19.7426 14.5068 18.9118 14.617L17.6366 6.41826C18.0118 6.3394 18.3662 6.1828 18.6771 5.95857C18.9879 5.73434 19.2484 5.44745 19.4416 5.1164H19.441ZM16.2609 5.10211C15.9417 4.91475 15.6974 4.62235 15.5699 4.27489C15.4423 3.92742 15.4394 3.54644 15.5616 3.19705C15.6837 2.84766 15.9234 2.55154 16.2397 2.35928C16.556 2.16702 16.9293 2.09056 17.2957 2.14296C17.6621 2.19536 17.9989 2.37337 18.2487 2.64657C18.4984 2.91977 18.6455 3.27121 18.6649 3.64084C18.6842 4.01047 18.5746 4.37536 18.3548 4.67315C18.135 4.97094 17.8186 5.18316 17.4596 5.27354C17.4286 5.28099 17.3975 5.28783 17.3665 5.29404H17.3547C17.323 5.29963 17.2925 5.3046 17.2596 5.30832C17.0957 5.32785 16.9297 5.32177 16.7677 5.29031C16.7366 5.2841 16.7056 5.27727 16.6739 5.26919H16.6627C16.6317 5.26112 16.6006 5.2518 16.5689 5.24124C16.4616 5.20586 16.3584 5.15922 16.2609 5.10211ZM16.3416 6.37789C16.6968 6.4752 17.068 6.49991 17.4329 6.45056L18.7074 14.6493C17.9444 14.781 17.2207 15.0826 16.5901 15.5319L15.2807 13.7642C15.5368 13.5523 15.7381 13.2818 15.8674 12.9755C15.9967 12.6693 16.0504 12.3364 16.0237 12.0051C15.9971 11.6737 15.891 11.3537 15.7144 11.0721C15.5378 10.7904 15.296 10.5555 15.0093 10.3872C14.9479 10.3511 14.8847 10.3181 14.8199 10.2884L16.3416 6.37789ZM12.9255 11.5648C13.0623 11.332 13.2736 11.1522 13.5253 11.0543C13.777 10.9565 14.0543 10.9464 14.3124 11.0257C14.3435 11.035 14.3745 11.0462 14.4043 11.058H14.4106C14.4412 11.0704 14.4714 11.0841 14.5012 11.099C14.5236 11.1102 14.5466 11.1207 14.5683 11.1338C14.746 11.2381 14.8938 11.3865 14.9974 11.5646C15.101 11.7426 15.157 11.9444 15.1599 12.1504C15.1629 12.3564 15.1126 12.5597 15.0141 12.7407C14.9156 12.9216 14.7721 13.0741 14.5975 13.1835C14.4119 13.2997 14.198 13.3629 13.979 13.3662C13.76 13.3695 13.5443 13.3127 13.3553 13.2021C13.3169 13.1795 13.2798 13.1549 13.2441 13.1282C13.0804 13.0055 12.9507 12.843 12.8673 12.6562C12.7839 12.4693 12.7497 12.2643 12.7677 12.0605C12.7706 12.0278 12.7749 11.9949 12.7807 11.9617V11.963C12.7863 11.9307 12.7938 11.9009 12.8019 11.8661C12.8292 11.7605 12.8707 11.6592 12.9255 11.5648ZM11.9093 11.9139C11.8707 12.2283 11.9047 12.5474 12.0088 12.8467C12.1128 13.1459 12.284 13.4173 12.5093 13.64L7.11366 19.5909C6.45893 19.0358 5.62799 18.7317 4.76957 18.7332L4.58323 12.8642C5.09797 12.8248 5.58695 12.6232 5.9799 12.2884C6.37285 11.9536 6.64953 11.5028 6.77019 11.0009L11.9093 11.9139ZM3.17392 9.71578C3.33954 9.43325 3.59792 9.21682 3.90512 9.10331C4.21231 8.9898 4.54935 8.98623 4.85888 9.09319C5.16842 9.20015 5.43134 9.41104 5.60292 9.68999C5.7745 9.96894 5.84414 10.2987 5.8 10.6232C5.79565 10.6537 5.79068 10.6853 5.78447 10.7133L5.78075 10.7313C5.77391 10.7617 5.76708 10.7934 5.75839 10.822C5.68055 11.0918 5.52438 11.3325 5.30965 11.5135C5.09492 11.6945 4.8313 11.8077 4.55218 11.8388C4.52174 11.8419 4.49006 11.8443 4.46087 11.8456H4.44162C4.41056 11.8456 4.37951 11.8456 4.34907 11.8456C4.1041 11.8372 3.86551 11.7654 3.6566 11.6371C3.4477 11.5089 3.27563 11.3287 3.15722 11.1141C3.0388 10.8995 2.97809 10.6578 2.98102 10.4127C2.98395 10.1676 3.05041 9.9275 3.17392 9.71578ZM2.95342 21.2934C3.12552 20.9996 3.36643 20.752 3.65543 20.572C3.94443 20.392 4.27285 20.2848 4.61243 20.2599C4.67992 20.2549 4.74783 20.253 4.81615 20.2543C5.17441 20.2619 5.5247 20.3614 5.83354 20.5431C5.92436 20.5958 6.01114 20.6552 6.09317 20.7207C6.14658 20.7622 6.19731 20.8073 6.24534 20.8561C6.53369 21.139 6.73445 21.4989 6.8236 21.8928C6.83106 21.9259 6.83768 21.959 6.84348 21.9922C6.84928 22.0257 6.85445 22.0593 6.85901 22.0928C6.90478 22.4515 6.85731 22.816 6.72118 23.151C6.58505 23.486 6.36486 23.7803 6.08186 24.0054C5.79887 24.2305 5.46261 24.3789 5.10556 24.4362C4.74851 24.4935 4.38271 24.4578 4.04348 24.3325C3.98013 24.3094 3.91802 24.2829 3.85715 24.253C3.80621 24.2282 3.7559 24.2027 3.70684 24.1735C3.46839 24.0338 3.25981 23.8484 3.09302 23.628C2.92623 23.4076 2.80449 23.1565 2.73476 22.889C2.66503 22.6216 2.64867 22.343 2.68661 22.0692C2.72455 21.7954 2.81606 21.5318 2.9559 21.2934H2.95342ZM1.92361 30.7661C1.85764 30.8787 1.75978 30.9691 1.64239 31.0261C1.525 31.083 1.39336 31.1039 1.26411 31.086C1.13487 31.0681 1.01384 31.0123 0.916311 30.9256C0.818786 30.839 0.749156 30.7253 0.716225 30.5991C0.683295 30.4728 0.688543 30.3397 0.731308 30.2164C0.774073 30.0931 0.852432 29.9853 0.956475 29.9066C1.06052 29.8279 1.18557 29.7817 1.31582 29.7741C1.44607 29.7665 1.57566 29.7976 1.6882 29.8636C1.83907 29.9521 1.94862 30.0969 1.99277 30.2661C2.03691 30.4353 2.01203 30.6152 1.92361 30.7661ZM1.79007 29.3847L1.81305 29.394L1.79007 29.3847ZM2.41677 30.8332C2.51157 30.5829 2.51488 30.3071 2.42612 30.0546C2.33736 29.802 2.16225 29.589 1.93168 29.453L1.90684 29.44L3.45963 25.7357C4.0505 25.9657 4.69141 26.0367 5.31832 25.9416C5.94522 25.8464 6.53618 25.5884 7.03216 25.1933C7.52813 24.7983 7.91175 24.28 8.1447 23.6902C8.37764 23.1005 8.45175 22.4599 8.35963 21.8325L14.5472 20.7586C14.7755 21.87 15.3651 22.8746 16.2242 23.6158L9.80559 31.1934C9.47384 30.9275 9.08369 30.7441 8.66724 30.6583C8.25079 30.5725 7.81992 30.5868 7.41008 30.7C7.00023 30.8132 6.62311 31.0221 6.30973 31.3095C5.99635 31.5969 5.75566 31.9545 5.60745 32.353L2.41677 30.8332ZM2.33603 31.0046C2.35218 30.9766 2.36708 30.9481 2.38075 30.9195C2.36646 30.9481 2.35218 30.9766 2.33603 31.0046ZM7.3354 34.6338C7.06396 34.4747 6.84695 34.2372 6.71283 33.9526C6.57872 33.6679 6.53376 33.3494 6.58385 33.0388C6.595 32.9701 6.61077 32.9022 6.63106 32.8357C6.70775 32.579 6.84916 32.3464 7.0417 32.1602C7.23425 31.974 7.47145 31.8405 7.73051 31.7725C7.98957 31.7044 8.26177 31.7042 8.52096 31.7717C8.78015 31.8393 9.0176 31.9723 9.2105 32.1582C9.4034 32.344 9.54526 32.5763 9.62244 32.8328C9.69961 33.0893 9.70952 33.3613 9.6512 33.6227C9.59288 33.8842 9.4683 34.1262 9.28942 34.3255C9.11055 34.5249 8.8834 34.6749 8.62981 34.7611C8.41764 34.8345 8.1921 34.8611 7.96867 34.8391C7.74524 34.8172 7.52921 34.7471 7.3354 34.6338ZM14.1311 41.5903C14.025 41.7699 13.8682 41.9141 13.6803 42.0047C13.4924 42.0953 13.2819 42.1282 13.0753 42.0992C12.8687 42.0703 12.6754 41.9808 12.5196 41.8421C12.3638 41.7034 12.2526 41.5217 12.2 41.3198C12.1474 41.118 12.1558 40.9051 12.224 40.708C12.2923 40.5109 12.4174 40.3384 12.5836 40.2123C12.7497 40.0863 12.9495 40.0122 13.1577 39.9996C13.3659 39.9869 13.5732 40.0362 13.7534 40.1412C13.8736 40.2113 13.9788 40.3045 14.063 40.4153C14.1471 40.5262 14.2084 40.6526 14.2435 40.7873C14.2786 40.9219 14.2868 41.0622 14.2675 41.2C14.2482 41.3378 14.2018 41.4705 14.1311 41.5903ZM14.4273 39.6897C14.1277 39.4242 13.7491 39.2646 13.3498 39.2357C12.9505 39.2067 12.5528 39.31 12.218 39.5294L9.47329 35.6164C9.8228 35.4138 10.1221 35.1351 10.349 34.8009C10.5759 34.4666 10.7246 34.0856 10.7838 33.686L16.4311 33.745C16.4812 34.7841 16.9052 35.7701 17.6248 36.5214L14.4273 39.6897ZM10.7981 33.5748V33.5909V33.5748ZM19.4683 35.6965C19.3188 35.6089 19.1787 35.5061 19.0503 35.3897C19.0006 35.3443 18.9534 35.2978 18.9081 35.2493C18.5274 34.842 18.2935 34.3194 18.2435 33.7642C18.2406 33.7311 18.2381 33.698 18.236 33.6648C18.236 33.6611 18.236 33.658 18.236 33.6543C18.236 33.6232 18.236 33.5922 18.236 33.5605C18.2309 32.9529 18.4473 32.3643 18.8446 31.9047C19.242 31.445 19.7931 31.1458 20.395 31.063L20.4938 31.0512H20.5031C20.5342 31.0512 20.5652 31.0456 20.5963 31.0437C21.0879 31.0155 21.5768 31.1337 22.0012 31.3835C22.0841 31.4323 22.1642 31.4858 22.241 31.5437C22.2956 31.5851 22.3482 31.628 22.3987 31.6723C22.6914 31.9333 22.9186 32.2593 23.0622 32.6242C23.2058 32.989 23.2617 33.3825 23.2255 33.7729C23.2197 33.8321 23.212 33.8913 23.2025 33.9506C23.1441 34.3017 23.0114 34.6363 22.8134 34.932C22.6153 35.2277 22.3564 35.4778 22.054 35.6655C22.0267 35.6824 21.999 35.6988 21.9708 35.7145L21.964 35.7183C21.9354 35.7344 21.9064 35.7499 21.877 35.7648C21.5022 35.9573 21.0849 36.0518 20.6637 36.0397C20.2426 36.0275 19.8314 35.909 19.4683 35.6953V35.6965ZM36.6776 35.5034C36.562 35.7041 36.3836 35.8612 36.1698 35.9505C35.9561 36.0399 35.7189 36.0564 35.4948 35.9977C35.2708 35.9389 35.0722 35.8081 34.9298 35.6254C34.7874 35.4427 34.7091 35.2182 34.7068 34.9866C34.7036 34.8344 34.7334 34.6834 34.794 34.5438C34.8546 34.4042 34.9447 34.2794 35.0581 34.1778C35.1715 34.0763 35.3055 34.0005 35.4509 33.9556C35.5963 33.9107 35.7497 33.8977 35.9006 33.9176C35.968 33.9265 36.0343 33.9419 36.0987 33.9636C36.2486 34.013 36.3855 34.0953 36.4994 34.2046C36.6133 34.3138 36.7012 34.4472 36.7567 34.5949C36.8123 34.7426 36.834 34.9009 36.8203 35.0581C36.8066 35.2153 36.7579 35.3675 36.6776 35.5034ZM37.0459 28.9562L36.0733 33.1704C35.8325 33.1292 35.586 33.1366 35.3482 33.1924C35.1104 33.2482 34.8862 33.3512 34.689 33.4953C34.4917 33.6394 34.3254 33.8216 34.1999 34.0311C34.0744 34.2407 33.9923 34.4733 33.9584 34.7152L25.0255 33.9077C25.0839 33.2248 24.9787 32.5377 24.7186 31.9035C24.4585 31.2694 24.051 30.7063 23.5298 30.2611L29.6571 22.6537C29.6874 22.6735 29.7182 22.6928 29.7497 22.7114C30.1346 22.9371 30.5822 23.0321 31.0256 22.9824C31.469 22.9327 31.8845 22.7409 32.2099 22.4357L35.9205 25.7009C35.7142 25.9719 35.578 26.2896 35.5241 26.626C35.4702 26.9623 35.5003 27.3067 35.6116 27.6286C35.7229 27.9505 35.912 28.2399 36.1622 28.4711C36.4123 28.7022 36.7157 28.868 37.0453 28.9537L37.0459 28.9562ZM38.5987 27.5624C38.4821 27.7611 38.3107 27.922 38.1051 28.0258C37.8994 28.1297 37.6682 28.1721 37.4391 28.1481C37.4068 28.145 37.377 28.14 37.3416 28.1338H37.3366C37.3039 28.1276 37.2712 28.1199 37.2385 28.1108C37.0612 28.0619 36.8976 27.9727 36.7604 27.8503C36.6232 27.7278 36.516 27.5754 36.4473 27.4048C36.3785 27.2342 36.3501 27.0501 36.3641 26.8667C36.378 26.6833 36.4341 26.5056 36.5279 26.3475C36.5422 26.3239 36.5577 26.3015 36.5733 26.2791C36.5888 26.2568 36.6118 26.2251 36.6354 26.1996L36.6397 26.194C36.6602 26.1686 36.682 26.1444 36.7018 26.1207C36.8242 25.9944 36.9727 25.8965 37.137 25.834C37.3014 25.7714 37.4774 25.7457 37.6528 25.7586C37.6859 25.7611 37.719 25.7648 37.7522 25.7698H37.759C37.7907 25.7748 37.8211 25.781 37.8534 25.7891C38.0346 25.8339 38.2028 25.9204 38.3446 26.0417C38.4865 26.163 38.598 26.3158 38.6704 26.4878C38.7428 26.6599 38.774 26.8464 38.7616 27.0326C38.7491 27.2189 38.6934 27.3996 38.5987 27.5605V27.5624ZM38.2317 21.2798L37.7664 24.894C37.45 24.8635 37.1308 24.9062 36.8335 25.0188C36.5362 25.1315 36.2689 25.3111 36.0522 25.5437L32.3522 22.2878C32.572 22.0366 32.7276 21.7359 32.8057 21.4113C32.8838 21.0868 32.882 20.7482 32.8006 20.4245L35.782 19.3065C35.9848 19.8191 36.3171 20.2705 36.7464 20.6163C37.1758 20.9622 37.6875 21.1908 38.2317 21.2798ZM40.3435 19.0686C40.1504 19.3979 39.8603 19.6595 39.5128 19.8176C39.1654 19.9757 38.7776 20.0225 38.4025 19.9518C38.0989 19.8946 37.8144 19.7623 37.575 19.567C37.3355 19.3717 37.1488 19.1197 37.0317 18.8338C37.0188 18.8027 37.007 18.7713 36.9963 18.7394C36.9855 18.7079 36.9755 18.676 36.9664 18.6437C36.8649 18.2881 36.8723 17.9102 36.9877 17.5588C37.1031 17.2074 37.3211 16.8986 37.6136 16.6723C37.6401 16.6516 37.6671 16.6309 37.6944 16.6102C37.7221 16.5911 37.7503 16.5727 37.7789 16.5549C38.1311 16.3398 38.545 16.2484 38.9551 16.2953C39.3651 16.3423 39.7477 16.5248 40.0422 16.814C40.3367 17.1032 40.5261 17.4824 40.5805 17.8916C40.6348 18.3007 40.551 18.7163 40.3422 19.0723L40.3435 19.0686Z" fill="white"/>
</svg>
