<svg width="23" height="23" viewBox="0 0 23 23" fill="none" xmlns="http://www.w3.org/2000/svg">
<path d="M11.5883 14.1984H15.8386V16.2904C15.8386 16.8748 14.8118 17.2643 12.7581 17.4591H12.0811C11.4279 17.4482 10.7816 17.3231 10.1716 17.0896C7.7903 15.9911 6.60011 14.1033 6.601 11.426C6.6061 10.6009 6.77398 9.78482 7.09505 9.02455C8.26655 6.76892 9.88895 5.64111 11.9622 5.64111C13.0607 5.64111 13.9638 5.80566 14.6716 6.13475C15.2887 6.47955 15.816 6.96444 16.2111 7.5503L20.3706 3.86C18.3285 1.47985 15.3018 0.288888 11.2906 0.287109C8.55943 0.287109 6.21866 1.14765 4.26823 2.86872C1.76232 5.46322 0.508914 8.31433 0.508024 11.422C0.495478 13.2584 0.916829 15.0717 1.73783 16.7147C2.26127 17.9145 3.12299 19.1046 4.32298 20.2849C6.29299 21.9677 8.63332 22.8096 11.344 22.8105C11.9288 22.7696 12.4834 22.7082 13.0078 22.6264C15.0098 22.3809 16.4884 22.0327 17.4436 21.5817C17.4436 21.6849 17.4436 21.9104 17.4436 22.2581H22.0638V9.70364H11.5923L11.5883 14.1984Z" fill="white"/>
</svg>
