<svg width="22" height="23" viewBox="0 0 22 23" fill="none" xmlns="http://www.w3.org/2000/svg">
<path d="M10.5062 0.687012H0.527476L0.518127 22.1671H10.6197C12.334 22.1862 14.0338 21.851 15.6124 21.1824C19.2675 19.553 21.096 16.3127 21.0978 11.4617C21.0978 7.79989 20.074 4.98925 18.0266 3.0298C16.5444 1.46972 14.0376 0.688791 10.5062 0.687012ZM14.6136 11.3963C14.6279 12.4015 14.395 13.3947 13.9352 14.2888C13.1643 15.9503 11.614 16.7806 9.28437 16.7797H6.66585V5.33257H9.16018C9.96196 5.33641 10.7577 5.47162 11.5157 5.73282C13.5782 6.67741 14.6091 8.31888 14.6082 10.6572L14.6136 11.3963Z" fill="white"/>
</svg>
