<svg width="158" height="161" viewBox="0 0 158 161" fill="none" xmlns="http://www.w3.org/2000/svg">
<path d="M151.921 55.2151C149.993 54.0806 147.787 53.5083 145.551 53.5626C143.316 53.6169 141.14 54.2956 139.269 55.5225L130.421 43.1162C132.425 41.5854 134.046 39.6076 135.156 37.3395C136.266 35.0714 136.834 32.5753 136.816 30.0489C136.797 27.5224 136.192 25.0351 135.049 22.7837C133.906 20.5323 132.255 18.5788 130.229 17.0778C128.202 15.5768 125.855 14.5696 123.373 14.1359C120.891 13.7022 118.342 13.8539 115.929 14.5791C113.515 15.3042 111.303 16.5829 109.468 18.3138C107.633 20.0447 106.225 22.1803 105.355 24.5515L74.2133 13.8133C74.7243 11.8617 74.6575 9.80315 74.0212 7.88894C73.3849 5.97473 72.2067 4.2877 70.6302 3.03382C69.0538 1.77993 67.1474 1.01344 65.1438 0.827925C63.1402 0.642406 61.1261 1.04588 59.3474 1.9891C57.5687 2.93231 56.1023 4.37446 55.1272 6.13947C54.1522 7.90448 53.7106 9.916 53.8566 11.9284C54.0025 13.9409 54.7296 15.8672 55.949 17.4722C57.1684 19.0772 58.8274 20.2914 60.7235 20.9666L55.008 35.6908C53.9745 35.3385 52.8786 35.2079 51.7915 35.3074C50.7044 35.407 49.6503 35.7344 48.6975 36.2686C47.7446 36.8028 46.9143 37.5317 46.2603 38.4082C45.6064 39.2847 45.1433 40.2892 44.9012 41.3567L25.5508 37.9149C25.8352 36.0565 25.5461 34.1553 24.7222 32.4664C23.8983 30.7774 22.5791 29.3815 20.9415 28.4659C19.304 27.5503 17.4264 27.1587 15.5605 27.3437C13.6947 27.5288 11.9299 28.2815 10.5029 29.5011C9.07591 30.7206 8.0549 32.3486 7.57686 34.1666C7.09882 35.9847 7.18661 37.9058 7.82845 39.6724C8.47029 41.439 9.63548 42.9665 11.1677 44.0501C12.7 45.1336 14.526 45.7214 16.4009 45.7345L17.1028 67.8959C14.1766 68.0618 11.3815 69.1677 9.13065 71.05C6.87981 72.9323 5.29281 75.4911 4.60436 78.3478C3.91591 81.2046 4.16256 84.2077 5.30783 86.9131C6.4531 89.6184 8.43619 91.8823 10.9638 93.3699C11.369 93.6077 11.7859 93.8246 12.2131 94.0198L6.36426 107.996C5.59957 107.735 4.77711 107.698 3.99192 107.887C3.20672 108.075 2.49083 108.483 1.92699 109.063C1.36314 109.642 0.974337 110.37 0.805511 111.162C0.636685 111.954 0.694727 112.777 0.972927 113.538C1.25113 114.298 1.73813 114.964 2.37766 115.458C3.0172 115.952 3.78316 116.255 4.58704 116.331C5.39092 116.407 6.1999 116.254 6.92052 115.889C7.64113 115.523 8.24397 114.961 8.65935 114.267L20.7618 120.04C20.2192 121.925 20.2323 123.926 20.7995 125.803C21.3667 127.681 22.4638 129.353 23.9582 130.618C25.4525 131.883 27.2803 132.688 29.2207 132.934C31.1611 133.18 33.1311 132.858 34.8926 132.006L45.3106 146.873C44.2553 147.75 43.4859 148.924 43.1013 150.243C42.7167 151.563 42.7346 152.967 43.1526 154.276C43.5706 155.586 44.3696 156.739 45.4469 157.589C46.5241 158.439 47.8303 158.947 49.1975 159.046C50.5646 159.146 51.9302 158.832 53.1185 158.147C54.3067 157.462 55.2634 156.436 55.8654 155.201C56.4674 153.966 56.6871 152.579 56.4964 151.218C56.3057 149.856 55.7132 148.583 54.7951 147.563L66.8391 135.598C69.3367 137.975 72.5244 139.494 75.9404 139.934C79.3564 140.373 82.8232 139.711 85.8385 138.042L93.6479 150.946C92.4785 151.745 91.6641 152.968 91.3762 154.357C91.0884 155.746 91.3495 157.194 92.1047 158.394C92.8599 159.594 94.0502 160.453 95.4246 160.79C96.7991 161.127 98.2505 160.916 99.4729 160.202C100.695 159.487 101.593 158.324 101.978 156.959C102.362 155.593 102.203 154.131 101.533 152.881C100.864 151.631 99.7369 150.69 98.3895 150.257C97.042 149.823 95.5794 149.932 94.31 150.559L86.5006 137.655C88.55 136.391 90.2938 134.686 91.6059 132.663C92.918 130.641 93.7657 128.351 94.0878 125.96L127.754 129.01C127.719 130.296 128.045 131.567 128.694 132.677C129.343 133.787 130.29 134.693 131.426 135.291C132.563 135.889 133.843 136.156 135.123 136.061C136.403 135.967 137.631 135.514 138.667 134.755C139.704 133.996 140.508 132.961 140.987 131.767C141.467 130.573 141.603 129.269 141.381 128.001C141.158 126.734 140.586 125.554 139.729 124.596C138.872 123.638 137.764 122.94 136.532 122.581L140.198 106.649C142.218 106.98 144.287 106.501 145.957 105.314C147.627 104.128 148.764 102.329 149.122 100.308C149.479 98.2869 149.029 96.2059 147.868 94.5153C146.707 92.8247 144.929 91.6606 142.919 91.2748L144.673 77.6111C147.399 77.8799 150.134 77.2069 152.426 75.7035C154.718 74.2001 156.428 71.9566 157.275 69.3448C158.121 66.7329 158.052 63.9095 157.079 61.3423C156.107 58.7752 154.288 56.6183 151.926 55.2292L151.921 55.2151ZM98.313 152.726C98.8985 153.072 99.3576 153.597 99.6222 154.224C99.8868 154.851 99.943 155.547 99.7822 156.209C99.6216 156.871 99.2526 157.463 98.73 157.898C98.2074 158.333 97.5589 158.587 96.8807 158.624C96.2026 158.66 95.5307 158.477 94.9646 158.101C94.3986 157.724 93.9685 157.175 93.7381 156.534C93.5076 155.894 93.4891 155.196 93.6852 154.544C93.8814 153.892 94.2818 153.32 94.8271 152.914C94.9272 152.84 95.0319 152.773 95.1405 152.712L95.1733 152.696C95.2781 152.638 95.3858 152.585 95.4962 152.539C95.948 152.349 96.4378 152.267 96.9267 152.299C97.4156 152.332 97.8902 152.478 98.313 152.726ZM138.64 55.9612C136.637 57.4668 135.153 59.5616 134.395 61.9534C133.637 64.3452 133.642 66.9148 134.41 69.3035L123.217 73.5218C122.75 72.2162 121.943 71.0591 120.882 70.1697C119.82 69.2802 118.541 68.6905 117.177 68.4613L119.483 46.4078C123.141 46.6488 126.773 45.6453 129.792 43.5597L138.64 55.9612ZM119.797 78.458C119.655 78.7004 119.49 78.9289 119.306 79.1407C119.226 79.2322 119.142 79.3214 119.055 79.4059L119.034 79.427C118.944 79.5146 118.85 79.5975 118.754 79.6757C118.039 80.2618 117.163 80.6144 116.243 80.6861C115.323 80.7579 114.403 80.5452 113.607 80.0769C113.499 80.0135 113.396 79.9431 113.295 79.8727C113.195 79.8024 113.122 79.7437 113.038 79.6757C112.57 79.2908 112.183 78.8153 111.902 78.2777C111.621 77.74 111.45 77.1511 111.4 76.546C111.4 76.4216 111.386 76.2973 111.386 76.1706C111.386 76.1706 111.386 76.1706 111.386 76.1565C111.386 76.0282 111.392 75.9008 111.403 75.7741C111.501 74.6132 112.043 73.5352 112.915 72.765C113.786 71.9949 114.921 71.5919 116.082 71.6402C116.338 71.6513 116.592 71.6843 116.842 71.7388C117.601 71.8992 118.305 72.2536 118.887 72.7674C119.47 73.2812 119.909 73.937 120.164 74.6714C120.381 75.2906 120.46 75.9499 120.397 76.603C120.334 77.2562 120.129 77.8877 119.797 78.4533V78.458ZM87.9348 110.933C87.3839 110.505 86.8065 110.114 86.2058 109.76C83.4087 108.108 80.1801 107.34 76.9413 107.557L75.6405 90.9323C79.9347 90.4925 83.9597 88.6281 87.0776 85.6345C90.1955 82.6409 92.2278 78.6894 92.8525 74.4063L108.111 76.1682C108.111 77.3303 108.37 78.4777 108.868 79.5268C109.366 80.576 110.091 81.5005 110.991 82.2329L87.9348 110.933ZM64.0012 115.557C62.537 118.054 61.7679 120.9 61.774 123.797L40.6058 123.576C40.7122 122.065 40.4805 120.548 39.9275 119.138C39.3746 117.728 38.5145 116.46 37.41 115.426L61.5962 86.8031C62.3129 87.3758 63.0688 87.8971 63.8585 88.3633C67.1854 90.3267 71.023 91.2444 74.8754 90.998L76.1762 107.625C73.6712 107.906 71.2662 108.77 69.1525 110.148C67.0389 111.525 65.2751 113.378 64.0012 115.559V115.557ZM62.6232 73.7846C62.6022 73.6743 62.5811 73.564 62.5624 73.4538C62.5624 73.4256 62.5624 73.3998 62.5484 73.3717C62.235 71.4053 62.4459 69.3908 63.1596 67.5325C63.8733 65.6742 65.0644 64.0383 66.6122 62.7907C66.8118 62.6343 67.0169 62.4779 67.2275 62.3215C68.5431 61.4039 70.0384 60.7776 71.6141 60.4845C71.8644 60.4376 72.1171 60.3977 72.3721 60.3672C74.2196 60.1541 76.091 60.4031 77.8191 61.0921C79.5472 61.7812 81.0782 62.8886 82.2754 64.3157C82.3534 64.4095 82.4314 64.5042 82.5094 64.5996C84.3111 66.896 85.1578 69.8021 84.8723 72.7101C84.8473 72.9634 84.8138 73.2168 84.7717 73.4702C84.367 75.8737 83.1973 78.0813 81.4375 79.7627C79.6777 81.4441 77.4223 82.5091 75.0088 82.7983L74.7047 82.8288H74.5736L74.2461 82.8523C72.0528 82.968 69.874 82.4344 67.9808 81.3179C67.5943 81.0893 67.2216 80.8378 66.8648 80.5648C66.6605 80.4084 66.4624 80.2466 66.2706 80.0792C64.4858 78.5169 63.2395 76.4286 62.7098 74.113C62.6786 74.0067 62.6498 73.8972 62.6232 73.7846ZM31.243 78.817C30.6836 76.0686 29.2952 73.559 27.2657 71.6285L47.5893 49.1481C48.8842 50.201 50.4815 50.81 52.1469 50.8856C53.8122 50.9612 55.4579 50.4994 56.8422 49.568L61.7717 56.2404C59.0123 58.3893 56.8836 61.2462 55.6106 64.5088C54.3376 67.7715 53.9677 71.3185 54.5401 74.7746L31.243 78.8287V78.817ZM112.367 44.2166C114.315 45.3649 116.482 46.0906 118.728 46.3468L116.433 68.3745C114.414 68.2372 112.421 68.8934 110.877 70.2041C109.332 71.5149 108.357 73.3771 108.158 75.3964L92.9507 73.6415C93.2206 71.0677 92.9769 68.4657 92.2338 65.9873C91.4907 63.5089 90.2631 61.2037 88.6226 59.2059L108.81 41.3754C109.857 42.4852 111.054 43.4416 112.367 44.2166ZM125.342 22.0341C126.659 22.8097 127.769 23.8949 128.575 25.1962C129.381 26.4975 129.859 27.9758 129.969 29.5038C130.079 31.0318 129.816 32.5636 129.204 33.9672C128.592 35.3707 127.648 36.604 126.455 37.5607C126.356 37.6404 126.255 37.7186 126.154 37.7953C124.432 39.0599 122.334 39.7032 120.202 39.6205C119.948 39.6112 119.692 39.5908 119.437 39.5595C117.35 39.3034 115.408 38.3564 113.918 36.8686C113.735 36.6856 113.564 36.4955 113.398 36.3031C112.385 35.1061 111.684 33.6749 111.36 32.1385C111.036 30.6022 111.098 29.0091 111.541 27.5029C111.612 27.2589 111.695 27.0165 111.789 26.7756C112.281 25.499 113.044 24.3449 114.026 23.3934C115.007 22.4419 116.183 21.7156 117.472 21.2648C118.76 20.8141 120.132 20.6496 121.49 20.7829C122.849 20.9161 124.162 21.3438 125.339 22.0365L125.342 22.0341ZM74.1174 14.1559C74.1034 14.2075 74.0847 14.2568 74.0706 14.3084L74.1174 14.1559ZM73.1278 16.4339C73.4768 15.8385 73.766 15.2098 73.9911 14.5571L105.107 25.2858C104.275 27.9325 104.131 30.7483 104.689 33.4664C105.247 36.1844 106.487 38.7146 108.293 40.8171L88.1243 58.6217C86.0181 56.2634 83.3694 54.4566 80.4085 53.3584C77.4476 52.2602 74.264 51.9037 71.1345 52.32L66.3314 21.3514C67.7443 21.0535 69.0793 20.462 70.2503 19.615C71.4213 18.7681 72.4023 17.6844 73.1301 16.4339H73.1278ZM61.1493 16.38C59.947 15.6723 59.027 14.5678 58.5465 13.2554C58.0661 11.9429 58.055 10.5039 58.5153 9.18413C58.9755 7.86439 59.8784 6.74587 61.0698 6.01967C62.2611 5.29346 63.667 5.00465 65.0471 5.20257C66.4273 5.40049 67.6961 6.07287 68.6367 7.10481C69.5773 8.13676 70.1314 9.46423 70.2044 10.8604C70.2773 12.2566 69.8645 13.6349 69.0365 14.7597C68.2084 15.8845 67.0166 16.6861 65.6647 17.0275C65.5477 17.0557 65.4307 17.0815 65.3137 17.1049H65.2693C65.15 17.1261 65.0353 17.1448 64.9113 17.1589C64.2939 17.2327 63.6688 17.2097 63.0584 17.0909C62.9414 17.0674 62.8245 17.0416 62.7051 17.0111H62.663C62.546 16.9806 62.4291 16.9454 62.3097 16.9055C61.9055 16.7719 61.5166 16.5957 61.1493 16.38ZM61.4535 21.1989C62.7914 21.5664 64.1894 21.6598 65.5641 21.4734L70.3648 52.442C67.4906 52.9393 64.7648 54.0787 62.3893 55.7758L57.4575 49.0988C58.4221 48.2983 59.1801 47.2764 59.6673 46.1198C60.1544 44.9631 60.3564 43.7057 60.2561 42.4542C60.1558 41.2026 59.7561 39.9937 59.091 38.9299C58.4259 37.8661 57.5149 36.9788 56.4352 36.343C56.2038 36.2066 55.9656 36.0821 55.7216 35.97L61.4535 21.1989ZM48.586 40.7913C49.1013 39.9119 49.8973 39.2325 50.8453 38.863C51.7933 38.4934 52.8379 38.4553 53.8102 38.7548C53.9272 38.79 54.0441 38.8322 54.1564 38.8768H54.1798C54.2953 38.9237 54.4091 38.9754 54.5214 39.0317C54.6056 39.0739 54.6922 39.1138 54.7741 39.1631C55.4433 39.5571 55.9999 40.1175 56.3902 40.7902C56.7805 41.4628 56.9914 42.2249 57.0025 43.0031C57.0135 43.7812 56.8244 44.5491 56.4533 45.2326C56.0822 45.9161 55.5418 46.4922 54.884 46.9052C54.1849 47.3442 53.3791 47.5829 52.5543 47.5953C51.7294 47.6077 50.917 47.3934 50.205 46.9756C50.0604 46.8903 49.9205 46.7971 49.7862 46.6964C49.1695 46.2329 48.681 45.6192 48.367 44.9135C48.053 44.2077 47.9238 43.4333 47.9917 42.6634C48.0027 42.5399 48.019 42.4155 48.0409 42.2904V42.2951C48.0619 42.1731 48.09 42.0605 48.1204 41.9291C48.2233 41.5303 48.3799 41.1475 48.586 40.7913ZM44.7585 42.1098C44.6131 43.2975 44.7413 44.5028 45.133 45.633C45.5248 46.7633 46.1698 47.7884 47.0185 48.6296L26.6949 71.1077C24.2287 69.0106 21.0989 67.8621 17.8655 67.8677L17.1636 45.6993C19.1024 45.5504 20.9442 44.7889 22.4244 43.5242C23.9045 42.2596 24.9466 40.5569 25.4011 38.661L44.7585 42.1098ZM11.8552 33.8069C12.479 32.7397 13.4523 31.9222 14.6094 31.4935C15.7665 31.0647 17.036 31.0512 18.2019 31.4552C19.3678 31.8592 20.3581 32.6558 21.0044 33.7095C21.6507 34.7632 21.913 36.0088 21.7468 37.2346C21.7304 37.3495 21.7117 37.4692 21.6883 37.5747L21.6742 37.6428C21.6485 37.7577 21.6228 37.8774 21.59 37.9853C21.2968 39.0046 20.7086 39.9136 19.8998 40.5973C19.0909 41.281 18.098 41.7086 17.0466 41.8259C16.932 41.8376 16.8127 41.847 16.7027 41.8517H16.6302C16.5132 41.8517 16.3962 41.8517 16.2816 41.8517C15.3589 41.8199 14.4602 41.5486 13.6733 41.0643C12.8864 40.5801 12.2383 39.8993 11.7923 39.0887C11.3462 38.2781 11.1176 37.3652 11.1286 36.4395C11.1396 35.5137 11.39 34.6066 11.8552 33.8069ZM11.0246 77.5384C11.6729 76.4286 12.5803 75.4935 13.6689 74.8134C14.7574 74.1333 15.9945 73.7287 17.2736 73.6344C17.5278 73.6157 17.7836 73.6086 18.0409 73.6133C19.3903 73.6422 20.7098 74.0179 21.8731 74.7043C22.2152 74.9033 22.5421 75.1276 22.851 75.3753C23.0522 75.5317 23.2433 75.7021 23.4242 75.8867C24.5103 76.9549 25.2665 78.3144 25.6023 79.8024C25.6304 79.9275 25.6554 80.0526 25.6772 80.1777C25.699 80.3044 25.7185 80.4311 25.7357 80.5578C25.9081 81.9128 25.7293 83.2894 25.2165 84.5548C24.7038 85.8203 23.8744 86.9318 22.8084 87.7822C21.7425 88.6325 20.4759 89.193 19.131 89.4094C17.7861 89.6259 16.4083 89.491 15.1305 89.0179C14.8919 88.9303 14.6579 88.8302 14.4287 88.7176C14.2368 88.6237 14.0473 88.5275 13.8625 88.4173C12.9643 87.8893 12.1787 87.1891 11.5505 86.3566C10.9222 85.5241 10.4637 84.5756 10.201 83.5654C9.93835 82.5551 9.87673 81.5029 10.0196 80.4688C10.1626 79.4346 10.5072 78.4389 11.034 77.5384H11.0246ZM7.14567 113.319C6.8972 113.744 6.52858 114.086 6.08641 114.301C5.64424 114.516 5.14839 114.595 4.66158 114.527C4.17477 114.46 3.71886 114.249 3.35152 113.922C2.98418 113.594 2.7219 113.165 2.59787 112.688C2.47383 112.211 2.4936 111.708 2.65468 111.243C2.81576 110.777 3.11091 110.37 3.50281 110.072C3.8947 109.775 4.36574 109.601 4.85634 109.572C5.34694 109.543 5.83507 109.661 6.25898 109.91C6.82725 110.244 7.2399 110.791 7.40617 111.43C7.57245 112.07 7.47875 112.749 7.14567 113.319ZM6.64267 108.101L6.72923 108.136L6.64267 108.101ZM9.00327 113.572C9.36032 112.627 9.37279 111.585 9.03847 110.631C8.70415 109.677 8.04454 108.873 7.17608 108.359L7.0825 108.31L12.9314 94.3177C15.157 95.1868 17.5711 95.455 19.9324 95.0956C22.2938 94.7361 24.5197 93.7615 26.3879 92.2693C28.256 90.777 29.701 88.8193 30.5784 86.5916C31.4559 84.364 31.735 81.9445 31.388 79.5748L54.6945 75.5184C55.5544 79.7163 57.7755 83.511 61.0113 86.3105L36.8345 114.933C35.5849 113.928 34.1153 113.236 32.5467 112.912C30.9781 112.588 29.3551 112.642 27.8114 113.069C26.2676 113.497 24.8471 114.286 23.6667 115.371C22.4863 116.457 21.5797 117.808 21.0215 119.313L9.00327 113.572ZM8.69913 114.22C8.75995 114.114 8.8161 114.006 8.86757 113.898C8.81376 114.006 8.75995 114.114 8.69913 114.22ZM27.5301 127.928C26.5077 127.327 25.6903 126.43 25.1851 125.355C24.6799 124.28 24.5106 123.077 24.6993 121.903C24.7413 121.644 24.8007 121.388 24.8771 121.136C25.1659 120.167 25.6986 119.288 26.4238 118.585C27.1491 117.882 28.0425 117.377 29.0183 117.12C29.9941 116.863 31.0194 116.862 31.9957 117.117C32.972 117.373 33.8664 117.875 34.593 118.577C35.3196 119.279 35.8539 120.157 36.1446 121.125C36.4353 122.094 36.4726 123.122 36.2529 124.109C36.0333 125.097 35.564 126.011 34.8902 126.764C34.2165 127.517 33.3609 128.083 32.4057 128.409C31.6065 128.686 30.757 128.787 29.9154 128.704C29.0738 128.621 28.2601 128.356 27.5301 127.928ZM53.127 154.205C52.7276 154.883 52.1368 155.428 51.4291 155.77C50.7213 156.112 49.9284 156.236 49.1503 156.127C48.3723 156.018 47.6439 155.68 47.0572 155.156C46.4704 154.632 46.0515 153.945 45.8534 153.183C45.6553 152.42 45.6867 151.616 45.9439 150.872C46.201 150.127 46.6722 149.476 47.2981 149C47.924 148.523 48.6766 148.244 49.4608 148.196C50.245 148.148 51.0258 148.334 51.7046 148.731C52.1575 148.996 52.5537 149.348 52.8706 149.766C53.1874 150.185 53.4186 150.663 53.5507 151.171C53.6829 151.68 53.7136 152.21 53.6408 152.73C53.5681 153.251 53.3935 153.752 53.127 154.205ZM54.243 147.025C53.1145 146.023 51.6882 145.42 50.1843 145.311C48.6803 145.201 47.1823 145.591 45.9212 146.42L35.5828 131.64C36.8993 130.875 38.0268 129.822 38.8815 128.559C39.7361 127.297 40.2959 125.857 40.5192 124.348L61.7904 124.571C61.9793 128.496 63.5762 132.22 66.287 135.058L54.243 147.025ZM40.5731 123.928V123.989V123.928ZM73.2307 131.942C72.6674 131.611 72.1398 131.223 71.6562 130.783C71.4691 130.612 71.2913 130.436 71.1205 130.253C69.6867 128.715 68.8058 126.741 68.6172 124.644C68.6062 124.518 68.5969 124.393 68.5891 124.268C68.5891 124.254 68.5891 124.242 68.5891 124.228C68.5891 124.111 68.5891 123.994 68.5891 123.874C68.57 121.579 69.3849 119.356 70.8816 117.62C72.3782 115.883 74.4542 114.753 76.7213 114.44L77.0933 114.396H77.1284C77.2454 114.396 77.3624 114.375 77.4793 114.368C79.3311 114.261 81.1728 114.708 82.7714 115.651C83.0837 115.835 83.3852 116.037 83.6745 116.256C83.8803 116.413 84.0784 116.574 84.2687 116.742C85.3709 117.728 86.2269 118.959 86.7677 120.337C87.3086 121.715 87.5192 123.202 87.3826 124.676C87.3608 124.9 87.3319 125.124 87.2961 125.347C87.0761 126.674 86.5765 127.937 85.8305 129.054C85.0845 130.172 84.1094 131.116 82.9703 131.825C82.8673 131.889 82.7628 131.951 82.6568 132.01L82.631 132.024C82.5234 132.085 82.4142 132.144 82.3035 132.2C80.8918 132.927 79.3197 133.284 77.7334 133.238C76.1471 133.193 74.5982 132.745 73.2307 131.938V131.942ZM138.052 131.213C137.617 131.971 136.945 132.564 136.14 132.902C135.335 133.239 134.441 133.302 133.597 133.08C132.753 132.858 132.006 132.364 131.469 131.674C130.933 130.984 130.638 130.136 130.629 129.261C130.617 128.686 130.729 128.115 130.957 127.588C131.186 127.061 131.525 126.589 131.952 126.206C132.379 125.822 132.884 125.536 133.432 125.366C133.98 125.197 134.557 125.148 135.126 125.223C135.379 125.257 135.629 125.315 135.872 125.397C136.437 125.583 136.952 125.894 137.381 126.307C137.81 126.719 138.141 127.223 138.35 127.781C138.56 128.339 138.641 128.937 138.59 129.531C138.538 130.125 138.355 130.699 138.052 131.213ZM139.44 106.482L135.776 122.401C134.869 122.245 133.941 122.273 133.045 122.484C132.149 122.695 131.305 123.084 130.562 123.628C129.819 124.172 129.192 124.86 128.72 125.652C128.247 126.443 127.938 127.322 127.81 128.235L94.1626 125.185C94.3828 122.606 93.9865 120.011 93.0068 117.615C92.0271 115.22 90.4921 113.093 88.529 111.411L111.609 82.6763C111.722 82.7514 111.839 82.8241 111.957 82.8945C113.407 83.7468 115.093 84.1059 116.763 83.9182C118.433 83.7304 119.998 83.0059 121.224 81.8529L135.201 94.1863C134.423 95.21 133.911 96.4103 133.708 97.6806C133.505 98.9509 133.618 100.252 134.037 101.468C134.456 102.684 135.169 103.777 136.111 104.65C137.053 105.523 138.196 106.149 139.437 106.473L139.44 106.482ZM145.289 101.218C144.849 101.968 144.204 102.576 143.429 102.968C142.655 103.361 141.784 103.521 140.921 103.43C140.799 103.418 140.687 103.4 140.553 103.376H140.535C140.411 103.353 140.288 103.324 140.165 103.289C139.497 103.104 138.881 102.768 138.364 102.305C137.847 101.843 137.444 101.267 137.185 100.622C136.926 99.9781 136.819 99.2826 136.871 98.59C136.924 97.8973 137.135 97.2261 137.489 96.6286C137.542 96.5395 137.601 96.455 137.659 96.3706C137.718 96.2861 137.804 96.1665 137.893 96.0703L137.91 96.0492C137.987 95.953 138.069 95.8615 138.144 95.7723C138.604 95.2952 139.164 94.9254 139.783 94.6891C140.402 94.4527 141.065 94.3556 141.726 94.4045C141.85 94.4139 141.975 94.428 142.1 94.4468H142.126C142.245 94.4655 142.36 94.489 142.481 94.5195C143.164 94.6888 143.797 95.0156 144.331 95.4738C144.866 95.9321 145.286 96.5091 145.559 97.1589C145.831 97.8087 145.949 98.5134 145.902 99.2168C145.855 99.9202 145.645 100.603 145.289 101.211V101.218ZM143.906 77.4867L142.154 91.1388C140.962 91.0233 139.759 91.1846 138.64 91.6102C137.52 92.0357 136.513 92.7141 135.697 93.5928L121.76 81.2945C122.588 80.3456 123.174 79.2096 123.468 77.9838C123.762 76.7579 123.756 75.4789 123.449 74.2562L134.679 70.0332C135.443 71.9697 136.694 73.6744 138.312 74.9808C139.929 76.2872 141.856 77.1507 143.906 77.4867ZM151.86 69.1346C151.133 70.3784 150.04 71.3665 148.732 71.9637C147.423 72.5609 145.962 72.738 144.549 72.4708C143.406 72.2546 142.334 71.7549 141.432 71.0173C140.531 70.2798 139.827 69.3277 139.386 68.2478C139.338 68.1305 139.293 68.0116 139.253 67.8912C139.212 67.7723 139.175 67.6519 139.14 67.5299C138.758 66.1865 138.786 64.759 139.22 63.4317C139.655 62.1043 140.476 60.938 141.578 60.0833C141.678 60.0051 141.779 59.9269 141.882 59.8487C141.987 59.7768 142.093 59.7071 142.2 59.6399C143.527 58.8272 145.086 58.4821 146.631 58.6594C148.175 58.8367 149.617 59.5263 150.726 60.6186C151.835 61.7109 152.548 63.1434 152.753 64.6888C152.958 66.2342 152.642 67.8038 151.856 69.1487L151.86 69.1346Z" fill="#171F2A"/>
</svg>
