<svg width="24" height="23" viewBox="0 0 24 23" fill="none" xmlns="http://www.w3.org/2000/svg">
<path d="M12.2252 0C9.03204 0 6.30847 1.09624 4.05449 3.28872C1.8005 5.48119 0.672618 8.12684 0.670837 11.2257C0.670837 14.3236 1.7965 16.9701 4.04781 19.1653C6.29913 21.3604 9.0218 22.4598 12.2158 22.4633C15.4081 22.4633 18.1317 21.3671 20.3865 19.1746C22.6414 16.9821 23.7693 14.3365 23.7702 11.2377C23.7702 8.14063 22.6445 5.49409 20.3932 3.29806C18.1419 1.10202 15.4192 0.00266833 12.2252 0ZM17.6719 11.2644C17.6596 11.867 17.5767 12.4661 17.4248 13.0495C16.3869 15.5897 14.7436 16.8598 12.4949 16.8598H12.0022C11.0611 16.8515 10.1421 16.5737 9.35429 16.0593C7.62997 14.8141 6.76826 13.1931 6.76915 11.1963V11.1349C6.76915 10.0987 6.95431 9.21686 7.32463 8.48929C8.39287 6.39732 9.99523 5.35178 12.1317 5.35267C12.9649 5.35076 13.7874 5.54068 14.5353 5.90768C16.629 7.10843 17.6754 8.79081 17.6745 10.9548L17.6719 11.2644Z" fill="white"/>
</svg>
