<svg width="128" height="114" viewBox="0 0 128 114" fill="none" xmlns="http://www.w3.org/2000/svg">
<path d="M63.0935 46.9599C64.0484 47.5209 64.7415 48.4375 65.0207 49.5087C65.2999 50.5798 65.1424 51.7178 64.5828 52.6731C64.5404 52.7454 64.5126 52.8254 64.5011 52.9084C64.4895 52.9915 64.4945 53.076 64.5157 53.1572C64.5368 53.2383 64.5738 53.3145 64.6244 53.3814C64.675 53.4482 64.7383 53.5045 64.8107 53.5469C64.8831 53.5894 64.9632 53.6171 65.0463 53.6286C65.1294 53.6402 65.214 53.6352 65.2952 53.614C65.3764 53.5929 65.4526 53.556 65.5196 53.5054C65.5865 53.4548 65.6428 53.3915 65.6853 53.3192C66.4154 52.0711 66.6201 50.5844 66.2544 49.1856C65.8887 47.7868 64.9826 46.5901 63.7348 45.8583C63.5886 45.7726 63.4143 45.7484 63.2503 45.7911C63.0863 45.8339 62.946 45.9399 62.8603 46.086C62.7745 46.2321 62.7504 46.4062 62.7931 46.5701C62.8359 46.734 62.942 46.8742 63.0882 46.9599H63.0935Z" fill="#171F2A"/>
<path d="M89.3164 24.1771C90.1156 24.6465 90.6957 25.4136 90.9295 26.31C91.1633 27.2063 91.0315 28.1588 90.5632 28.9582C90.5277 29.0191 90.5046 29.0863 90.4951 29.1561C90.4856 29.2259 90.49 29.2969 90.5079 29.365C90.5259 29.4331 90.5571 29.497 90.5998 29.5531C90.6425 29.6092 90.6958 29.6563 90.7567 29.6917C90.8176 29.7272 90.8849 29.7504 90.9548 29.7598C91.0246 29.7693 91.0956 29.765 91.1638 29.747C91.232 29.7291 91.2959 29.6979 91.352 29.6552C91.4081 29.6126 91.4553 29.5593 91.4908 29.4984C92.102 28.4545 92.2739 27.2109 91.9686 26.0405C91.6633 24.8701 90.9058 23.8685 89.8623 23.2556C89.8014 23.2201 89.7341 23.197 89.6642 23.1875C89.5944 23.178 89.5233 23.1824 89.4552 23.2003C89.387 23.2183 89.323 23.2495 89.2669 23.2921C89.2108 23.3348 89.1637 23.388 89.1282 23.4489C89.0927 23.5098 89.0695 23.577 89.0601 23.6468C89.0506 23.7166 89.0549 23.7876 89.0729 23.8557C89.0909 23.9238 89.1221 23.9877 89.1648 24.0438C89.2074 24.0998 89.2608 24.1469 89.3217 24.1824L89.3164 24.1771Z" fill="#171F2A"/>
<path d="M105.301 41.3194C104.208 40.6792 102.959 40.3562 101.693 40.3868C100.427 40.4175 99.1946 40.8005 98.1347 41.4929L93.1233 34.4914C94.2585 33.6274 95.1767 32.5112 95.8054 31.2312C96.434 29.9512 96.7558 28.5425 96.7453 27.1167C96.7347 25.6909 96.3921 24.2871 95.7446 23.0166C95.097 21.746 94.1623 20.6435 93.0145 19.7964C91.8667 18.9493 90.5373 18.3809 89.1315 18.1361C87.7258 17.8914 86.2823 17.977 84.9154 18.3862C83.5485 18.7955 82.2958 19.5171 81.2563 20.4939C80.2169 21.4708 79.4193 22.676 78.9267 24.0142L61.289 17.9541C61.5784 16.8527 61.5406 15.6909 61.1802 14.6106C60.8198 13.5303 60.1525 12.5782 59.2596 11.8706C58.3668 11.1629 57.287 10.7304 56.1523 10.6257C55.0175 10.521 53.8768 10.7487 52.8693 11.281C51.8619 11.8133 51.0314 12.6272 50.4791 13.6233C49.9269 14.6194 49.6768 15.7546 49.7595 16.8903C49.8421 18.0261 50.2539 19.1132 50.9446 20.019C51.6352 20.9247 52.5748 21.61 53.6487 21.9911L50.4116 30.3008C49.8263 30.102 49.2056 30.0282 48.5899 30.0844C47.9742 30.1406 47.3772 30.3254 46.8375 30.6269C46.2978 30.9283 45.8276 31.3397 45.4572 31.8344C45.0868 32.329 44.8245 32.8959 44.6874 33.4983L33.7279 31.556C33.889 30.5071 33.7252 29.4342 33.2586 28.481C32.792 27.5279 32.0448 26.7401 31.1173 26.2233C30.1899 25.7066 29.1264 25.4856 28.0697 25.59C27.0129 25.6945 26.0134 26.1193 25.2052 26.8076C24.397 27.4958 23.8187 28.4146 23.548 29.4406C23.2772 30.4666 23.3269 31.5508 23.6905 32.5478C24.054 33.5448 24.7139 34.4069 25.5817 35.0184C26.4496 35.6299 27.4838 35.9616 28.5457 35.969L28.9432 48.4759C27.2859 48.5696 25.7028 49.1937 24.428 50.256C23.1532 51.3183 22.2543 52.7623 21.8644 54.3745C21.4745 55.9868 21.6142 57.6816 22.2629 59.2084C22.9115 60.7351 24.0347 62.0128 25.4662 62.8523C25.6957 62.9865 25.9319 63.1089 26.1738 63.2191L22.8612 71.1064C22.4281 70.9596 21.9623 70.9383 21.5176 71.0449C21.0728 71.1515 20.6674 71.3816 20.348 71.7088C20.0287 72.0359 19.8085 72.4466 19.7129 72.8935C19.6172 73.3403 19.6501 73.8051 19.8077 74.2341C19.9652 74.6631 20.2411 75.0388 20.6033 75.3178C20.9655 75.5968 21.3993 75.7677 21.8546 75.8107C22.3099 75.8537 22.7681 75.7672 23.1762 75.561C23.5844 75.3548 23.9258 75.0375 24.1611 74.6456L31.0155 77.9041C30.7082 78.9675 30.7156 80.0971 31.0369 81.1564C31.3581 82.2158 31.9795 83.1595 32.8259 83.8736C33.6722 84.5877 34.7074 85.0417 35.8064 85.1806C36.9054 85.3196 38.0211 85.1376 39.0189 84.6567L44.9193 93.0471C44.3216 93.5422 43.8858 94.2046 43.668 94.9492C43.4502 95.6938 43.4603 96.4865 43.697 97.2253C43.9338 97.9642 44.3863 98.6153 44.9965 99.095C45.6066 99.5747 46.3464 99.861 47.1207 99.9171C47.895 99.9732 48.6684 99.7966 49.3414 99.4099C50.0145 99.0231 50.5563 98.4441 50.8972 97.7471C51.2382 97.0502 51.3626 96.2672 51.2546 95.499C51.1466 94.7308 50.811 94.0125 50.2911 93.4364L57.1124 86.6838C58.527 88.0258 60.3324 88.8829 62.2671 89.131C64.2019 89.379 66.1654 89.0051 67.8732 88.0634L72.2962 95.3456C71.6339 95.7966 71.1726 96.4868 71.0096 97.2708C70.8465 98.0549 70.9944 98.8716 71.4222 99.5488C71.8499 100.226 72.524 100.711 73.3025 100.901C74.0809 101.092 74.9029 100.973 75.5953 100.569C76.2876 100.166 76.7962 99.5097 77.0139 98.739C77.2316 97.9683 77.1414 97.1432 76.7623 96.4377C76.3832 95.7321 75.7448 95.2012 74.9816 94.9567C74.2185 94.7123 73.3901 94.7734 72.6712 95.1272L68.2481 87.845C69.4089 87.1314 70.3965 86.1692 71.1396 85.0277C71.8828 83.8863 72.3629 82.5941 72.5453 81.2446L91.6128 82.9659C91.5933 83.6919 91.7778 84.4089 92.1455 85.0355C92.5131 85.6621 93.0491 86.1732 93.6927 86.5108C94.3363 86.8484 95.0617 86.999 95.7866 86.9456C96.5115 86.8921 97.2069 86.6367 97.794 86.2084C98.381 85.78 98.8361 85.1958 99.1077 84.5221C99.3793 83.8484 99.4565 83.1121 99.3306 82.3967C99.2046 81.6814 98.8806 81.0156 98.3952 80.475C97.9098 79.9343 97.2824 79.5404 96.5844 79.338L98.6607 70.3464C99.8048 70.5335 100.977 70.263 101.923 69.5932C102.868 68.9235 103.512 67.9085 103.715 66.7679C103.918 65.6273 103.662 64.4528 103.005 63.4987C102.347 62.5447 101.34 61.8877 100.202 61.67L101.196 53.9588C102.739 54.1105 104.288 53.7306 105.586 52.8822C106.884 52.0337 107.853 50.7676 108.333 49.2936C108.812 47.8196 108.773 46.2262 108.222 44.7774C107.671 43.3286 106.641 42.1113 105.303 41.3274L105.301 41.3194ZM74.9383 96.3506C75.2699 96.5454 75.53 96.8417 75.6798 97.1957C75.8297 97.5497 75.8615 97.9425 75.7705 98.316C75.6795 98.6894 75.4705 99.0236 75.1745 99.2691C74.8785 99.5146 74.5113 99.6583 74.1272 99.6789C73.743 99.6995 73.3625 99.5959 73.0419 99.3835C72.7213 99.1711 72.4777 98.8612 72.3472 98.4996C72.2167 98.138 72.2062 97.7441 72.3173 97.3761C72.4284 97.0081 72.6552 96.6857 72.964 96.4565C73.0208 96.4149 73.0801 96.3769 73.1416 96.3427L73.1601 96.3334C73.2195 96.3006 73.2805 96.271 73.343 96.2447C73.5989 96.1374 73.8763 96.0911 74.1532 96.1095C74.4301 96.1278 74.6989 96.2104 74.9383 96.3506ZM97.7782 41.7405C96.6441 42.5902 95.8037 43.7724 95.3743 45.1222C94.9448 46.4721 94.9477 47.9222 95.3825 49.2703L89.0435 51.6509C88.7786 50.9141 88.322 50.2611 87.7206 49.7591C87.1193 49.2572 86.395 48.9244 85.6222 48.795L86.9287 36.349C89.0004 36.485 91.0573 35.9187 92.7669 34.7416L97.7782 41.7405ZM87.1063 54.4367C87.0257 54.5735 86.9325 54.7025 86.828 54.822C86.783 54.8737 86.7353 54.924 86.6862 54.9716L86.6743 54.9836C86.6231 55.033 86.5701 55.0798 86.5153 55.1239C86.1107 55.4547 85.6145 55.6537 85.0933 55.6942C84.5721 55.7347 84.051 55.6147 83.6002 55.3503C83.5392 55.3146 83.4809 55.2748 83.424 55.2351C83.367 55.1954 83.3259 55.1623 83.2782 55.1239C83.013 54.9067 82.7942 54.6384 82.6348 54.3349C82.4755 54.0315 82.3789 53.6991 82.3507 53.3576C82.3507 53.2875 82.3427 53.2173 82.3427 53.1458C82.3427 53.1458 82.3427 53.1458 82.3427 53.1378C82.3427 53.0655 82.3458 52.9935 82.352 52.922C82.4078 52.2669 82.7145 51.6585 83.2083 51.2239C83.702 50.7892 84.3446 50.5618 85.0021 50.5891C85.147 50.5953 85.291 50.6139 85.4327 50.6447C85.8625 50.7352 86.2615 50.9352 86.5911 51.2252C86.9208 51.5151 87.1699 51.8853 87.3143 52.2997C87.4371 52.6492 87.4821 53.0212 87.4461 53.3899C87.4102 53.7585 87.2942 54.1148 87.1063 54.4341V54.4367ZM69.0604 72.7641C68.7484 72.5228 68.4214 72.3017 68.0812 72.1021C66.497 71.1699 64.6684 70.7367 62.834 70.8588L62.0973 61.4767C64.5294 61.2285 66.8091 60.1763 68.5749 58.4868C70.3408 56.7974 71.4919 54.5673 71.8457 52.1501L80.4876 53.1445C80.4877 53.8003 80.6341 54.4478 80.9163 55.0399C81.1985 55.632 81.6093 56.1537 82.1188 56.5671L69.0604 72.7641ZM55.5051 75.3738C54.6758 76.7831 54.2402 78.389 54.2437 80.0238L42.2546 79.8994C42.3149 79.0464 42.1836 78.1907 41.8705 77.3949C41.5573 76.5991 41.0702 75.8832 40.4446 75.2997L54.143 59.1463C54.5489 59.4695 54.9771 59.7637 55.4243 60.0268C57.3086 61.1349 59.4821 61.6528 61.664 61.5137L62.4007 70.8972C60.9819 71.056 59.6198 71.5435 58.4227 72.3209C57.2256 73.0983 56.2266 74.1441 55.5051 75.3751V75.3738ZM54.7247 51.7992C54.7128 51.737 54.7008 51.6748 54.6902 51.6125C54.6902 51.5967 54.6902 51.5821 54.6823 51.5662C54.5048 50.4565 54.6242 49.3196 55.0284 48.2708C55.4327 47.2221 56.1073 46.2988 56.9839 45.5948C57.097 45.5065 57.2131 45.4182 57.3324 45.33C58.0775 44.8121 58.9244 44.4587 59.8169 44.2932C59.9586 44.2668 60.1017 44.2443 60.2462 44.227C61.2925 44.1068 62.3524 44.2473 63.3312 44.6362C64.3099 45.025 65.177 45.65 65.8551 46.4554C65.8993 46.5084 65.9434 46.5618 65.9876 46.6156C67.0081 47.9116 67.4876 49.5517 67.3259 51.1928C67.3118 51.3358 67.2928 51.4788 67.2689 51.6218C67.0397 52.9783 66.3772 54.2241 65.3805 55.173C64.3838 56.122 63.1065 56.723 61.7395 56.8862L61.5672 56.9034H61.493L61.3075 56.9167C60.0653 56.9819 58.8313 56.6808 57.759 56.0507C57.5401 55.9217 57.3291 55.7798 57.127 55.6257C57.0113 55.5374 56.8991 55.4461 56.7904 55.3516C55.7796 54.47 55.0737 53.2914 54.7737 51.9846C54.756 51.9246 54.7397 51.8628 54.7247 51.7992ZM36.9518 54.6393C36.635 53.0882 35.8486 51.6719 34.6992 50.5824L46.2099 37.8955C46.9433 38.4897 47.8479 38.8334 48.7911 38.876C49.7344 38.9187 50.6664 38.6581 51.4505 38.1325L54.2424 41.8981C52.6796 43.1108 51.4739 44.7231 50.7529 46.5644C50.0319 48.4057 49.8224 50.4075 50.1466 52.358L36.9518 54.6459V54.6393ZM82.8979 35.1123C84.0015 35.7604 85.2289 36.17 86.5007 36.3146L85.2009 48.746C84.0575 48.6685 82.9288 49.0389 82.054 49.7786C81.1792 50.5183 80.6269 51.5693 80.5141 52.7089L71.9013 51.7185C72.0542 50.2659 71.9161 48.7975 71.4953 47.3988C71.0744 46.0001 70.3791 44.6991 69.45 43.5716L80.8838 33.5089C81.4765 34.1352 82.1546 34.675 82.8979 35.1123ZM90.2466 22.5935C90.9928 23.0312 91.6212 23.6437 92.0778 24.3781C92.5343 25.1125 92.8053 25.9468 92.8674 26.8091C92.9294 27.6714 92.7807 28.5359 92.4341 29.328C92.0874 30.1201 91.5531 30.8161 90.8774 31.356C90.8208 31.401 90.7638 31.4452 90.7064 31.4884C89.7313 32.2021 88.5433 32.5652 87.3355 32.5185C87.1915 32.5132 87.0471 32.5018 86.9022 32.4841C85.7202 32.3396 84.6202 31.8051 83.7764 30.9654C83.6731 30.8622 83.5763 30.7549 83.4823 30.6463C82.9082 29.9708 82.5115 29.1631 82.3278 28.296C82.1441 27.429 82.1793 26.5299 82.4302 25.6799C82.4708 25.5422 82.5176 25.4053 82.5706 25.2694C82.8496 24.5489 83.2819 23.8977 83.8376 23.3607C84.3933 22.8237 85.0593 22.4138 85.7892 22.1594C86.5192 21.905 87.2958 21.8122 88.0652 21.8874C88.8346 21.9626 89.5785 22.204 90.2453 22.5948L90.2466 22.5935ZM61.2347 18.1474C61.2267 18.1765 61.2161 18.2043 61.2082 18.2335L61.2347 18.1474ZM60.6742 19.433C60.8718 19.097 61.0356 18.7422 61.1631 18.3738L78.7863 24.4286C78.3152 25.9223 78.2338 27.5114 78.5496 29.0454C78.8654 30.5793 79.5681 32.0073 80.591 33.1938L69.1677 43.242C67.9749 41.911 66.4747 40.8914 64.7978 40.2716C63.1208 39.6518 61.3177 39.4506 59.5452 39.6856L56.8249 22.2082C57.6251 22.0401 58.3812 21.7063 59.0444 21.2283C59.7077 20.7503 60.2633 20.1387 60.6755 19.433H60.6742ZM53.8899 19.4026C53.2089 19.0032 52.6878 18.3799 52.4157 17.6392C52.1436 16.8985 52.1374 16.0863 52.398 15.3415C52.6587 14.5967 53.1701 13.9655 53.8448 13.5557C54.5196 13.1458 55.3158 12.9828 56.0975 13.0945C56.8792 13.2062 57.5978 13.5857 58.1305 14.1681C58.6633 14.7505 58.9771 15.4996 59.0184 16.2876C59.0597 17.0755 58.8259 17.8533 58.3569 18.4882C57.888 19.123 57.213 19.5753 56.4472 19.768C56.381 19.7839 56.3147 19.7985 56.2485 19.8117H56.2233C56.1557 19.8236 56.0908 19.8342 56.0206 19.8422C55.6709 19.8838 55.3168 19.8708 54.9711 19.8038C54.9049 19.7905 54.8386 19.776 54.7711 19.7587H54.7472C54.681 19.7415 54.6147 19.7217 54.5471 19.6992C54.3182 19.6237 54.0979 19.5243 53.8899 19.4026ZM54.0622 22.1222C54.8199 22.3296 55.6117 22.3823 56.3903 22.2771L59.1093 39.7544C57.4814 40.0351 55.9376 40.6781 54.5922 41.6359L51.799 37.8677C52.3453 37.4159 52.7746 36.8392 53.0505 36.1864C53.3264 35.5336 53.4408 34.824 53.384 34.1177C53.3272 33.4114 53.1008 32.7291 52.7241 32.1288C52.3474 31.5284 51.8314 31.0276 51.2199 30.6689C51.0889 30.5919 50.954 30.5216 50.8158 30.4583L54.0622 22.1222ZM46.7744 33.1792C47.0662 32.683 47.5171 32.2995 48.054 32.091C48.5909 31.8824 49.1825 31.8609 49.7332 32.03C49.7995 32.0498 49.8657 32.0737 49.9293 32.0988H49.9426C50.0079 32.1253 50.0724 32.1544 50.136 32.1862C50.1837 32.21 50.2328 32.2325 50.2791 32.2604C50.6581 32.4828 50.9734 32.799 51.1945 33.1786C51.4155 33.5582 51.535 33.9883 51.5412 34.4275C51.5475 34.8667 51.4404 35.3 51.2302 35.6857C51.02 36.0715 50.7139 36.3966 50.3414 36.6297C49.9454 36.8775 49.4891 37.0121 49.0219 37.0191C48.5547 37.0261 48.0946 36.9052 47.6913 36.6694C47.6094 36.6213 47.5302 36.5687 47.4541 36.5119C47.1049 36.2503 46.8282 35.9039 46.6503 35.5056C46.4725 35.1073 46.3993 34.6703 46.4378 34.2358C46.444 34.1661 46.4533 34.0959 46.4656 34.0253V34.0279C46.4776 33.9591 46.4935 33.8955 46.5107 33.8214C46.5689 33.5964 46.6576 33.3803 46.7744 33.1792ZM44.6066 33.9233C44.5243 34.5936 44.5968 35.2738 44.8187 35.9117C45.0406 36.5496 45.4059 37.1281 45.8866 37.6029L34.3759 50.2885C32.9791 49.105 31.2064 48.4569 29.3751 48.46L28.9776 35.9491C30.0757 35.8651 31.1189 35.4353 31.9572 34.7216C32.7955 34.0079 33.3857 33.047 33.6431 31.977L44.6066 33.9233ZM25.9711 29.2376C26.3244 28.6353 26.8756 28.1739 27.531 27.932C28.1863 27.69 28.9053 27.6824 29.5657 27.9104C30.226 28.1384 30.7869 28.588 31.153 29.1826C31.519 29.7772 31.6676 30.4802 31.5734 31.172C31.5641 31.2369 31.5535 31.3044 31.5403 31.364L31.5323 31.4024C31.5177 31.4673 31.5032 31.5348 31.4846 31.5957C31.3186 32.1709 30.9854 32.6839 30.5273 33.0698C30.0692 33.4556 29.5068 33.6969 28.9114 33.7631C28.8464 33.7698 28.7789 33.7751 28.7166 33.7777H28.6755C28.6093 33.7777 28.543 33.7777 28.4781 33.7777C27.9555 33.7598 27.4465 33.6067 27.0008 33.3334C26.5551 33.06 26.1881 32.6759 25.9355 32.2184C25.6828 31.7609 25.5533 31.2457 25.5596 30.7233C25.5658 30.2008 25.7076 29.6889 25.9711 29.2376ZM25.5007 53.9177C25.8678 53.2914 26.3818 52.7637 26.9983 52.3799C27.6148 51.9961 28.3155 51.7677 29.0399 51.7145C29.1839 51.7039 29.3288 51.6999 29.4745 51.7026C30.2388 51.7189 30.9861 51.9309 31.6449 52.3183C31.8387 52.4306 32.0238 52.5572 32.1988 52.6969C32.3128 52.7852 32.421 52.8814 32.5235 52.9856C33.1386 53.5885 33.5669 54.3557 33.7571 55.1954C33.773 55.266 33.7871 55.3366 33.7995 55.4073C33.8118 55.4788 33.8229 55.5502 33.8326 55.6217C33.9302 56.3864 33.829 57.1633 33.5386 57.8775C33.2482 58.5917 32.7784 59.219 32.1747 59.6989C31.571 60.1788 30.8536 60.4951 30.0919 60.6172C29.3302 60.7394 28.5498 60.6633 27.8262 60.3962C27.691 60.3468 27.5585 60.2903 27.4286 60.2268C27.32 60.1738 27.2127 60.1195 27.108 60.0573C26.5993 59.7593 26.1543 59.3641 25.7985 58.8943C25.4427 58.4245 25.183 57.8892 25.0342 57.3191C24.8854 56.749 24.8505 56.1551 24.9315 55.5715C25.0124 54.9879 25.2077 54.4259 25.506 53.9177H25.5007ZM23.3038 74.1107C23.163 74.3506 22.9542 74.5435 22.7038 74.6649C22.4534 74.7863 22.1725 74.8307 21.8968 74.7926C21.6211 74.7545 21.3629 74.6356 21.1549 74.4508C20.9468 74.266 20.7983 74.0238 20.728 73.7547C20.6578 73.4855 20.6689 73.2016 20.7602 72.9389C20.8514 72.6761 21.0186 72.4463 21.2405 72.2784C21.4625 72.1106 21.7293 72.0123 22.0071 71.996C22.285 71.9797 22.5615 72.0461 22.8016 72.1868C23.1234 72.3755 23.3571 72.6841 23.4513 73.0449C23.5455 73.4056 23.4924 73.789 23.3038 74.1107ZM23.0189 71.166L23.0679 71.1859L23.0189 71.166ZM24.3558 74.2537C24.5581 73.7201 24.5651 73.1322 24.3758 72.5939C24.1864 72.0556 23.8128 71.6015 23.321 71.3116L23.268 71.2838L26.5806 63.3873C27.8411 63.8777 29.2084 64.0291 30.5458 63.8262C31.8832 63.6234 33.1439 63.0734 34.202 62.2312C35.2601 61.389 36.0785 60.2842 36.5754 59.027C37.0724 57.7698 37.2305 56.4043 37.0339 55.067L50.2341 52.7777C50.7211 55.1469 51.979 57.2884 53.8117 58.8683L40.1186 75.0216C39.4109 74.4547 38.5786 74.0637 37.6902 73.8809C36.8017 73.698 35.8826 73.7285 35.0082 73.9698C34.1339 74.2112 33.3294 74.6564 32.6608 75.269C31.9923 75.8816 31.4788 76.6441 31.1626 77.4936L24.3558 74.2537ZM24.1836 74.6191C24.218 74.5595 24.2498 74.4986 24.279 74.4377C24.2485 74.4986 24.218 74.5595 24.1836 74.6191ZM34.8489 82.3555C34.2698 82.0162 33.8069 81.5101 33.5208 80.9033C33.2347 80.2965 33.1387 79.6175 33.2456 78.9553C33.2694 78.8089 33.303 78.6643 33.3463 78.5224C33.5099 77.9753 33.8116 77.4795 34.2224 77.0826C34.6331 76.6857 35.1391 76.401 35.6918 76.256C36.2445 76.1109 36.8252 76.1104 37.3781 76.2544C37.931 76.3984 38.4376 76.6821 38.8491 77.0782C39.2606 77.4743 39.5633 77.9696 39.7279 78.5163C39.8926 79.063 39.9137 79.6429 39.7893 80.2002C39.6649 80.7575 39.3991 81.2734 39.0175 81.6984C38.6359 82.1234 38.1513 82.4431 37.6103 82.6269C37.1577 82.7833 36.6765 82.8401 36.1999 82.7932C35.7232 82.7464 35.2624 82.597 34.8489 82.3555ZM49.3463 97.1847C49.1201 97.5676 48.7855 97.875 48.3846 98.0681C47.9838 98.2612 47.5347 98.3313 47.094 98.2696C46.6533 98.2079 46.2408 98.0172 45.9085 97.7215C45.5762 97.4258 45.3389 97.0384 45.2267 96.6081C45.1145 96.1779 45.1323 95.724 45.278 95.3039C45.4236 94.8837 45.6905 94.5161 46.045 94.2473C46.3995 93.9786 46.8257 93.8207 47.2698 93.7938C47.714 93.7668 48.1562 93.8719 48.5407 94.0957C48.7972 94.2451 49.0216 94.4437 49.201 94.68C49.3805 94.9164 49.5114 95.1858 49.5863 95.4729C49.6611 95.7599 49.6785 96.059 49.6373 96.3527C49.5961 96.6465 49.4972 96.9293 49.3463 97.1847ZM49.9783 93.1332C49.3392 92.5672 48.5314 92.2271 47.6796 92.1654C46.8278 92.1036 45.9794 92.3237 45.2651 92.7916L39.4097 84.4501C40.1554 84.0183 40.794 83.4241 41.278 82.7116C41.7621 81.9992 42.0791 81.1868 42.2056 80.335L54.253 80.4608C54.36 82.6759 55.2644 84.7778 56.7997 86.3792L49.9783 93.1332ZM42.2361 80.098V80.1324V80.098ZM60.7325 84.6209C60.4134 84.4342 60.1146 84.215 59.8407 83.9668C59.7347 83.8702 59.634 83.7709 59.5373 83.6676C58.7252 82.7994 58.2263 81.6853 58.1195 80.5018C58.1133 80.4312 58.108 80.3606 58.1036 80.29C58.1036 80.282 58.1036 80.2754 58.1036 80.2675C58.1036 80.2013 58.1036 80.1351 58.1036 80.0675C58.0927 78.7724 58.5543 77.5177 59.402 76.5378C60.2496 75.558 61.4254 74.9202 62.7094 74.7436L62.9201 74.7184H62.94C63.0062 74.7184 63.0725 74.7065 63.1388 74.7025C64.1875 74.6423 65.2306 74.8944 66.136 75.4268C66.3129 75.5308 66.4837 75.6448 66.6475 75.7684C66.7641 75.8566 66.8763 75.948 66.9841 76.0424C67.6083 76.5988 68.0931 77.2938 68.3994 78.0716C68.7058 78.8493 68.8251 79.6881 68.7477 80.5204C68.7353 80.6466 68.719 80.7728 68.6987 80.899C68.5741 81.6475 68.2911 82.3607 67.8686 82.9912C67.4461 83.6216 66.8938 84.1546 66.2486 84.5547C66.1903 84.5909 66.1312 84.6258 66.0711 84.6593L66.0565 84.6673C65.9956 84.7017 65.9337 84.7348 65.871 84.7666C65.0715 85.1768 64.1811 85.3784 63.2827 85.3524C62.3842 85.3265 61.507 85.074 60.7325 84.6183V84.6209ZM97.4456 84.2091C97.199 84.637 96.8183 84.972 96.3624 85.1624C95.9064 85.3528 95.4004 85.3881 94.9224 85.2629C94.4444 85.1376 94.0208 84.8588 93.717 84.4693C93.4132 84.0798 93.2461 83.6013 93.2412 83.1075C93.2345 82.7832 93.2979 82.4612 93.4273 82.1636C93.5566 81.866 93.7488 81.5999 93.9907 81.3835C94.2326 81.1671 94.5184 81.0055 94.8286 80.9097C95.1389 80.814 95.4661 80.7864 95.788 80.8288C95.9317 80.8478 96.0733 80.8806 96.2107 80.9268C96.5304 81.0321 96.8225 81.2076 97.0654 81.4405C97.3084 81.6734 97.496 81.9577 97.6144 82.2726C97.7329 82.5875 97.7792 82.9249 97.75 83.26C97.7208 83.5951 97.6168 83.9195 97.4456 84.2091ZM98.2314 70.2524L96.1564 79.236C95.6428 79.148 95.1168 79.164 94.6095 79.2829C94.1022 79.4019 93.624 79.6214 93.2032 79.9285C92.7824 80.2356 92.4276 80.624 92.1599 81.0707C91.8921 81.5174 91.7169 82.0133 91.6446 82.5289L72.5877 80.8077C72.7124 79.3518 72.488 77.8873 71.9331 76.5354C71.3782 75.1835 70.5088 73.9833 69.397 73.0342L82.4686 56.8174C82.5331 56.8597 82.5989 56.9008 82.666 56.9405C83.4872 57.4215 84.4421 57.6241 85.3881 57.5182C86.334 57.4122 87.2203 57.0034 87.9145 56.3526L95.8304 63.3131C95.3903 63.8908 95.0998 64.5682 94.9848 65.2851C94.8699 66.002 94.934 66.7362 95.1714 67.4224C95.4089 68.1086 95.8124 68.7255 96.346 69.2183C96.8796 69.7111 97.5268 70.0645 98.2301 70.2471L98.2314 70.2524ZM101.544 67.2813C101.295 67.7048 100.93 68.0478 100.491 68.2692C100.052 68.4906 99.559 68.5811 99.0702 68.5298C99.0012 68.5232 98.9376 68.5126 98.8621 68.4994H98.8515C98.7817 68.4861 98.7119 68.4698 98.6422 68.4504C98.264 68.3461 97.9149 68.156 97.6222 67.895C97.3295 67.6339 97.1009 67.309 96.9543 66.9454C96.8076 66.5817 96.7469 66.1892 96.7767 65.7983C96.8065 65.4074 96.9262 65.0286 97.1263 64.6914C97.1568 64.6411 97.1899 64.5935 97.223 64.5458C97.2562 64.4981 97.3052 64.4306 97.3555 64.3763L97.3648 64.3644C97.4085 64.3101 97.4549 64.2585 97.4973 64.2082C97.7583 63.9389 98.0752 63.7302 98.4258 63.5968C98.7763 63.4634 99.1519 63.4086 99.526 63.4362C99.5966 63.4415 99.6673 63.4495 99.738 63.4601H99.7526C99.8201 63.4707 99.8851 63.4839 99.954 63.5011C100.34 63.5967 100.699 63.7811 101.002 64.0397C101.305 64.2983 101.542 64.6239 101.697 64.9907C101.851 65.3574 101.918 65.7551 101.891 66.1521C101.865 66.549 101.746 66.9343 101.544 67.2773V67.2813ZM100.761 53.8886L99.7685 61.5932C99.0934 61.528 98.4124 61.6191 97.7782 61.8592C97.144 62.0994 96.5736 62.4823 96.1113 62.9781L88.218 56.0375C88.6869 55.502 89.0189 54.8609 89.1855 54.1691C89.3522 53.4773 89.3484 52.7554 89.1747 52.0654L95.5349 49.6821C95.9676 50.775 96.6765 51.7371 97.5925 52.4743C98.5084 53.2116 99.6001 53.6989 100.761 53.8886ZM105.266 49.175C104.854 49.8769 104.235 50.4346 103.494 50.7716C102.753 51.1086 101.926 51.2086 101.125 51.0578C100.478 50.9358 99.8708 50.6538 99.36 50.2375C98.8492 49.8213 98.4508 49.284 98.2009 48.6745C98.1735 48.6083 98.1484 48.5412 98.1254 48.4732C98.1024 48.4062 98.0812 48.3382 98.0618 48.2693C97.8452 47.5112 97.861 46.7056 98.1071 45.9565C98.3532 45.2074 98.8184 44.5492 99.4425 44.0668C99.499 44.0227 99.5564 43.9786 99.6148 43.9344C99.6739 43.8938 99.734 43.8545 99.795 43.8166C100.546 43.3579 101.429 43.1632 102.304 43.2633C103.179 43.3633 103.995 43.7525 104.623 44.3689C105.252 44.9854 105.656 45.7938 105.772 46.666C105.888 47.5381 105.709 48.424 105.263 49.1829L105.266 49.175Z" fill="#171F2A"/>
<path d="M103.569 44.2707C103.479 44.2317 103.379 44.2268 103.286 44.2571C103.193 44.2873 103.115 44.3505 103.066 44.4347C103.017 44.5189 103.001 44.6182 103.02 44.7136C103.039 44.8091 103.093 44.8942 103.171 44.9526C103.764 45.2995 104.194 45.8672 104.368 46.5311C104.542 47.1949 104.445 47.9005 104.099 48.4931C104.065 48.5379 104.041 48.5894 104.029 48.644C104.017 48.6987 104.016 48.7553 104.027 48.8102C104.038 48.8651 104.061 48.917 104.094 48.9626C104.126 49.0081 104.168 49.0462 104.217 49.0744C104.265 49.1026 104.319 49.1203 104.375 49.1262C104.431 49.1321 104.487 49.1262 104.54 49.1088C104.594 49.0914 104.643 49.063 104.684 49.0253C104.726 48.9876 104.759 48.9416 104.781 48.8903C105.232 48.1167 105.358 47.196 105.13 46.3301C104.903 45.4641 104.342 44.7235 103.569 44.2707Z" fill="#171F2A"/>
<path d="M66.4474 81.7873C66.4119 81.8481 66.3888 81.9154 66.3793 81.9852C66.3698 82.055 66.3741 82.1259 66.3921 82.1941C66.4101 82.2622 66.4413 82.3261 66.484 82.3821C66.5266 82.4382 66.5799 82.4853 66.6408 82.5208C66.7017 82.5562 66.769 82.5794 66.8389 82.5889C66.9087 82.5984 66.9798 82.594 67.0479 82.576C67.1161 82.5581 67.18 82.5269 67.2361 82.4843C67.2922 82.4416 67.3394 82.3883 67.3749 82.3275C67.9861 81.2835 68.1579 80.0399 67.8526 78.8696C67.5473 77.6992 66.7899 76.6976 65.7465 76.0847C65.6235 76.0131 65.4771 75.9932 65.3394 76.0294C65.2018 76.0657 65.0842 76.1551 65.0125 76.278C64.9408 76.4009 64.9209 76.5472 64.9572 76.6848C64.9935 76.8223 65.0829 76.9399 65.2059 77.0115C66.0027 77.4817 66.5807 78.2482 66.8134 79.1432C67.046 80.0383 66.9144 80.989 66.4474 81.7873Z" fill="#171F2A"/>
<path d="M56.7427 14.542C57.2528 14.8421 57.6229 15.332 57.7719 15.9044C57.921 16.4768 57.8368 17.0849 57.5378 17.5953C57.5117 17.6339 57.4938 17.6775 57.4853 17.7234C57.4767 17.7692 57.4776 17.8163 57.4879 17.8617C57.4983 17.9072 57.5178 17.9501 57.5453 17.9877C57.5729 18.0254 57.6078 18.057 57.6481 18.0806C57.6883 18.1042 57.7329 18.1194 57.7792 18.1251C57.8255 18.1308 57.8725 18.127 57.9173 18.114C57.9621 18.1009 58.0037 18.0788 58.0396 18.049C58.0755 18.0192 58.1049 17.9824 58.1261 17.9408C58.3198 17.6108 58.4465 17.2459 58.4991 16.867C58.5517 16.488 58.529 16.1024 58.4324 15.7322C58.3358 15.362 58.1672 15.0144 57.9362 14.7093C57.7051 14.4042 57.4162 14.1476 57.0859 13.9541C57.0472 13.9281 57.0036 13.9102 56.9577 13.9017C56.9119 13.8931 56.8647 13.894 56.8192 13.9044C56.7737 13.9147 56.7308 13.9342 56.6932 13.9617C56.6555 13.9892 56.6239 14.0242 56.6002 14.0644C56.5766 14.1046 56.5614 14.1492 56.5557 14.1954C56.55 14.2417 56.5538 14.2886 56.5669 14.3334C56.58 14.3781 56.6021 14.4197 56.6319 14.4556C56.6617 14.4915 56.6985 14.5209 56.7401 14.542H56.7427Z" fill="#171F2A"/>
<path d="M29.5845 29.0587C30.036 29.3256 30.3636 29.76 30.4959 30.2672C30.6282 30.7744 30.5544 31.3133 30.2908 31.7664C30.267 31.8007 30.2506 31.8396 30.2426 31.8805C30.2346 31.9215 30.2351 31.9636 30.2441 32.0043C30.2531 32.0451 30.2705 32.0835 30.295 32.1173C30.3196 32.151 30.3509 32.1793 30.3869 32.2004C30.4229 32.2215 30.4629 32.2349 30.5044 32.2399C30.5458 32.2448 30.5879 32.2412 30.6278 32.2292C30.6678 32.2171 30.7049 32.197 30.7367 32.17C30.7686 32.143 30.7945 32.1097 30.8128 32.0723C31.1586 31.4802 31.2552 30.7753 31.0813 30.1123C30.9073 29.4492 30.4772 28.8822 29.8853 28.5357C29.851 28.512 29.8121 28.4956 29.7711 28.4876C29.7301 28.4796 29.6879 28.4801 29.6472 28.4891C29.6064 28.4981 29.5679 28.5154 29.5342 28.54C29.5004 28.5645 29.4721 28.5958 29.451 28.6318C29.4299 28.6678 29.4164 28.7077 29.4114 28.7492C29.4065 28.7906 29.4101 28.8326 29.4222 28.8726C29.4342 28.9125 29.4544 28.9495 29.4814 28.9814C29.5084 29.0132 29.5417 29.0391 29.5792 29.0574L29.5845 29.0587Z" fill="#171F2A"/>
<path d="M86.0066 51.2538C85.9479 51.2187 85.8776 51.2083 85.8113 51.2249C85.7449 51.2416 85.6879 51.2838 85.6527 51.3425C85.6176 51.4011 85.6072 51.4713 85.6238 51.5376C85.6405 51.6039 85.6828 51.6609 85.7415 51.696C86.1251 51.9213 86.4035 52.2894 86.5158 52.7196C86.6281 53.1497 86.565 53.6068 86.3405 53.9906C86.3231 54.0196 86.3116 54.0518 86.3066 54.0853C86.3017 54.1187 86.3034 54.1529 86.3116 54.1857C86.3199 54.2185 86.3345 54.2494 86.3547 54.2766C86.3749 54.3038 86.4002 54.3267 86.4293 54.3441C86.4584 54.3615 86.4906 54.373 86.5241 54.3779C86.5576 54.3829 86.5917 54.3812 86.6246 54.3729C86.6574 54.3647 86.6884 54.3501 86.7156 54.3299C86.7428 54.3097 86.7657 54.2844 86.7831 54.2554C86.9295 54.0074 87.0255 53.733 87.0657 53.4479C87.1059 53.1628 87.0895 52.8725 87.0174 52.5938C86.9453 52.315 86.8189 52.0532 86.6454 51.8233C86.472 51.5933 86.2549 51.3998 86.0066 51.2538Z" fill="#171F2A"/>
<path d="M100.19 64.5391C100.573 64.7644 100.852 65.1325 100.964 65.5626C101.076 65.9928 101.013 66.4498 100.789 66.8336C100.753 66.8922 100.743 66.9624 100.76 67.0287C100.776 67.095 100.819 67.152 100.877 67.1871C100.936 67.2222 101.006 67.2326 101.073 67.216C101.139 67.1993 101.196 67.157 101.231 67.0984C101.525 66.5974 101.607 66.0004 101.461 65.4387C101.314 64.8769 100.95 64.3962 100.449 64.1022C100.391 64.067 100.32 64.0567 100.254 64.0733C100.188 64.0899 100.131 64.1322 100.096 64.1909C100.06 64.2495 100.05 64.3197 100.067 64.386C100.083 64.4523 100.126 64.5093 100.184 64.5444L100.19 64.5391Z" fill="#171F2A"/>
<path d="M96.1655 81.4803C96.1351 81.5321 96.1266 81.5938 96.1417 81.6519C96.1569 81.71 96.1945 81.7597 96.2464 81.7901C96.5852 81.9884 96.8314 82.313 96.9308 82.6926C97.0302 83.0722 96.9747 83.4757 96.7764 83.8144C96.7611 83.8401 96.7509 83.8685 96.7466 83.8981C96.7423 83.9277 96.7439 83.9579 96.7513 83.9869C96.7587 84.0158 96.7718 84.043 96.7898 84.0669C96.8078 84.0908 96.8304 84.1109 96.8562 84.1261C96.882 84.1412 96.9106 84.1511 96.9403 84.1551C96.9699 84.1591 97.0001 84.1572 97.029 84.1496C97.058 84.1419 97.0851 84.1286 97.1088 84.1104C97.1326 84.0921 97.1525 84.0694 97.1674 84.0435C97.2964 83.8245 97.3809 83.5822 97.4161 83.3305C97.4512 83.0788 97.4364 82.8227 97.3724 82.5767C97.3084 82.3308 97.1965 82.0999 97.043 81.8972C96.8896 81.6945 96.6977 81.524 96.4783 81.3955C96.4523 81.3802 96.4234 81.3703 96.3935 81.3663C96.3636 81.3623 96.3332 81.3643 96.3041 81.3722C96.2749 81.38 96.2477 81.3937 96.2239 81.4122C96.2001 81.4308 96.1803 81.4539 96.1655 81.4803Z" fill="#171F2A"/>
<path d="M48.3763 94.3751C48.3507 94.3597 48.3222 94.3496 48.2926 94.3453C48.2629 94.3409 48.2328 94.3425 48.2038 94.35C48.1748 94.3574 48.1475 94.3704 48.1236 94.3884C48.0997 94.4064 48.0796 94.429 48.0645 94.4548C48.0493 94.4806 48.0394 94.5091 48.0354 94.5387C48.0314 94.5684 48.0332 94.5985 48.0409 94.6274C48.0486 94.6563 48.0619 94.6834 48.0802 94.7072C48.0984 94.7309 48.1211 94.7508 48.1471 94.7657C48.4859 94.964 48.7321 95.2886 48.8315 95.6683C48.9309 96.0479 48.8753 96.4514 48.6771 96.7901C48.6617 96.8158 48.6516 96.8442 48.6473 96.8738C48.643 96.9034 48.6446 96.9335 48.652 96.9625C48.6594 96.9915 48.6725 97.0187 48.6905 97.0426C48.7085 97.0665 48.7311 97.0866 48.7569 97.1017C48.7827 97.1169 48.8113 97.1267 48.8409 97.1308C48.8706 97.1348 48.9008 97.1329 48.9297 97.1252C48.9586 97.1176 48.9857 97.1042 49.0095 97.086C49.0332 97.0678 49.0531 97.0451 49.068 97.0191C49.327 96.5768 49.3997 96.0498 49.27 95.554C49.1403 95.0582 48.8188 94.6342 48.3763 94.3751Z" fill="#171F2A"/>
<path d="M38.4147 80.5931C38.3898 80.6309 38.3729 80.6734 38.365 80.7179C38.3571 80.7624 38.3583 80.8081 38.3686 80.8521C38.3789 80.8962 38.398 80.9377 38.4248 80.9741C38.4516 81.0105 38.4856 81.0411 38.5246 81.064C38.5636 81.0869 38.6069 81.1017 38.6518 81.1074C38.6967 81.113 38.7423 81.1095 38.7858 81.0971C38.8293 81.0846 38.8698 81.0634 38.9049 81.0349C38.9399 81.0063 38.9688 80.9709 38.9898 80.9308C39.3713 80.2791 39.4785 79.5029 39.288 78.7724C39.0974 78.0419 38.6247 77.4167 37.9734 77.034C37.9356 77.0092 37.8931 76.9923 37.8486 76.9844C37.804 76.9765 37.7583 76.9777 37.7142 76.988C37.6702 76.9982 37.6286 77.0174 37.5922 77.0442C37.5557 77.071 37.5251 77.1049 37.5022 77.1439C37.4793 77.1829 37.4645 77.2261 37.4588 77.271C37.4531 77.3158 37.4566 77.3614 37.4691 77.4049C37.4816 77.4483 37.5028 77.4888 37.5314 77.5239C37.56 77.5589 37.5954 77.5878 37.6355 77.6087C38.1344 77.9017 38.4966 78.3804 38.6427 78.9399C38.7888 79.4994 38.7068 80.094 38.4147 80.5931Z" fill="#171F2A"/>
<path d="M49.838 33.0269C50.2215 33.2522 50.4999 33.6203 50.6122 34.0505C50.7244 34.4806 50.6614 34.9377 50.4369 35.3215C50.4195 35.3505 50.408 35.3827 50.403 35.4162C50.3981 35.4497 50.3998 35.4838 50.408 35.5166C50.4163 35.5495 50.4309 35.5803 50.4511 35.6075C50.4713 35.6347 50.4966 35.6576 50.5257 35.675C50.5547 35.6924 50.5869 35.7039 50.6204 35.7088C50.6539 35.7138 50.6881 35.7121 50.7209 35.7039C50.7538 35.6956 50.7847 35.681 50.8119 35.6608C50.8391 35.6407 50.862 35.6153 50.8794 35.5863C51.1729 35.0853 51.2554 34.4883 51.1089 33.9265C50.9623 33.3647 50.5986 32.884 50.0977 32.59C50.039 32.5548 49.9688 32.5445 49.9024 32.5611C49.8361 32.5777 49.7791 32.62 49.7439 32.6787C49.7088 32.7373 49.6984 32.8075 49.715 32.8738C49.7317 32.9401 49.774 32.9971 49.8327 33.0322L49.838 33.0269Z" fill="#171F2A"/>
<path d="M30.8657 53.6516C31.5379 54.0467 32.0258 54.692 32.2225 55.446C32.4192 56.2001 32.3087 57.0013 31.9151 57.674C31.8853 57.725 31.8658 57.7813 31.8577 57.8398C31.8497 57.8982 31.8532 57.9577 31.8681 58.0148C31.8831 58.072 31.9092 58.1256 31.9448 58.1726C31.9805 58.2197 32.0251 58.2592 32.0761 58.289C32.1271 58.3189 32.1835 58.3384 32.242 58.3464C32.3005 58.3545 32.36 58.3509 32.4172 58.336C32.4743 58.321 32.528 58.295 32.5751 58.2593C32.6222 58.2237 32.6618 58.1791 32.6916 58.1282C33.2065 57.25 33.3515 56.2035 33.0946 55.2185C32.8376 54.2336 32.1999 53.3909 31.3215 52.8757C31.2185 52.8154 31.0958 52.7985 30.9804 52.8287C30.865 52.8589 30.7663 52.9336 30.706 53.0365C30.6458 53.1394 30.6289 53.262 30.6591 53.3774C30.6892 53.4927 30.7641 53.5913 30.867 53.6516H30.8657Z" fill="#171F2A"/>
<path d="M22.6994 72.3629C22.667 72.344 22.6285 72.3386 22.5922 72.3481C22.5559 72.3575 22.5249 72.3809 22.5059 72.4133C22.4869 72.4456 22.4816 72.4841 22.491 72.5203C22.5005 72.5566 22.5239 72.5876 22.5563 72.6066C22.7659 72.7313 22.918 72.9335 22.9795 73.1695C23.041 73.4054 23.007 73.6561 22.8849 73.8672C22.8755 73.8832 22.8693 73.9009 22.8668 73.9193C22.8642 73.9376 22.8653 73.9563 22.87 73.9743C22.8747 73.9922 22.8828 74.0091 22.894 74.0239C22.9052 74.0387 22.9192 74.0511 22.9352 74.0605C22.9512 74.0699 22.9689 74.0761 22.9873 74.0786C23.0057 74.0812 23.0244 74.0801 23.0424 74.0754C23.0603 74.0707 23.0772 74.0626 23.092 74.0514C23.1068 74.0402 23.1193 74.0262 23.1287 74.0102C23.29 73.7348 23.3354 73.4067 23.2549 73.0979C23.1744 72.789 22.9746 72.5247 22.6994 72.3629Z" fill="#171F2A"/>
<path d="M74.6255 96.8828C74.8936 97.0404 75.0883 97.2979 75.1667 97.5987C75.2452 97.8995 75.2012 98.2192 75.0442 98.4876C75.0201 98.5287 75.0134 98.5776 75.0254 98.6237C75.0375 98.6697 75.0674 98.7091 75.1085 98.7332C75.1496 98.7573 75.1986 98.764 75.2447 98.752C75.2908 98.7399 75.3302 98.7101 75.3543 98.669C75.5594 98.3184 75.617 97.9008 75.5144 97.5079C75.4118 97.1149 75.1574 96.7787 74.807 96.5729C74.7867 96.561 74.7642 96.5532 74.7408 96.55C74.7174 96.5468 74.6936 96.5482 74.6708 96.5542C74.648 96.5601 74.6266 96.5705 74.6078 96.5848C74.589 96.599 74.5732 96.6168 74.5612 96.6372C74.5493 96.6575 74.5415 96.68 74.5383 96.7033C74.5351 96.7267 74.5365 96.7505 74.5425 96.7733C74.5484 96.7961 74.5588 96.8175 74.5731 96.8363C74.5873 96.8551 74.6051 96.8709 74.6255 96.8828Z" fill="#171F2A"/>
</svg>
