<svg width="60" height="54" viewBox="0 0 60 54" fill="none" xmlns="http://www.w3.org/2000/svg">
<path d="M29.5752 22.0291C30.0228 22.2923 30.3477 22.7223 30.4785 23.2248C30.6094 23.7273 30.5356 24.2611 30.2733 24.7092C30.2534 24.7432 30.2404 24.7807 30.235 24.8197C30.2296 24.8586 30.2319 24.8983 30.2418 24.9363C30.2517 24.9744 30.269 25.0101 30.2928 25.0415C30.3165 25.0729 30.3462 25.0993 30.3801 25.1192C30.4141 25.1391 30.4516 25.1521 30.4905 25.1575C30.5295 25.1629 30.5691 25.1606 30.6072 25.1507C30.6453 25.1407 30.681 25.1234 30.7124 25.0997C30.7438 25.076 30.7702 25.0463 30.7901 25.0123C31.1323 24.4268 31.2283 23.7294 31.0568 23.0732C30.8854 22.417 30.4607 21.8557 29.8758 21.5124C29.8073 21.4722 29.7256 21.4608 29.6487 21.4809C29.5718 21.5009 29.506 21.5507 29.4658 21.6192C29.4257 21.6877 29.4143 21.7694 29.4344 21.8463C29.4544 21.9232 29.5042 21.9889 29.5727 22.0291H29.5752Z" fill="#171F2A"/>
<path d="M41.8671 11.3415C42.2417 11.5617 42.5136 11.9216 42.6232 12.3421C42.7328 12.7626 42.6711 13.2094 42.4515 13.5844C42.4349 13.6129 42.424 13.6445 42.4196 13.6772C42.4151 13.71 42.4172 13.7433 42.4256 13.7752C42.434 13.8072 42.4487 13.8371 42.4687 13.8634C42.4887 13.8897 42.5137 13.9118 42.5422 13.9285C42.5708 13.9451 42.6023 13.956 42.6351 13.9604C42.6678 13.9649 42.7011 13.9628 42.7331 13.9544C42.765 13.946 42.795 13.9314 42.8213 13.9113C42.8476 13.8913 42.8697 13.8663 42.8863 13.8378C43.1728 13.3481 43.2534 12.7647 43.1103 12.2157C42.9672 11.6666 42.6121 11.1968 42.123 10.9092C42.0944 10.8926 42.0629 10.8817 42.0301 10.8773C41.9974 10.8728 41.9641 10.8749 41.9321 10.8833C41.9002 10.8917 41.8702 10.9064 41.8439 10.9264C41.8176 10.9464 41.7955 10.9714 41.7789 10.9999C41.7622 11.0285 41.7514 11.06 41.7469 11.0928C41.7425 11.1255 41.7445 11.1588 41.7529 11.1907C41.7614 11.2227 41.776 11.2527 41.796 11.279C41.816 11.3053 41.841 11.3274 41.8695 11.344L41.8671 11.3415Z" fill="#171F2A"/>
<path d="M49.3596 19.3835C48.8476 19.0831 48.2619 18.9316 47.6685 18.946C47.0751 18.9604 46.4975 19.14 46.0006 19.4648L43.6515 16.1804C44.1836 15.7751 44.6141 15.2515 44.9087 14.651C45.2034 14.0505 45.3543 13.3897 45.3493 12.7209C45.3444 12.052 45.1838 11.3935 44.8802 10.7975C44.5767 10.2014 44.1386 9.68424 43.6005 9.28686C43.0625 8.88949 42.4393 8.62283 41.7804 8.50801C41.1214 8.39319 40.4448 8.43336 39.8041 8.62534C39.1633 8.81731 38.5761 9.15583 38.0889 9.61407C37.6016 10.0723 37.2278 10.6377 36.9969 11.2655L28.7292 8.42261C28.8648 7.90593 28.8471 7.36093 28.6782 6.85416C28.5093 6.34738 28.1964 5.90075 27.7779 5.56879C27.3594 5.23684 26.8533 5.03391 26.3214 4.9848C25.7894 4.93568 25.2547 5.0425 24.7825 5.29221C24.3102 5.54192 23.9209 5.92372 23.6621 6.391C23.4032 6.85827 23.286 7.39081 23.3247 7.92359C23.3635 8.45637 23.5565 8.96635 23.8802 9.39126C24.204 9.81617 24.6444 10.1376 25.1478 10.3164L23.6304 14.2145C23.356 14.1213 23.0651 14.0867 22.7765 14.113C22.4879 14.1394 22.208 14.2261 21.9551 14.3675C21.7021 14.5089 21.4817 14.7019 21.308 14.934C21.1344 15.166 21.0115 15.4319 20.9472 15.7145L15.8099 14.8034C15.8854 14.3113 15.8087 13.808 15.5899 13.3609C15.3712 12.9137 15.021 12.5442 14.5862 12.3018C14.1515 12.0594 13.653 11.9557 13.1576 12.0047C12.6623 12.0537 12.1938 12.253 11.8149 12.5758C11.4361 12.8987 11.165 13.3297 11.0381 13.811C10.9112 14.2923 10.9345 14.8009 11.1049 15.2686C11.2753 15.7363 11.5846 16.1407 11.9914 16.4276C12.3982 16.7145 12.883 16.8701 13.3807 16.8735L13.5671 22.7406C12.7902 22.7846 12.0482 23.0773 11.4506 23.5757C10.853 24.074 10.4317 24.7514 10.2489 25.5077C10.0661 26.264 10.1316 27.0591 10.4357 27.7753C10.7397 28.4915 11.2662 29.0909 11.9373 29.4847C12.0448 29.5477 12.1555 29.6051 12.2689 29.6568L10.7162 33.3568C10.5131 33.2879 10.2948 33.2779 10.0863 33.3279C9.87787 33.3779 9.68781 33.4859 9.53812 33.6393C9.38842 33.7928 9.2852 33.9855 9.24038 34.1951C9.19556 34.4047 9.21097 34.6228 9.28483 34.824C9.35868 35.0253 9.48798 35.2015 9.65776 35.3324C9.82755 35.4632 10.0309 35.5434 10.2443 35.5636C10.4577 35.5838 10.6725 35.5432 10.8638 35.4464C11.0551 35.3497 11.2152 35.2009 11.3255 35.017L14.5385 36.5456C14.3945 37.0445 14.3979 37.5744 14.5485 38.0713C14.6991 38.5683 14.9904 39.011 15.3871 39.346C15.7838 39.681 16.2691 39.8939 16.7842 39.9591C17.2994 40.0243 17.8224 39.9389 18.2901 39.7133L21.0559 43.6493C20.7757 43.8816 20.5715 44.1923 20.4694 44.5416C20.3673 44.8909 20.372 45.2628 20.483 45.6094C20.5939 45.9559 20.8061 46.2614 21.0921 46.4864C21.3781 46.7115 21.7248 46.8458 22.0878 46.8721C22.4508 46.8984 22.8133 46.8155 23.1288 46.6341C23.4442 46.4527 23.6982 46.1811 23.858 45.8541C24.0179 45.5272 24.0762 45.1599 24.0256 44.7995C23.9749 44.4391 23.8176 44.1022 23.5739 43.8319L26.7714 40.6642C27.4345 41.2938 28.2808 41.6959 29.1877 41.8122C30.0946 41.9286 31.015 41.7532 31.8155 41.3114L33.8888 44.7276C33.5784 44.9391 33.3621 45.2629 33.2857 45.6307C33.2093 45.9985 33.2786 46.3816 33.4791 46.6993C33.6796 47.017 33.9956 47.2445 34.3605 47.3338C34.7254 47.4231 35.1107 47.3672 35.4353 47.178C35.7598 46.9888 35.9982 46.681 36.1003 46.3194C36.2023 45.9579 36.16 45.5708 35.9823 45.2399C35.8046 44.9089 35.5054 44.6598 35.1476 44.5451C34.7899 44.4305 34.4016 44.4591 34.0646 44.6251L31.9913 41.2089C32.5354 40.8742 32.9983 40.4228 33.3467 39.8874C33.695 39.3519 33.9201 38.7457 34.0056 38.1127L42.9435 38.9201C42.9343 39.2607 43.0208 39.5971 43.1932 39.891C43.3655 40.185 43.6167 40.4247 43.9184 40.5831C44.2201 40.7415 44.5601 40.8121 44.9 40.787C45.2398 40.762 45.5657 40.6422 45.8409 40.4412C46.1161 40.2403 46.3294 39.9662 46.4567 39.6502C46.584 39.3341 46.6202 38.9887 46.5612 38.6531C46.5022 38.3176 46.3503 38.0052 46.1227 37.7516C45.8952 37.498 45.6011 37.3132 45.2739 37.2183L46.2472 33.0002C46.7835 33.088 47.3328 32.9611 47.7762 32.6469C48.2196 32.3327 48.5214 31.8566 48.6164 31.3215C48.7113 30.7865 48.5918 30.2355 48.2836 29.788C47.9753 29.3404 47.5033 29.0322 46.9695 28.9301L47.4354 25.3127C48.1589 25.3838 48.8851 25.2057 49.4936 24.8076C50.102 24.4096 50.5562 23.8157 50.7809 23.1242C51.0056 22.4327 50.9873 21.6853 50.729 21.0056C50.4707 20.326 49.988 19.755 49.3608 19.3872L49.3596 19.3835ZM35.1273 45.199C35.2828 45.2904 35.4046 45.4294 35.4749 45.5954C35.5452 45.7615 35.5601 45.9458 35.5174 46.121C35.4747 46.2962 35.3768 46.4529 35.238 46.5681C35.0993 46.6833 34.9271 46.7507 34.7471 46.7603C34.567 46.77 34.3887 46.7214 34.2384 46.6218C34.0881 46.5221 33.9739 46.3767 33.9127 46.2071C33.8516 46.0375 33.8466 45.8527 33.8987 45.6801C33.9508 45.5074 34.0571 45.3562 34.2019 45.2487C34.2285 45.2292 34.2562 45.2113 34.2851 45.1953L34.2938 45.1909C34.3216 45.1756 34.3502 45.1617 34.3795 45.1493C34.4994 45.099 34.6295 45.0773 34.7593 45.0859C34.8891 45.0945 35.0151 45.1332 35.1273 45.199ZM45.8335 19.581C45.3019 19.9796 44.908 20.5342 44.7067 21.1674C44.5053 21.8006 44.5067 22.4809 44.7105 23.1133L41.7391 24.2301C41.6149 23.8844 41.4009 23.5781 41.119 23.3426C40.8371 23.1071 40.4976 22.951 40.1354 22.8903L40.7478 17.0518C41.7189 17.1156 42.6831 16.8499 43.4844 16.2978L45.8335 19.581ZM40.831 25.5369C40.7932 25.6011 40.7496 25.6616 40.7006 25.7176C40.6795 25.7419 40.6571 25.7655 40.6341 25.7878L40.6286 25.7934C40.6045 25.8166 40.5797 25.8386 40.554 25.8593C40.3644 26.0144 40.1318 26.1078 39.8875 26.1268C39.6432 26.1458 39.3989 26.0895 39.1876 25.9655C39.159 25.9487 39.1317 25.9301 39.105 25.9114C39.0782 25.8928 39.059 25.8773 39.0366 25.8593C38.9123 25.7574 38.8097 25.6315 38.7351 25.4891C38.6604 25.3468 38.6151 25.1909 38.6018 25.0307C38.6018 24.9978 38.5981 24.9648 38.5981 24.9313C38.5981 24.9313 38.5981 24.9313 38.5981 24.9276C38.5981 24.8936 38.5996 24.8599 38.6025 24.8263C38.6286 24.519 38.7724 24.2336 39.0038 24.0297C39.2353 23.8258 39.5365 23.7191 39.8447 23.7319C39.9126 23.7349 39.9801 23.7436 40.0466 23.758C40.248 23.8005 40.435 23.8943 40.5896 24.0303C40.7441 24.1663 40.8609 24.34 40.9286 24.5344C40.9861 24.6984 41.0072 24.8729 40.9903 25.0458C40.9735 25.2187 40.9191 25.3859 40.831 25.5357V25.5369ZM32.372 34.1344C32.2258 34.0212 32.0725 33.9175 31.913 33.8239C31.1704 33.3866 30.3133 33.1833 29.4534 33.2406L29.1081 28.8394C30.2481 28.723 31.3167 28.2294 32.1445 27.4368C32.9722 26.6443 33.5118 25.5982 33.6776 24.4642L37.7286 24.9307C37.7286 25.2383 37.7972 25.5421 37.9295 25.8198C38.0618 26.0976 38.2543 26.3424 38.4932 26.5363L32.372 34.1344ZM26.018 35.3586C25.6293 36.0198 25.4251 36.7731 25.4267 37.54L19.8068 37.4816C19.8351 37.0815 19.7736 36.6801 19.6268 36.3067C19.48 35.9334 19.2516 35.5976 18.9584 35.3239L25.3795 27.7462C25.5698 27.8978 25.7705 28.0358 25.9801 28.1593C26.8634 28.679 27.8822 28.922 28.905 28.8568L29.2503 33.2586C28.5852 33.3331 27.9467 33.5618 27.3856 33.9265C26.8245 34.2912 26.3562 34.7818 26.018 35.3593V35.3586ZM25.6522 24.2996C25.6466 24.2704 25.641 24.2412 25.636 24.2121C25.636 24.2046 25.636 24.1978 25.6323 24.1903C25.5491 23.6697 25.6051 23.1364 25.7945 22.6444C25.984 22.1525 26.3003 21.7194 26.7112 21.3891C26.7642 21.3477 26.8186 21.3063 26.8745 21.2648C27.2238 21.0219 27.6208 20.8561 28.0391 20.7785C28.1056 20.7661 28.1727 20.7555 28.2404 20.7475C28.7309 20.691 29.2277 20.757 29.6865 20.9394C30.1452 21.1218 30.5517 21.415 30.8696 21.7928C30.8903 21.8176 30.911 21.8427 30.9317 21.868C31.41 22.4759 31.6348 23.2453 31.559 24.0152C31.5524 24.0822 31.5435 24.1493 31.5323 24.2164C31.4248 24.8527 31.1143 25.4371 30.6471 25.8823C30.1799 26.3274 29.5811 26.6094 28.9404 26.686L28.8596 26.694H28.8248L28.7379 26.7003C28.1556 26.7309 27.5772 26.5896 27.0745 26.294C26.9719 26.2335 26.873 26.1669 26.7783 26.0947C26.724 26.0533 26.6714 26.0104 26.6205 25.9661C26.1467 25.5525 25.8158 24.9996 25.6751 24.3866C25.6669 24.3584 25.6592 24.3294 25.6522 24.2996ZM17.3211 25.6319C17.1726 24.9043 16.804 24.2399 16.2652 23.7288L21.6609 17.7773C22.0046 18.056 22.4287 18.2173 22.8708 18.2373C23.313 18.2573 23.7499 18.135 24.1174 17.8884L25.4261 19.6549C24.6935 20.2238 24.1284 20.9802 23.7904 21.8439C23.4524 22.7077 23.3542 23.6467 23.5062 24.5617L17.3211 25.635V25.6319ZM38.8584 16.4717C39.3757 16.7757 39.951 16.9678 40.5472 17.0357L39.9379 22.8673C39.4019 22.831 38.8729 23.0047 38.4628 23.3517C38.0527 23.6987 37.7938 24.1917 37.741 24.7263L33.7037 24.2617C33.7754 23.5803 33.7107 22.8915 33.5134 22.2354C33.3161 21.5792 32.9902 20.9689 32.5546 20.44L37.9143 15.7195C38.1921 16.0133 38.5099 16.2665 38.8584 16.4717ZM42.3031 10.599C42.6528 10.8043 42.9474 11.0916 43.1614 11.4361C43.3754 11.7807 43.5025 12.172 43.5316 12.5766C43.5606 12.9811 43.4909 13.3866 43.3284 13.7582C43.1659 14.1298 42.9155 14.4563 42.5987 14.7096C42.5722 14.7307 42.5455 14.7514 42.5186 14.7717C42.0615 15.1065 41.5046 15.2768 40.9385 15.2549C40.871 15.2524 40.8033 15.247 40.7354 15.2388C40.1813 15.171 39.6657 14.9202 39.2702 14.5263C39.2217 14.4779 39.1764 14.4276 39.1323 14.3766C38.8632 14.0597 38.6772 13.6808 38.5911 13.2741C38.505 12.8674 38.5215 12.4456 38.6391 12.0468C38.6582 11.9822 38.6801 11.9181 38.705 11.8543C38.8357 11.5163 39.0383 11.2108 39.2988 10.9589C39.5594 10.707 39.8715 10.5147 40.2137 10.3953C40.5559 10.276 40.9199 10.2325 41.2805 10.2677C41.6412 10.303 41.9899 10.4163 42.3025 10.5996L42.3031 10.599ZM28.7037 8.51329C28.7 8.52696 28.695 8.54 28.6913 8.55367L28.7037 8.51329ZM28.441 9.1164C28.5336 8.95876 28.6104 8.79231 28.6702 8.6195L36.931 11.4599C36.7102 12.1606 36.6721 12.906 36.8201 13.6256C36.9682 14.3452 37.2975 15.0151 37.777 15.5717L32.4223 20.2853C31.8632 19.661 31.16 19.1827 30.3739 18.8919C29.5878 18.6012 28.7426 18.5068 27.9118 18.617L26.6366 10.4183C27.0118 10.3394 27.3662 10.1828 27.6771 9.95857C27.9879 9.73434 28.2484 9.44745 28.4416 9.1164H28.441ZM25.2609 9.10211C24.9417 8.91475 24.6974 8.62235 24.5699 8.27489C24.4423 7.92742 24.4394 7.54644 24.5616 7.19705C24.6837 6.84766 24.9234 6.55154 25.2397 6.35928C25.556 6.16702 25.9293 6.09056 26.2957 6.14296C26.6621 6.19536 26.9989 6.37337 27.2487 6.64657C27.4984 6.91977 27.6455 7.27121 27.6649 7.64084C27.6842 8.01047 27.5746 8.37536 27.3548 8.67315C27.135 8.97094 26.8186 9.18316 26.4596 9.27354C26.4286 9.28099 26.3975 9.28783 26.3665 9.29404H26.3547C26.323 9.29963 26.2925 9.3046 26.2596 9.30832C26.0957 9.32785 25.9297 9.32177 25.7677 9.29031C25.7366 9.2841 25.7056 9.27727 25.6739 9.26919H25.6627C25.6317 9.26112 25.6006 9.2518 25.5689 9.24124C25.4616 9.20586 25.3584 9.15922 25.2609 9.10211ZM25.3416 10.3779C25.6968 10.4752 26.068 10.4999 26.4329 10.4506L27.7074 18.6493C26.9444 18.781 26.2207 19.0826 25.5901 19.5319L24.2807 17.7642C24.5368 17.5523 24.7381 17.2818 24.8674 16.9755C24.9967 16.6693 25.0504 16.3364 25.0237 16.0051C24.9971 15.6737 24.891 15.3537 24.7144 15.0721C24.5378 14.7904 24.296 14.5555 24.0093 14.3872C23.9479 14.3511 23.8847 14.3181 23.8199 14.2884L25.3416 10.3779ZM21.9255 15.5648C22.0623 15.332 22.2736 15.1522 22.5253 15.0543C22.777 14.9565 23.0543 14.9464 23.3124 15.0257C23.3435 15.035 23.3745 15.0462 23.4043 15.058H23.4106C23.4412 15.0704 23.4714 15.0841 23.5012 15.099C23.5236 15.1102 23.5466 15.1207 23.5683 15.1338C23.746 15.2381 23.8938 15.3865 23.9974 15.5646C24.101 15.7426 24.157 15.9444 24.1599 16.1504C24.1629 16.3564 24.1126 16.5597 24.0141 16.7407C23.9156 16.9216 23.7721 17.0741 23.5975 17.1835C23.4119 17.2997 23.198 17.3629 22.979 17.3662C22.76 17.3695 22.5443 17.3127 22.3553 17.2021C22.3169 17.1795 22.2798 17.1549 22.2441 17.1282C22.0804 17.0055 21.9507 16.843 21.8673 16.6562C21.7839 16.4693 21.7497 16.2643 21.7677 16.0605C21.7706 16.0278 21.7749 15.9949 21.7807 15.9617V15.963C21.7863 15.9307 21.7938 15.9009 21.8019 15.8661C21.8292 15.7605 21.8707 15.6592 21.9255 15.5648ZM20.9093 15.9139C20.8707 16.2283 20.9047 16.5474 21.0088 16.8467C21.1128 17.1459 21.284 17.4173 21.5093 17.64L16.1137 23.5909C15.4589 23.0358 14.628 22.7317 13.7696 22.7332L13.5832 16.8642C14.098 16.8248 14.5869 16.6232 14.9799 16.2884C15.3728 15.9536 15.6495 15.5028 15.7702 15.0009L20.9093 15.9139ZM12.1739 13.7158C12.3395 13.4332 12.5979 13.2168 12.9051 13.1033C13.2123 12.9898 13.5493 12.9862 13.8589 13.0932C14.1684 13.2001 14.4313 13.411 14.6029 13.69C14.7745 13.9689 14.8441 14.2987 14.8 14.6232C14.7957 14.6537 14.7907 14.6853 14.7845 14.7133L14.7807 14.7313C14.7739 14.7617 14.7671 14.7934 14.7584 14.822C14.6806 15.0918 14.5244 15.3325 14.3096 15.5135C14.0949 15.6945 13.8313 15.8077 13.5522 15.8388C13.5217 15.8419 13.4901 15.8443 13.4609 15.8456H13.4416C13.4106 15.8456 13.3795 15.8456 13.3491 15.8456C13.1041 15.8372 12.8655 15.7654 12.6566 15.6371C12.4477 15.5089 12.2756 15.3287 12.1572 15.1141C12.0388 14.8995 11.9781 14.6578 11.981 14.4127C11.9839 14.1676 12.0504 13.9275 12.1739 13.7158ZM11.9534 25.2934C12.1255 24.9996 12.3664 24.752 12.6554 24.572C12.9444 24.392 13.2729 24.2848 13.6124 24.2599C13.6799 24.2549 13.7478 24.253 13.8162 24.2543C14.1744 24.2619 14.5247 24.3614 14.8335 24.5431C14.9244 24.5958 15.0111 24.6552 15.0932 24.7207C15.1466 24.7622 15.1973 24.8073 15.2453 24.8561C15.5337 25.139 15.7345 25.4989 15.8236 25.8928C15.8311 25.9259 15.8377 25.959 15.8435 25.9922C15.8493 26.0257 15.8545 26.0593 15.859 26.0928C15.9048 26.4515 15.8573 26.816 15.7212 27.151C15.5851 27.486 15.3649 27.7803 15.0819 28.0054C14.7989 28.2305 14.4626 28.3789 14.1056 28.4362C13.7485 28.4935 13.3827 28.4578 13.0435 28.3325C12.9801 28.3094 12.918 28.2829 12.8571 28.253C12.8062 28.2282 12.7559 28.2027 12.7068 28.1735C12.4684 28.0338 12.2598 27.8484 12.093 27.628C11.9262 27.4076 11.8045 27.1565 11.7348 26.889C11.665 26.6216 11.6487 26.343 11.6866 26.0692C11.7246 25.7954 11.8161 25.5318 11.9559 25.2934H11.9534ZM10.9236 34.7661C10.8576 34.8787 10.7598 34.9691 10.6424 35.0261C10.525 35.083 10.3934 35.1039 10.2641 35.086C10.1349 35.0681 10.0138 35.0123 9.91631 34.9256C9.81879 34.839 9.74916 34.7253 9.71623 34.5991C9.68329 34.4728 9.68854 34.3397 9.73131 34.2164C9.77407 34.0931 9.85243 33.9853 9.95648 33.9066C10.0605 33.8279 10.1856 33.7817 10.3158 33.7741C10.4461 33.7665 10.5757 33.7976 10.6882 33.8636C10.8391 33.9521 10.9486 34.0969 10.9928 34.2661C11.0369 34.4353 11.012 34.6152 10.9236 34.7661ZM10.7901 33.3847L10.813 33.394L10.7901 33.3847ZM11.4168 34.8332C11.5116 34.5829 11.5149 34.3071 11.4261 34.0546C11.3374 33.802 11.1622 33.589 10.9317 33.453L10.9068 33.44L12.4596 29.7357C13.0505 29.9657 13.6914 30.0367 14.3183 29.9416C14.9452 29.8464 15.5362 29.5884 16.0322 29.1933C16.5281 28.7983 16.9118 28.28 17.1447 27.6902C17.3776 27.1005 17.4518 26.4599 17.3596 25.8325L23.5472 24.7586C23.7755 25.87 24.3651 26.8746 25.2242 27.6158L18.8056 35.1934C18.4738 34.9275 18.0837 34.7441 17.6672 34.6583C17.2508 34.5725 16.8199 34.5868 16.4101 34.7C16.0002 34.8132 15.6231 35.0221 15.3097 35.3095C14.9963 35.5969 14.7557 35.9545 14.6075 36.353L11.4168 34.8332ZM11.336 35.0046C11.3522 34.9766 11.3671 34.9481 11.3807 34.9195C11.3665 34.9481 11.3522 34.9766 11.336 35.0046ZM16.3354 38.6338C16.064 38.4747 15.847 38.2372 15.7128 37.9526C15.5787 37.6679 15.5338 37.3494 15.5839 37.0388C15.595 36.9701 15.6108 36.9022 15.6311 36.8357C15.7077 36.579 15.8492 36.3464 16.0417 36.1602C16.2342 35.974 16.4714 35.8405 16.7305 35.7725C16.9896 35.7044 17.2618 35.7042 17.521 35.7717C17.7801 35.8393 18.0176 35.9723 18.2105 36.1582C18.4034 36.344 18.5453 36.5763 18.6224 36.8328C18.6996 37.0893 18.7095 37.3613 18.6512 37.6227C18.5929 37.8842 18.4683 38.1262 18.2894 38.3255C18.1105 38.5249 17.8834 38.6749 17.6298 38.7611C17.4176 38.8345 17.1921 38.8611 16.9687 38.8391C16.7452 38.8172 16.5292 38.7471 16.3354 38.6338ZM23.1311 45.5903C23.025 45.7699 22.8682 45.9141 22.6803 46.0047C22.4924 46.0953 22.2819 46.1282 22.0753 46.0992C21.8687 46.0703 21.6754 45.9808 21.5196 45.8421C21.3638 45.7034 21.2526 45.5217 21.2 45.3198C21.1474 45.118 21.1558 44.9051 21.224 44.708C21.2923 44.5109 21.4174 44.3384 21.5836 44.2123C21.7497 44.0863 21.9495 44.0122 22.1577 43.9996C22.3659 43.9869 22.5732 44.0362 22.7534 44.1412C22.8736 44.2113 22.9788 44.3045 23.063 44.4153C23.1471 44.5262 23.2084 44.6526 23.2435 44.7873C23.2786 44.9219 23.2868 45.0622 23.2675 45.2C23.2482 45.3378 23.2018 45.4705 23.1311 45.5903ZM23.4273 43.6897C23.1277 43.4242 22.7491 43.2646 22.3498 43.2357C21.9505 43.2067 21.5528 43.31 21.218 43.5294L18.4733 39.6164C18.8228 39.4138 19.1221 39.1351 19.349 38.8009C19.5759 38.4666 19.7246 38.0856 19.7838 37.686L25.4311 37.745C25.4812 38.7841 25.9052 39.7701 26.6248 40.5214L23.4273 43.6897ZM19.7981 37.5748V37.5909V37.5748ZM28.4683 39.6965C28.3188 39.6089 28.1787 39.5061 28.0503 39.3897C28.0006 39.3443 27.9534 39.2978 27.9081 39.2493C27.5274 38.842 27.2935 38.3194 27.2435 37.7642C27.2406 37.7311 27.2381 37.698 27.236 37.6648C27.236 37.6611 27.236 37.658 27.236 37.6543C27.236 37.6232 27.236 37.5922 27.236 37.5605C27.2309 36.9529 27.4473 36.3643 27.8446 35.9047C28.242 35.445 28.7931 35.1458 29.395 35.063L29.4938 35.0512H29.5031C29.5342 35.0512 29.5652 35.0456 29.5963 35.0437C30.0879 35.0155 30.5768 35.1337 31.0012 35.3835C31.0841 35.4323 31.1642 35.4858 31.241 35.5437C31.2956 35.5851 31.3482 35.628 31.3987 35.6723C31.6914 35.9333 31.9186 36.2593 32.0622 36.6242C32.2058 36.989 32.2617 37.3825 32.2255 37.7729C32.2197 37.8321 32.212 37.8913 32.2025 37.9506C32.1441 38.3017 32.0114 38.6363 31.8134 38.932C31.6153 39.2277 31.3564 39.4778 31.054 39.6655C31.0267 39.6824 30.999 39.6988 30.9708 39.7145L30.964 39.7183C30.9354 39.7344 30.9064 39.7499 30.877 39.7648C30.5022 39.9573 30.0849 40.0518 29.6637 40.0397C29.2426 40.0275 28.8314 39.909 28.4683 39.6953V39.6965ZM45.6776 39.5034C45.562 39.7041 45.3836 39.8612 45.1698 39.9505C44.9561 40.0399 44.7189 40.0564 44.4948 39.9977C44.2708 39.9389 44.0722 39.8081 43.9298 39.6254C43.7874 39.4427 43.7091 39.2182 43.7068 38.9866C43.7036 38.8344 43.7334 38.6834 43.794 38.5438C43.8546 38.4042 43.9447 38.2794 44.0581 38.1778C44.1715 38.0763 44.3055 38.0005 44.4509 37.9556C44.5963 37.9107 44.7497 37.8977 44.9006 37.9176C44.968 37.9265 45.0343 37.9419 45.0987 37.9636C45.2486 38.013 45.3855 38.0953 45.4994 38.2046C45.6133 38.3138 45.7012 38.4472 45.7567 38.5949C45.8123 38.7426 45.834 38.9009 45.8203 39.0581C45.8066 39.2153 45.7579 39.3675 45.6776 39.5034ZM46.0459 32.9562L45.0733 37.1704C44.8325 37.1292 44.586 37.1366 44.3482 37.1924C44.1104 37.2482 43.8862 37.3512 43.689 37.4953C43.4917 37.6394 43.3254 37.8216 43.1999 38.0311C43.0744 38.2407 42.9923 38.4733 42.9584 38.7152L34.0255 37.9077C34.0839 37.2248 33.9787 36.5377 33.7186 35.9035C33.4585 35.2694 33.051 34.7063 32.5298 34.2611L38.6571 26.6537C38.6874 26.6735 38.7182 26.6928 38.7497 26.7114C39.1346 26.9371 39.5822 27.0321 40.0256 26.9824C40.469 26.9327 40.8845 26.7409 41.2099 26.4357L44.9205 29.7009C44.7142 29.9719 44.578 30.2896 44.5241 30.626C44.4702 30.9623 44.5003 31.3067 44.6116 31.6286C44.7229 31.9505 44.912 32.2399 45.1622 32.4711C45.4123 32.7022 45.7157 32.868 46.0453 32.9537L46.0459 32.9562ZM47.5987 31.5624C47.4821 31.7611 47.3107 31.922 47.1051 32.0258C46.8994 32.1297 46.6682 32.1721 46.4391 32.1481C46.4068 32.145 46.377 32.14 46.3416 32.1338H46.3366C46.3039 32.1276 46.2712 32.1199 46.2385 32.1108C46.0612 32.0619 45.8976 31.9727 45.7604 31.8503C45.6232 31.7278 45.516 31.5754 45.4473 31.4048C45.3785 31.2342 45.3501 31.0501 45.3641 30.8667C45.378 30.6833 45.4341 30.5056 45.5279 30.3475C45.5422 30.3239 45.5577 30.3015 45.5733 30.2791C45.5888 30.2568 45.6118 30.2251 45.6354 30.1996L45.6397 30.194C45.6602 30.1686 45.682 30.1444 45.7018 30.1207C45.8242 29.9944 45.9727 29.8965 46.137 29.834C46.3014 29.7714 46.4774 29.7457 46.6528 29.7586C46.6859 29.7611 46.719 29.7648 46.7522 29.7698H46.759C46.7907 29.7748 46.8211 29.781 46.8534 29.7891C47.0346 29.8339 47.2028 29.9204 47.3446 30.0417C47.4865 30.163 47.598 30.3158 47.6704 30.4878C47.7428 30.6599 47.774 30.8464 47.7616 31.0326C47.7491 31.2189 47.6934 31.3996 47.5987 31.5605V31.5624ZM47.2317 25.2798L46.7664 28.894C46.45 28.8635 46.1308 28.9062 45.8335 29.0188C45.5362 29.1315 45.2689 29.3111 45.0522 29.5437L41.3522 26.2878C41.572 26.0366 41.7276 25.7359 41.8057 25.4113C41.8838 25.0868 41.882 24.7482 41.8006 24.4245L44.782 23.3065C44.9848 23.8191 45.3171 24.2705 45.7464 24.6163C46.1758 24.9622 46.6875 25.1908 47.2317 25.2798ZM49.3435 23.0686C49.1504 23.3979 48.8603 23.6595 48.5128 23.8176C48.1654 23.9757 47.7776 24.0225 47.4025 23.9518C47.0989 23.8946 46.8144 23.7623 46.575 23.567C46.3355 23.3717 46.1488 23.1197 46.0317 22.8338C46.0188 22.8027 46.007 22.7713 45.9963 22.7394C45.9855 22.7079 45.9755 22.676 45.9664 22.6437C45.8649 22.2881 45.8723 21.9102 45.9877 21.5588C46.1031 21.2074 46.3211 20.8986 46.6136 20.6723C46.6401 20.6516 46.6671 20.6309 46.6944 20.6102C46.7221 20.5911 46.7503 20.5727 46.7789 20.5549C47.1311 20.3398 47.545 20.2484 47.9551 20.2953C48.3651 20.3423 48.7477 20.5248 49.0422 20.814C49.3367 21.1032 49.5261 21.4824 49.5805 21.8916C49.6348 22.3007 49.551 22.7163 49.3422 23.0723L49.3435 23.0686Z" fill="#171F2A"/>
<path d="M48.5478 20.7675C48.5059 20.7492 48.4588 20.747 48.4154 20.7612C48.3719 20.7753 48.3352 20.805 48.3122 20.8445C48.2892 20.884 48.2815 20.9306 48.2906 20.9753C48.2997 21.0201 48.3249 21.06 48.3615 21.0874C48.6392 21.2502 48.841 21.5165 48.9225 21.8279C49.004 22.1393 48.9586 22.4703 48.7963 22.7483C48.7805 22.7693 48.7694 22.7935 48.7636 22.8191C48.7578 22.8448 48.7576 22.8713 48.7628 22.8971C48.768 22.9228 48.7786 22.9472 48.7939 22.9686C48.8092 22.9899 48.8289 23.0078 48.8516 23.021C48.8743 23.0343 48.8996 23.0425 48.9257 23.0453C48.9518 23.0481 48.9783 23.0453 49.0032 23.0372C49.0282 23.029 49.0512 23.0156 49.0707 22.998C49.0901 22.9803 49.1056 22.9587 49.1161 22.9346C49.3276 22.5718 49.3865 22.1399 49.2799 21.7336C49.1734 21.3274 48.9101 20.98 48.5478 20.7675Z" fill="#171F2A"/>
<path d="M31.1472 38.3671C31.1306 38.3956 31.1197 38.4272 31.1153 38.4599C31.1108 38.4926 31.1129 38.5259 31.1213 38.5579C31.1297 38.5898 31.1443 38.6198 31.1644 38.6461C31.1844 38.6724 31.2093 38.6945 31.2379 38.7112C31.2664 38.7278 31.298 38.7387 31.3307 38.7431C31.3635 38.7476 31.3968 38.7455 31.4287 38.7371C31.4607 38.7287 31.4906 38.714 31.5169 38.694C31.5432 38.674 31.5653 38.649 31.582 38.6205C31.8685 38.1308 31.949 37.5474 31.8059 36.9984C31.6628 36.4493 31.3078 35.9795 30.8187 35.6919C30.761 35.6583 30.6924 35.649 30.6279 35.666C30.5633 35.683 30.5082 35.725 30.4746 35.7826C30.441 35.8403 30.4317 35.9089 30.4487 35.9735C30.4657 36.038 30.5076 36.0931 30.5653 36.1267C30.9388 36.3473 31.2097 36.7069 31.3188 37.1267C31.4278 37.5466 31.3661 37.9926 31.1472 38.3671Z" fill="#171F2A"/>
<path d="M26.5981 6.82167C26.8372 6.96243 27.0107 7.19227 27.0805 7.46077C27.1504 7.72928 27.1109 8.01453 26.9708 8.25397C26.9586 8.27211 26.9502 8.29256 26.9462 8.31406C26.9421 8.33556 26.9426 8.35765 26.9474 8.37898C26.9523 8.40031 26.9614 8.42042 26.9743 8.43807C26.9872 8.45573 27.0036 8.47055 27.0225 8.48163C27.0413 8.49272 27.0623 8.49982 27.084 8.50252C27.1057 8.50521 27.1277 8.50343 27.1487 8.49729C27.1697 8.49115 27.1892 8.48077 27.206 8.46681C27.2228 8.45284 27.2366 8.43558 27.2465 8.41608C27.3373 8.26127 27.3968 8.09009 27.4214 7.91232C27.446 7.73454 27.4354 7.55366 27.3901 7.37999C27.3449 7.20632 27.2658 7.04327 27.1575 6.90015C27.0492 6.75704 26.9138 6.63666 26.759 6.54589C26.7408 6.53367 26.7204 6.5253 26.6989 6.52128C26.6774 6.51726 26.6553 6.51769 26.634 6.52253C26.6126 6.52738 26.5925 6.53654 26.5749 6.54945C26.5572 6.56235 26.5424 6.57874 26.5313 6.59759C26.5202 6.61645 26.5131 6.63737 26.5104 6.65908C26.5077 6.68078 26.5095 6.70281 26.5157 6.7238C26.5218 6.74479 26.5322 6.7643 26.5461 6.78113C26.5601 6.79796 26.5774 6.81176 26.5969 6.82167H26.5981Z" fill="#171F2A"/>
<path d="M13.8677 13.6314C14.0793 13.7566 14.2329 13.9604 14.2949 14.1983C14.3569 14.4362 14.3224 14.689 14.1988 14.9016C14.1876 14.9177 14.18 14.9359 14.1762 14.9551C14.1724 14.9743 14.1727 14.9941 14.1769 15.0132C14.1811 15.0323 14.1892 15.0504 14.2008 15.0662C14.2123 15.082 14.2269 15.0953 14.2438 15.1052C14.2607 15.1151 14.2795 15.1214 14.2989 15.1237C14.3183 15.1261 14.338 15.1243 14.3568 15.1187C14.3755 15.1131 14.3929 15.1036 14.4078 15.0909C14.4227 15.0783 14.4349 15.0627 14.4435 15.0451C14.6056 14.7674 14.6508 14.4367 14.5693 14.1256C14.4878 13.8146 14.2862 13.5486 14.0087 13.3861C13.9926 13.375 13.9744 13.3673 13.9552 13.3635C13.936 13.3597 13.9162 13.36 13.8971 13.3642C13.878 13.3684 13.8599 13.3766 13.8441 13.3881C13.8283 13.3996 13.815 13.4143 13.8051 13.4311C13.7952 13.448 13.7889 13.4668 13.7866 13.4862C13.7843 13.5056 13.786 13.5253 13.7916 13.5441C13.7973 13.5628 13.8067 13.5802 13.8194 13.5951C13.832 13.61 13.8477 13.6222 13.8652 13.6308L13.8677 13.6314Z" fill="#171F2A"/>
<path d="M40.3155 24.0435C40.288 24.0271 40.2551 24.0222 40.224 24.03C40.1929 24.0378 40.1662 24.0576 40.1497 24.0852C40.1332 24.1127 40.1283 24.1456 40.1361 24.1767C40.1439 24.2078 40.1638 24.2345 40.1913 24.251C40.3711 24.3567 40.5016 24.5294 40.5542 24.7311C40.6069 24.9329 40.5773 25.1474 40.4721 25.3274C40.4639 25.341 40.4585 25.3561 40.4562 25.3718C40.4539 25.3875 40.4547 25.4035 40.4585 25.4189C40.4624 25.4343 40.4693 25.4488 40.4787 25.4616C40.4882 25.4743 40.5001 25.4851 40.5137 25.4932C40.5273 25.5014 40.5424 25.5068 40.5581 25.5091C40.5738 25.5114 40.5898 25.5106 40.6052 25.5068C40.6206 25.5029 40.6351 25.496 40.6479 25.4866C40.6606 25.4771 40.6714 25.4652 40.6795 25.4516C40.7482 25.3353 40.7932 25.2066 40.812 25.0728C40.8309 24.9391 40.8232 24.8029 40.7894 24.6722C40.7556 24.5414 40.6963 24.4186 40.615 24.3107C40.5337 24.2028 40.4319 24.1121 40.3155 24.0435Z" fill="#171F2A"/>
<path d="M46.964 30.2758C47.1437 30.3815 47.2743 30.5542 47.3269 30.756C47.3795 30.9578 47.35 31.1722 47.2447 31.3522C47.2283 31.3797 47.2234 31.4127 47.2312 31.4438C47.239 31.4749 47.2588 31.5016 47.2863 31.5181C47.3138 31.5345 47.3468 31.5394 47.3779 31.5316C47.409 31.5238 47.4357 31.504 47.4522 31.4764C47.5897 31.2414 47.6284 30.9614 47.5597 30.6979C47.491 30.4343 47.3205 30.2088 47.0857 30.0709C47.0582 30.0544 47.0253 30.0495 46.9942 30.0573C46.9631 30.0652 46.9364 30.085 46.9199 30.1125C46.9034 30.14 46.8985 30.1729 46.9063 30.204C46.9142 30.2351 46.934 30.2619 46.9615 30.2783L46.964 30.2758Z" fill="#171F2A"/>
<path d="M45.0776 38.2229C45.0634 38.2472 45.0594 38.2761 45.0665 38.3034C45.0736 38.3306 45.0912 38.354 45.1155 38.3682C45.2744 38.4612 45.3898 38.6135 45.4364 38.7916C45.483 38.9697 45.4569 39.159 45.364 39.3179C45.3568 39.3299 45.352 39.3432 45.35 39.3571C45.348 39.371 45.3488 39.3851 45.3522 39.3987C45.3557 39.4123 45.3618 39.4251 45.3703 39.4363C45.3787 39.4475 45.3893 39.4569 45.4014 39.464C45.4135 39.4711 45.4269 39.4758 45.4408 39.4777C45.4547 39.4796 45.4688 39.4787 45.4824 39.4751C45.496 39.4715 45.5087 39.4652 45.5198 39.4567C45.5309 39.4481 45.5403 39.4375 45.5473 39.4253C45.6077 39.3226 45.6473 39.2089 45.6638 39.0908C45.6803 38.9728 45.6734 38.8526 45.6434 38.7372C45.6134 38.6219 45.5609 38.5135 45.489 38.4185C45.4171 38.3234 45.3271 38.2434 45.2242 38.1831C45.212 38.176 45.1985 38.1713 45.1845 38.1694C45.1705 38.1675 45.1562 38.1685 45.1426 38.1722C45.1289 38.1759 45.1161 38.1823 45.105 38.191C45.0938 38.1997 45.0845 38.2105 45.0776 38.2229Z" fill="#171F2A"/>
<path d="M22.6764 44.2719C22.6644 44.2647 22.651 44.26 22.6371 44.2579C22.6233 44.2559 22.6091 44.2567 22.5955 44.2601C22.5819 44.2636 22.5692 44.2698 22.5579 44.2782C22.5467 44.2866 22.5373 44.2972 22.5302 44.3093C22.5231 44.3214 22.5185 44.3348 22.5166 44.3487C22.5147 44.3626 22.5156 44.3767 22.5192 44.3903C22.5228 44.4039 22.529 44.4166 22.5376 44.4277C22.5461 44.4388 22.5568 44.4482 22.569 44.4552C22.7278 44.5482 22.8432 44.7005 22.8898 44.8786C22.9363 45.0566 22.9103 45.2459 22.8174 45.4048C22.8102 45.4169 22.8054 45.4302 22.8034 45.4441C22.8014 45.458 22.8021 45.4721 22.8056 45.4857C22.8091 45.4993 22.8152 45.5121 22.8237 45.5233C22.8321 45.5345 22.8427 45.5439 22.8548 45.551C22.8669 45.5581 22.8803 45.5628 22.8942 45.5646C22.9081 45.5665 22.9222 45.5657 22.9358 45.5621C22.9494 45.5585 22.9621 45.5522 22.9732 45.5437C22.9843 45.5351 22.9937 45.5245 23.0006 45.5123C23.122 45.3048 23.1561 45.0576 23.0953 44.825C23.0345 44.5924 22.8838 44.3935 22.6764 44.2719Z" fill="#171F2A"/>
<path d="M18.0069 37.8066C17.9952 37.8244 17.9873 37.8443 17.9836 37.8652C17.9799 37.886 17.9804 37.9075 17.9852 37.9281C17.9901 37.9488 17.999 37.9683 18.0116 37.9853C18.0242 38.0024 18.0401 38.0168 18.0584 38.0275C18.0767 38.0383 18.097 38.0452 18.118 38.0479C18.1391 38.0505 18.1604 38.0489 18.1808 38.043C18.2012 38.0372 18.2202 38.0273 18.2366 38.0138C18.2531 38.0004 18.2666 37.9838 18.2764 37.965C18.4553 37.6593 18.5055 37.2952 18.4162 36.9525C18.3269 36.6098 18.1053 36.3166 17.8 36.137C17.7823 36.1254 17.7624 36.1175 17.7415 36.1137C17.7206 36.11 17.6992 36.1106 17.6785 36.1154C17.6579 36.1202 17.6384 36.1292 17.6213 36.1418C17.6042 36.1544 17.5899 36.1703 17.5791 36.1886C17.5684 36.2069 17.5615 36.2271 17.5588 36.2482C17.5561 36.2692 17.5578 36.2906 17.5636 36.311C17.5695 36.3314 17.5794 36.3504 17.5928 36.3668C17.6062 36.3832 17.6228 36.3968 17.6416 36.4066C17.8755 36.544 18.0453 36.7686 18.1137 37.0311C18.1822 37.2936 18.1438 37.5725 18.0069 37.8066Z" fill="#171F2A"/>
<path d="M23.3615 15.4931C23.5413 15.5988 23.6718 15.7715 23.7244 15.9733C23.777 16.1751 23.7475 16.3895 23.6422 16.5696C23.6341 16.5832 23.6287 16.5983 23.6264 16.614C23.624 16.6297 23.6248 16.6457 23.6287 16.6611C23.6326 16.6765 23.6394 16.691 23.6489 16.7037C23.6584 16.7165 23.6702 16.7272 23.6839 16.7354C23.6975 16.7436 23.7126 16.7489 23.7283 16.7513C23.744 16.7536 23.76 16.7528 23.7754 16.7489C23.7908 16.7451 23.8053 16.7382 23.818 16.7287C23.8308 16.7193 23.8415 16.7074 23.8497 16.6938C23.9873 16.4587 24.0259 16.1787 23.9572 15.9152C23.8885 15.6516 23.7181 15.4261 23.4832 15.2882C23.4557 15.2717 23.4228 15.2668 23.3917 15.2746C23.3606 15.2824 23.3339 15.3023 23.3174 15.3298C23.3009 15.3573 23.2961 15.3902 23.3039 15.4213C23.3117 15.4524 23.3315 15.4792 23.359 15.4956L23.3615 15.4931Z" fill="#171F2A"/>
<path d="M14.4684 25.1683C14.7834 25.3536 15.0121 25.6563 15.1044 26.0101C15.1966 26.3638 15.1448 26.7396 14.9603 27.0552C14.9463 27.0791 14.9371 27.1055 14.9334 27.133C14.9296 27.1604 14.9312 27.1883 14.9383 27.2151C14.9453 27.2419 14.9575 27.267 14.9742 27.2891C14.9909 27.3112 15.0118 27.3297 15.0357 27.3437C15.0596 27.3577 15.0861 27.3669 15.1135 27.3706C15.1409 27.3744 15.1688 27.3728 15.1956 27.3658C15.2224 27.3587 15.2476 27.3465 15.2696 27.3298C15.2917 27.3131 15.3103 27.2922 15.3242 27.2683C15.5656 26.8563 15.6336 26.3654 15.5131 25.9033C15.3927 25.4413 15.0938 25.046 14.682 24.8043C14.6337 24.776 14.5762 24.7681 14.5221 24.7823C14.468 24.7964 14.4218 24.8315 14.3935 24.8797C14.3653 24.928 14.3573 24.9855 14.3715 25.0396C14.3856 25.0937 14.4207 25.14 14.469 25.1683H14.4684Z" fill="#171F2A"/>
<path d="M10.6404 33.9461C10.6252 33.9372 10.6072 33.9347 10.5902 33.9391C10.5732 33.9436 10.5586 33.9546 10.5497 33.9697C10.5408 33.9849 10.5383 34.003 10.5427 34.02C10.5472 34.037 10.5582 34.0515 10.5733 34.0604C10.6716 34.1189 10.7429 34.2138 10.7717 34.3245C10.8005 34.4352 10.7846 34.5528 10.7273 34.6518C10.7229 34.6593 10.7201 34.6676 10.7189 34.6762C10.7177 34.6848 10.7182 34.6936 10.7204 34.702C10.7226 34.7104 10.7264 34.7183 10.7316 34.7253C10.7369 34.7322 10.7434 34.7381 10.7509 34.7425C10.7585 34.7469 10.7668 34.7498 10.7754 34.751C10.784 34.7522 10.7928 34.7516 10.8012 34.7495C10.8096 34.7473 10.8175 34.7434 10.8244 34.7382C10.8314 34.7329 10.8372 34.7264 10.8416 34.7189C10.9172 34.5897 10.9385 34.4357 10.9008 34.2909C10.8631 34.146 10.7694 34.022 10.6404 33.9461Z" fill="#171F2A"/>
<path d="M34.9807 45.4484C35.1064 45.5223 35.1977 45.6431 35.2345 45.7842C35.2712 45.9254 35.2506 46.0753 35.177 46.2012C35.1657 46.2205 35.1626 46.2435 35.1682 46.2651C35.1739 46.2867 35.1879 46.3052 35.2071 46.3164C35.2264 46.3277 35.2494 46.3309 35.271 46.3252C35.2926 46.3196 35.3111 46.3056 35.3224 46.2863C35.4185 46.1219 35.4455 45.926 35.3974 45.7416C35.3493 45.5573 35.2301 45.3996 35.0658 45.303C35.0563 45.2975 35.0457 45.2938 35.0348 45.2923C35.0238 45.2908 35.0127 45.2914 35.002 45.2942C34.9913 45.297 34.9813 45.3019 34.9724 45.3086C34.9636 45.3153 34.9562 45.3236 34.9506 45.3332C34.945 45.3427 34.9414 45.3533 34.9399 45.3642C34.9384 45.3752 34.939 45.3863 34.9418 45.397C34.9446 45.4077 34.9495 45.4178 34.9562 45.4266C34.9629 45.4354 34.9712 45.4428 34.9807 45.4484Z" fill="#171F2A"/>
</svg>
