<svg width="67" height="75" viewBox="0 0 67 75" fill="none" xmlns="http://www.w3.org/2000/svg">
<rect x="6.97668" y="8.72093" width="45.3488" height="61.0465" fill="#DFE7F1"/>
<rect x="0.872093" y="0.872093" width="47.093" height="64.5349" fill="white" stroke="#F2F5F8" stroke-width="1.74419"/>
<path d="M20.3489 22.8924C20.3489 23.0968 20.1899 23.2558 19.9855 23.2558H14.8983C14.6939 23.2558 14.5349 23.0968 14.5349 22.8924V21.0756C14.5349 20.8712 14.6939 20.7122 14.8983 20.7122H15.9884V17.0785H14.8983C14.6939 17.0785 14.5349 16.9195 14.5349 16.7151V14.8983C14.5349 14.6939 14.6939 14.5349 14.8983 14.5349H18.532C18.7364 14.5349 18.8954 14.6939 18.8954 14.8983V20.7122H19.9855C20.1899 20.7122 20.3489 20.8712 20.3489 21.0756V22.8924ZM18.8954 12.718C18.8954 12.9224 18.7364 13.0814 18.532 13.0814H16.3518C16.1474 13.0814 15.9884 12.9224 15.9884 12.718V10.9012C15.9884 10.6968 16.1474 10.5378 16.3518 10.5378H18.532C18.7364 10.5378 18.8954 10.6968 18.8954 10.9012V12.718ZM26.1628 17.4419C26.1628 12.6272 22.2566 8.72093 17.4419 8.72093C12.6272 8.72093 8.72095 12.6272 8.72095 17.4419C8.72095 22.2565 12.6272 26.1628 17.4419 26.1628C22.2566 26.1628 26.1628 22.2565 26.1628 17.4419Z" fill="#A6B9D3"/>
<path d="M10.4651 33.1395H27.9069" stroke="#A6B9D3" stroke-width="3.48837"/>
<path d="M10.4651 54H27.9069" stroke="#A6B9D3" stroke-width="3.48837"/>
<path d="M10.4651 40.1163H31.3953" stroke="#A6B9D3" stroke-width="3.48837"/>
<path d="M10.4651 47H31.3953" stroke="#A6B9D3" stroke-width="3.48837"/>
<path d="M53.3223 56.0382C53.3223 60.3656 49.8008 63.887 45.4734 63.887C41.146 63.887 37.6246 60.3656 37.6246 56.0382C37.6246 51.7108 41.146 48.1894 45.4734 48.1894C49.8008 48.1894 53.3223 51.7108 53.3223 56.0382ZM62.2924 70.6146C62.2924 70.0189 62.0471 69.4408 61.6441 69.0378L55.6349 63.0286C57.054 60.9788 57.8073 58.526 57.8073 56.0382C57.8073 49.223 52.2886 43.7043 45.4734 43.7043C38.6582 43.7043 33.1395 49.223 33.1395 56.0382C33.1395 62.8534 38.6582 68.3721 45.4734 68.3721C47.9612 68.3721 50.414 67.6187 52.4638 66.1996L58.4731 72.1914C58.876 72.6119 59.4542 72.8571 60.0498 72.8571C61.2762 72.8571 62.2924 71.841 62.2924 70.6146Z" fill="#A6B9D3"/>
</svg>
