<svg id="Group_16" data-name="Group 16" xmlns="http://www.w3.org/2000/svg" xmlns:xlink="http://www.w3.org/1999/xlink" width="100.682" height="100.712" viewBox="0 0 100.682 100.712">
  <defs>
    <style>
      .cls-1 {
        fill: #22252c;
      }

      .cls-2 {
        clip-path: url(#clip-path);
      }
    </style>
    <clipPath id="clip-path">
      <rect id="Rectangle_16" data-name="Rectangle 16" class="cls-1" width="100.682" height="100.712"/>
    </clipPath>
  </defs>
  <g id="Group_15" data-name="Group 15" class="cls-2">
    <path id="Path_41" data-name="Path 41" class="cls-1" d="M48.678.029q-2.331.079-4.629.38A50.585,50.585,0,0,0,21.1,9.4,62.934,62.934,0,0,0,10.4,19.684,51.79,51.79,0,0,0,.189,46.177,50.547,50.547,0,0,0,14.842,85.946a51.075,51.075,0,0,0,30.322,14.594A65.245,65.245,0,0,0,59.83,99.9,49.581,49.581,0,0,0,85.942,85.972,49.532,49.532,0,0,0,99.913,59.741a59.362,59.362,0,0,0,.171-17.93A54.066,54.066,0,0,0,91.5,21.251,61.1,61.1,0,0,0,79.517,9.273,50.866,50.866,0,0,0,48.678.029m.7,21.235a29.392,29.392,0,0,1,17.832,5.343,35.506,35.506,0,0,1,6.923,6.923A31.326,31.326,0,0,1,79.1,45.416a35.667,35.667,0,0,1-.066,10.365A29.395,29.395,0,0,1,55.863,79a37.759,37.759,0,0,1-8.49.367,29.544,29.544,0,0,1-17.531-8.431A29.234,29.234,0,0,1,21.378,47.94a29.982,29.982,0,0,1,5.9-15.315,36.365,36.365,0,0,1,6.182-5.946,29.282,29.282,0,0,1,13.269-5.192c.892-.118,1.777-.19,2.675-.223Z" transform="translate(0 -0.001)"/>
    <path id="Path_42" data-name="Path 42" class="cls-1" d="M224.2,164.8a12.3,12.3,0,0,0-11.3,7.4h9.238v4.445H211.908c0,.167-.066.324-.066.5v4.012h10.28V185.6h-10.28v4.032a2.6,2.6,0,0,0,.066.5h10.227v4.445h-9.244a12.339,12.339,0,0,0,23.648-4.943v-12.5A12.308,12.308,0,0,0,224.2,164.8" transform="translate(-173.654 -135.089)"/>
    <rect id="Rectangle_15" data-name="Rectangle 15" class="cls-1" width="8.818" height="22.002" transform="translate(46.35 70.364)"/>
  </g>
</svg>
