<?xml version="1.0" encoding="UTF-8"?><svg id="Layer_1" xmlns="http://www.w3.org/2000/svg" viewBox="0 0 268.92 268.95"><defs><style>.cls-1{fill:#263238;}</style></defs><path class="cls-1" d="m267.31,111.68c-3.5-19.1-12-39.6-22.9-55-7.2-10.1-21.8-24.7-32-32C188.51,7.78,159.01-.92,130.01.08c-4.2.1-8.3.4-12.4,1-22.4,2.9-42.9,11-61.3,24-8.6,6.1-22.6,19.6-28.6,27.5C12.31,72.98,2.81,97.68.51,123.28c-3.5,38.5,11.2,78.5,39.1,106.3,21.9,21.7,50.2,35.4,81,38.9,9.3,1.1,29.3.2,39.2-1.7,26.8-5.1,50.2-17.6,69.7-37.2,19.7-19.6,31.9-42.5,37.4-70,2.5-12.6,2.7-35.4.4-47.9Zm-32.6,41.8c-4.1,20.8-13.3,38.1-28.2,53-14.8,14.7-32.5,24.2-52.8,28.1-7.4,1.4-22.6,2.1-29.7,1.3-11.6-1.4-22.8-4.6-33.1-9.6-10.3-4.9-19.8-11.7-28.1-19.9-21.1-21-32.2-51.2-29.6-80.3,1.8-19.4,8.9-38.1,20.6-53.6,4.6-5.9,15.1-16.1,21.7-20.7,13.8-9.9,29.3-15.9,46.3-18.2,3.1-.4,6.2-.6,9.4-.8,21.9-.7,44.1,5.9,62.2,18.7,7.7,5.5,18.7,16.5,24.2,24.2,8.2,11.6,14.7,27.1,17.3,41.5,1.8,9.5,1.6,26.8-.2,36.3Z"/><path class="cls-1" d="m95.71,77.78c1-.9,1.4-1.2,2.4-1.8,2-.9,4-1.3,6-1,1.6.2,3.2.7,4.4,1.4l.9.5,39.4.1,39.5.1v-12.1h-3c-1.6,0-18.6-.1-37.8-.1l-34.9-.1-1.9-.6c-3-1.1-4.4-1.3-8-1.3-2.6,0-3.2.1-4.3.3-9.3,2.1-15.6,8.6-17.5,18.1l-.3,1.5v51c0,45.8,0,51.2.2,52.6,1.1,7.8,5.1,13.8,11.7,17.3,2.1,1.1,5.2,2,7.5,2.3,3.5.5,7.7-.1,11.2-1.4l1.2-.4,30-.1c16.5,0,33.5-.1,37.9-.2h7.8v-98h-13.8l-36.4.1h-28.4l-1.3.7c-1.9.9-3.1,1.3-5.3,1.3s-2.9-.2-4.8-1.1c-1-.6-1.4-.9-2.4-1.8-1.3-1.3-2-2.6-2.6-4.6-.3-1-.3-1.1-.3-9s0-8,.3-9.1c.6-1.9,1.3-3.3,2.6-4.6Zm22.6,52.1h44.1v18.2h-44.1v-18.2Z"/><path class="cls-1" d="m185.71,90.38c0,1.3-1.1,2.4-2.4,2.4h-80.4c-1.3,0-2.4-1.1-2.4-2.4s1.1-2.4,2.4-2.4h80.4c1.3,0,2.4,1.1,2.4,2.4Z"/></svg>