<svg xmlns="http://www.w3.org/2000/svg" width="37.941" height="41.935" viewBox="0 0 37.941 41.935">
  <g id="_10058607551581068452" data-name="10058607551581068452" transform="translate(-14 -2)">
    <g id="Group_84" data-name="Group 84" transform="translate(14 2)">
      <g id="Group_81" data-name="Group 81" transform="translate(6.223 12.98)">
        <path id="Path_110" data-name="Path 110" d="M53.5,54.086a1.05,1.05,0,0,0-.306-.526,4.253,4.253,0,0,0-2.746-.649,22.683,22.683,0,0,0-3.3.243A8.226,8.226,0,0,1,45.618,52.1a11.182,11.182,0,0,1-2.766-4.29c.04-.156.073-.293.107-.433a27.909,27.909,0,0,0,.486-5.026,1.46,1.46,0,0,0-.087-.359l-.057-.146a1.191,1.191,0,0,0-1.085-.832L41.89,41h-.007a1.227,1.227,0,0,0-1.251.785c-.4,1.478.013,3.691.762,6.553L41.2,48.8c-.536,1.311-1.208,2.629-1.8,3.791l-.077.15c-.626,1.221-1.191,2.26-1.707,3.138l-.529.28c-.04.02-.949.5-1.162.629-1.807,1.082-3.005,2.306-3.205,3.278a.8.8,0,0,0,.306.892l.513.26a1.575,1.575,0,0,0,.7.166c1.288,0,2.782-1.6,4.842-5.2a48.17,48.17,0,0,1,7.458-1.771,12.868,12.868,0,0,0,5.435,1.724,2.514,2.514,0,0,0,.639-.07,1.11,1.11,0,0,0,.636-.433A2.3,2.3,0,0,0,53.5,54.086ZM33.959,60.413A8.941,8.941,0,0,1,36.5,57.375c.087-.07.3-.27.493-.456C35.554,59.212,34.592,60.124,33.959,60.413ZM42.1,41.666c.413,0,.649,1.042.669,2.02a4.153,4.153,0,0,1-.493,2.173,10.549,10.549,0,0,1-.349-2.712S41.91,41.666,42.1,41.666Zm-2.43,13.359q.434-.774.9-1.637a30.661,30.661,0,0,0,1.571-3.428,11.339,11.339,0,0,0,2.593,3.218c.13.106.266.216.406.326A32.927,32.927,0,0,0,39.671,55.025Zm13.123-.116a1.917,1.917,0,0,1-.722.123,8.479,8.479,0,0,1-3-.905c.5-.037.965-.057,1.378-.057a5.29,5.29,0,0,1,1.721.186C52.913,54.446,52.923,54.829,52.794,54.908Z" transform="translate(-32.697 -41)" fill="#562dc8"/>
      </g>
      <g id="Group_83" data-name="Group 83" transform="translate(0)">
        <path id="Path_111" data-name="Path 111" d="M87.988,80a7.988,7.988,0,1,0,7.988,7.988A7.988,7.988,0,0,0,87.988,80Zm3.622,5.654-.038.059-2.74,3.807a1,1,0,0,1-1.688,0l-2.778-3.865a1,1,0,0,1,.867-1.494h1.423V82a1,1,0,0,1,1-1h.666a1,1,0,0,1,1,1V84.16h1.423a1,1,0,0,1,.867,1.494Z" transform="translate(-58.034 -54.04)" fill="#562dc8"/>
        <g id="Group_82" data-name="Group 82">
          <path id="Path_112" data-name="Path 112" d="M83.967,125.95l-.017.017h.017Z" transform="translate(-60.669 -84.697)" fill="#562dc8"/>
          <path id="Path_113" data-name="Path 113" d="M113.967,76.967V76.95l-.017.017Z" transform="translate(-80.685 -52.005)" fill="#562dc8"/>
          <path id="Path_114" data-name="Path 114" d="M46.307,16.059,33.223,2.975A3.307,3.307,0,0,0,30.869,2H17.328A3.332,3.332,0,0,0,14,5.328V39.941a3.332,3.332,0,0,0,3.328,3.328H37.281l-1.331-1.331H17.328a2,2,0,0,1-2-2V5.328a2,2,0,0,1,2-2H30.869a1.983,1.983,0,0,1,1.412.585L45.366,17a2.012,2.012,0,0,1,.585,1.412v7.2l1.331,1.331V18.412A3.306,3.306,0,0,0,46.307,16.059Z" transform="translate(-14 -2)" fill="#562dc8"/>
          <path id="Path_115" data-name="Path 115" d="M111.315,74.3l.017-.017L110,72.95" transform="translate(-78.05 -49.337)" fill="#562dc8"/>
        </g>
      </g>
    </g>
  </g>
</svg>
